<svg width="45" height="45" viewBox="0 0 45 45" fill="none" xmlns="http://www.w3.org/2000/svg">
<path d="M22.4999 14.7294C22.1249 14.7294 21.8208 14.4254 21.8208 14.0503V11.9813C21.8208 11.6063 22.1248 11.3022 22.4999 11.3022C22.875 11.3022 23.1791 11.6062 23.1791 11.9813V14.0503C23.179 14.4254 22.875 14.7294 22.4999 14.7294Z" fill="#CCD2DB"/>
<path d="M22.4999 33.6976C22.1249 33.6976 21.8208 33.3936 21.8208 33.0185V30.9495C21.8208 30.5744 22.1248 30.2704 22.4999 30.2704C22.875 30.2704 23.1791 30.5744 23.1791 30.9495V33.0185C23.179 33.3936 22.875 33.6976 22.4999 33.6976Z" fill="#CCD2DB"/>
<path d="M14.8428 18.8632L13.0511 17.8288C12.7263 17.6412 12.615 17.2258 12.8025 16.9011C12.99 16.5762 13.4054 16.4651 13.7302 16.6525L15.522 17.687C15.8468 17.8746 15.9581 18.2899 15.7705 18.6147C15.5831 18.9394 15.1678 19.0508 14.8428 18.8632Z" fill="#CCD2DB"/>
<path d="M31.2696 28.3473L29.4779 27.3129C29.153 27.1253 29.0417 26.7099 29.2293 26.3852C29.4168 26.0604 29.8321 25.9492 30.157 26.1366L31.9487 27.1711C32.2736 27.3587 32.3848 27.774 32.1973 28.0988C32.0097 28.4235 31.5945 28.5349 31.2696 28.3473Z" fill="#CCD2DB"/>
<path d="M12.8025 28.0988C12.615 27.7741 12.7263 27.3587 13.0511 27.1711L14.8428 26.1366C15.1675 25.9492 15.583 26.0604 15.7705 26.3852C15.9581 26.71 15.8468 27.1253 15.522 27.3129L13.7302 28.3474C13.4057 28.5347 12.9903 28.4239 12.8025 28.0988Z" fill="#CCD2DB"/>
<path d="M29.2293 18.6147C29.0417 18.29 29.153 17.8746 29.4779 17.687L31.2696 16.6526C31.5943 16.4652 32.0097 16.5763 32.1973 16.9011C32.3848 17.2259 32.2736 17.6413 31.9487 17.8288L30.157 18.8633C29.8326 19.0506 29.417 18.9398 29.2293 18.6147Z" fill="#CCD2DB"/>
<path d="M22.4999 30.9496C27.1665 30.9496 30.9496 27.1666 30.9496 22.5C30.9496 17.8334 27.1665 14.0503 22.4999 14.0503C17.8333 14.0503 14.0503 17.8334 14.0503 22.5C14.0503 27.1666 17.8333 30.9496 22.4999 30.9496Z" fill="#54A0FF"/>
<path d="M16.771 22.5C16.771 18.2965 19.8406 14.8106 23.8603 14.1598C23.4173 14.0881 22.9631 14.0503 22.4999 14.0503C17.8333 14.0503 14.0503 17.8333 14.0503 22.5C14.0503 27.1666 17.8333 30.9496 22.4999 30.9496C22.9631 30.9496 23.4174 30.9117 23.8603 30.8401C19.8406 30.1893 16.771 26.7033 16.771 22.5Z" fill="#338DEF"/>
<path d="M22.5001 21.443C23.886 21.443 25.0095 20.3195 25.0095 18.9336C25.0095 17.5477 23.886 16.4242 22.5001 16.4242C21.1142 16.4242 19.9907 17.5477 19.9907 18.9336C19.9907 20.3195 21.1142 21.443 22.5001 21.443Z" fill="#FFCDBF"/>
<path d="M23.9201 21.4429H21.0798C19.601 21.4429 18.3911 22.6528 18.3911 24.1316V27.2464C18.3911 27.4993 18.5962 27.7044 18.8491 27.7044H26.1508C26.4038 27.7044 26.6088 27.4993 26.6088 27.2464V24.1316C26.6088 22.6529 25.3989 21.4429 23.9201 21.4429Z" fill="#FECA57"/>
<path d="M20.2021 27.2464V24.1317C20.2021 22.6529 21.412 21.443 22.8908 21.443H21.0798C19.601 21.443 18.3911 22.6529 18.3911 24.1317V27.2464C18.3911 27.4994 18.5962 27.7044 18.8491 27.7044H20.6601C20.4071 27.7044 20.2021 27.4994 20.2021 27.2464Z" fill="#F4B537"/>
<path d="M21.1376 27.7044V24.0352C21.1376 23.6601 20.8335 23.356 20.4584 23.356C20.0833 23.356 19.7793 23.6601 19.7793 24.0352V27.7044H21.1376Z" fill="#F4B537"/>
<path d="M25.2211 24.0352C25.2211 23.6601 24.917 23.356 24.5419 23.356C24.1668 23.356 23.8628 23.6601 23.8628 24.0352V27.7044H25.2211V24.0352Z" fill="#F4B537"/>
<path d="M37.6422 29.8191C39.028 29.8191 40.1515 28.6956 40.1515 27.3097C40.1515 25.9239 39.028 24.8004 37.6422 24.8004C36.2563 24.8004 35.1328 25.9239 35.1328 27.3097C35.1328 28.6956 36.2563 29.8191 37.6422 29.8191Z" fill="#FFCDBF"/>
<path d="M39.0622 29.8192H36.2219C34.7431 29.8192 33.5332 31.0291 33.5332 32.5078V34.6118C33.5332 34.8647 33.7383 35.0698 33.9912 35.0698H41.2929C41.5458 35.0698 41.7509 34.8647 41.7509 34.6118V32.5078C41.7509 31.0291 40.541 29.8192 39.0622 29.8192Z" fill="#FF6B6B"/>
<path d="M35.3442 34.6118V32.5078C35.3442 31.0291 36.5541 29.8192 38.0328 29.8192H36.2218C34.7431 29.8192 33.5332 31.0291 33.5332 32.5078V34.6118C33.5332 34.8647 33.7383 35.0698 33.9912 35.0698H35.8022C35.5492 35.0698 35.3442 34.8647 35.3442 34.6118Z" fill="#EE5253"/>
<path d="M40.3627 32.4113C40.3627 32.0363 40.0586 31.7322 39.6835 31.7322C39.3084 31.7322 39.0044 32.0362 39.0044 32.4113V35.0697H40.3627V32.4113Z" fill="#EE5253"/>
<path d="M36.2792 35.0707V32.4123C36.2792 32.0373 35.9751 31.7332 35.6 31.7332C35.2249 31.7332 34.9209 32.0372 34.9209 32.4123V35.0707H36.2792Z" fill="#EE5253"/>
<path d="M7.358 29.8191C8.74388 29.8191 9.86736 28.6956 9.86736 27.3097C9.86736 25.9239 8.74388 24.8004 7.358 24.8004C5.97211 24.8004 4.84863 25.9239 4.84863 27.3097C4.84863 28.6956 5.97211 29.8191 7.358 29.8191Z" fill="#FFCDBF"/>
<path d="M8.77805 29.8192H5.93769C4.45893 29.8192 3.24902 31.0291 3.24902 32.5078V34.6118C3.24902 34.8647 3.45407 35.0698 3.70702 35.0698H11.0087C11.2617 35.0698 11.4667 34.8647 11.4667 34.6118V32.5078C11.4667 31.0291 10.2568 29.8192 8.77805 29.8192Z" fill="#FF6B6B"/>
<path d="M5.06001 34.6118V32.5078C5.06001 31.0291 6.26991 29.8192 7.74868 29.8192H5.93769C4.45893 29.8192 3.24902 31.0291 3.24902 32.5078V34.6118C3.24902 34.8647 3.45407 35.0698 3.70702 35.0698H5.51801C5.26506 35.0698 5.06001 34.8647 5.06001 34.6118Z" fill="#EE5253"/>
<path d="M10.079 32.4113C10.079 32.0363 9.77496 31.7322 9.39984 31.7322C9.02481 31.7322 8.7207 32.0362 8.7207 32.4113V35.0697H10.079V32.4113Z" fill="#EE5253"/>
<path d="M5.99547 35.0707V32.4123C5.99547 32.0373 5.69145 31.7332 5.31634 31.7332C4.94122 31.7332 4.63721 32.0372 4.63721 32.4123V35.0707H5.99547Z" fill="#EE5253"/>
<path d="M37.6422 14.0183C39.028 14.0183 40.1515 12.8948 40.1515 11.5089C40.1515 10.123 39.028 8.99954 37.6422 8.99954C36.2563 8.99954 35.1328 10.123 35.1328 11.5089C35.1328 12.8948 36.2563 14.0183 37.6422 14.0183Z" fill="#FFCDBF"/>
<path d="M39.0622 14.0183H36.2219C34.7431 14.0183 33.5332 15.2282 33.5332 16.707V18.8109C33.5332 19.0639 33.7383 19.2689 33.9912 19.2689H41.2929C41.5458 19.2689 41.7509 19.0639 41.7509 18.8109V16.707C41.7509 15.2282 40.541 14.0183 39.0622 14.0183Z" fill="#FF6B6B"/>
<path d="M35.3442 18.8109V16.707C35.3442 15.2282 36.5541 14.0183 38.0328 14.0183H36.2218C34.7431 14.0183 33.5332 15.2282 33.5332 16.707V18.8109C33.5332 19.0639 33.7383 19.2689 33.9912 19.2689H35.8022C35.5492 19.2688 35.3442 19.0638 35.3442 18.8109Z" fill="#EE5253"/>
<path d="M40.3627 16.6105C40.3627 16.2355 40.0586 15.9314 39.6835 15.9314C39.3084 15.9314 39.0044 16.2354 39.0044 16.6105V19.2688H40.3627V16.6105Z" fill="#EE5253"/>
<path d="M36.2792 19.2688V16.6105C36.2792 16.2355 35.9751 15.9314 35.6 15.9314C35.2249 15.9314 34.9209 16.2354 34.9209 16.6105V19.2688H36.2792Z" fill="#EE5253"/>
<path d="M7.358 14.0183C8.74388 14.0183 9.86736 12.8948 9.86736 11.5089C9.86736 10.123 8.74388 8.99954 7.358 8.99954C5.97211 8.99954 4.84863 10.123 4.84863 11.5089C4.84863 12.8948 5.97211 14.0183 7.358 14.0183Z" fill="#FFCDBF"/>
<path d="M8.77805 14.0183H5.93769C4.45893 14.0183 3.24902 15.2282 3.24902 16.707V18.8109C3.24902 19.0639 3.45407 19.2689 3.70702 19.2689H11.0087C11.2617 19.2689 11.4667 19.0639 11.4667 18.8109V16.707C11.4667 15.2282 10.2568 14.0183 8.77805 14.0183Z" fill="#FF6B6B"/>
<path d="M5.06001 18.8109V16.707C5.06001 15.2282 6.26991 14.0183 7.74868 14.0183H5.93769C4.45893 14.0183 3.24902 15.2282 3.24902 16.707V18.8109C3.24902 19.0639 3.45407 19.2689 3.70702 19.2689H5.51801C5.26506 19.2688 5.06001 19.0638 5.06001 18.8109Z" fill="#EE5253"/>
<path d="M10.079 16.6105C10.079 16.2355 9.77496 15.9314 9.39984 15.9314C9.02481 15.9314 8.7207 16.2354 8.7207 16.6105V19.2688H10.079V16.6105Z" fill="#EE5253"/>
<path d="M5.99547 19.2688V16.6105C5.99547 16.2355 5.69145 15.9314 5.31634 15.9314C4.94122 15.9314 4.63721 16.2354 4.63721 16.6105V19.2688H5.99547Z" fill="#EE5253"/>
<path d="M22.5001 5.01873C23.886 5.01873 25.0095 3.89525 25.0095 2.50937C25.0095 1.12348 23.886 0 22.5001 0C21.1142 0 19.9907 1.12348 19.9907 2.50937C19.9907 3.89525 21.1142 5.01873 22.5001 5.01873Z" fill="#FFCDBF"/>
<path d="M23.9201 5.0188H21.0798C19.601 5.0188 18.3911 6.2287 18.3911 7.70746V9.81138C18.3911 10.0643 18.5962 10.2694 18.8491 10.2694H26.1508C26.4038 10.2694 26.6088 10.0643 26.6088 9.81138V7.70746C26.6088 6.2287 25.3989 5.0188 23.9201 5.0188Z" fill="#FF6B6B"/>
<path d="M20.2021 9.81138V7.70746C20.2021 6.2287 21.412 5.0188 22.8908 5.0188H21.0798C19.601 5.0188 18.3911 6.2287 18.3911 7.70746V9.81138C18.3911 10.0643 18.5962 10.2694 18.8491 10.2694H20.6601C20.4071 10.2693 20.2021 10.0642 20.2021 9.81138Z" fill="#EE5253"/>
<path d="M25.2211 7.61095C25.2211 7.23592 24.917 6.93182 24.5419 6.93182C24.1668 6.93182 23.8628 7.23584 23.8628 7.61095V10.2693H25.2211V7.61095Z" fill="#EE5253"/>
<path d="M21.1376 10.2693V7.61095C21.1376 7.23592 20.8335 6.93182 20.4584 6.93182C20.0834 6.93182 19.7793 7.23584 19.7793 7.61095V10.2693H21.1376Z" fill="#EE5253"/>
<path d="M22.5001 39.7494C23.886 39.7494 25.0095 38.6259 25.0095 37.24C25.0095 35.8541 23.886 34.7306 22.5001 34.7306C21.1142 34.7306 19.9907 35.8541 19.9907 37.24C19.9907 38.6259 21.1142 39.7494 22.5001 39.7494Z" fill="#FFCDBF"/>
<path d="M22.7116 18.9336C22.7116 18.0492 23.1694 17.2724 23.8605 16.8254C23.4686 16.572 23.0018 16.4242 22.5002 16.4242C21.1142 16.4242 19.9907 17.5477 19.9907 18.9336C19.9907 20.3194 21.1142 21.443 22.5002 21.443C23.0018 21.443 23.4686 21.2952 23.8605 21.0417C23.1694 20.5948 22.7116 19.8179 22.7116 18.9336Z" fill="#FFBEAB"/>
<path d="M37.8532 27.3097C37.8532 26.4254 38.311 25.6485 39.0022 25.2016C38.6101 24.9481 38.1433 24.8004 37.6418 24.8004C36.2558 24.8004 35.1323 25.9239 35.1323 27.3097C35.1323 28.6957 36.2558 29.8191 37.6418 29.8191C38.1433 29.8191 38.6101 29.6714 39.0022 29.4179C38.311 28.971 37.8532 28.194 37.8532 27.3097Z" fill="#FFBEAB"/>
<path d="M7.56906 27.3097C7.56906 26.4254 8.02688 25.6485 8.71806 25.2016C8.32606 24.9481 7.85928 24.8004 7.3576 24.8004C5.97165 24.8004 4.84814 25.9239 4.84814 27.3097C4.84814 28.6957 5.97165 29.8191 7.3576 29.8191C7.85919 29.8191 8.32598 29.6714 8.71806 29.4179C8.02688 28.971 7.56906 28.194 7.56906 27.3097Z" fill="#FFBEAB"/>
<path d="M37.8532 11.5089C37.8532 10.6246 38.311 9.84769 39.0022 9.40076C38.6101 9.14729 38.1433 8.99954 37.6418 8.99954C36.2558 8.99954 35.1323 10.1231 35.1323 11.509C35.1323 12.8949 36.2558 14.0184 37.6418 14.0184C38.1433 14.0184 38.6101 13.8706 39.0022 13.6171C38.311 13.1701 37.8532 12.3933 37.8532 11.5089Z" fill="#FFBEAB"/>
<path d="M7.56906 11.5089C7.56906 10.6246 8.02688 9.84769 8.71806 9.40076C8.32606 9.14729 7.85928 8.99954 7.3576 8.99954C5.97165 8.99954 4.84814 10.1231 4.84814 11.509C4.84814 12.8949 5.97165 14.0184 7.3576 14.0184C7.85919 14.0184 8.32598 13.8706 8.71806 13.6171C8.02688 13.1701 7.56906 12.3933 7.56906 11.5089Z" fill="#FFBEAB"/>
<path d="M22.7116 2.50937C22.7116 1.62501 23.1694 0.848145 23.8605 0.401221C23.4686 0.147744 23.0017 0 22.5002 0C21.1142 0 19.9907 1.12351 19.9907 2.50937C19.9907 3.89522 21.1142 5.01882 22.5002 5.01882C23.0018 5.01882 23.4686 4.87107 23.8605 4.6176C23.1694 4.17067 22.7116 3.39372 22.7116 2.50937Z" fill="#FFBEAB"/>
<path d="M22.7116 37.24C22.7116 36.3556 23.1694 35.5788 23.8605 35.1318C23.4686 34.8784 23.0018 34.7306 22.5002 34.7306C21.1142 34.7306 19.9907 35.8541 19.9907 37.24C19.9907 38.6259 21.1142 39.7494 22.5002 39.7494C23.0018 39.7494 23.4686 39.6016 23.8605 39.3481C23.1694 38.9012 22.7116 38.1243 22.7116 37.24Z" fill="#FFBEAB"/>
<path d="M23.9201 39.7493H21.0798C19.601 39.7493 18.3911 40.9592 18.3911 42.438V44.5419C18.3911 44.7948 18.5962 44.9999 18.8491 44.9999H26.1508C26.4038 44.9999 26.6088 44.7948 26.6088 44.5419V42.438C26.6088 40.9593 25.3989 39.7493 23.9201 39.7493Z" fill="#FF6B6B"/>
<path d="M20.2021 44.5419V42.438C20.2021 40.9592 21.412 39.7493 22.8908 39.7493H21.0798C19.601 39.7493 18.3911 40.9592 18.3911 42.438V44.5419C18.3911 44.7948 18.5962 44.9999 18.8491 44.9999H20.6601C20.4071 44.9999 20.2021 44.7948 20.2021 44.5419Z" fill="#EE5253"/>
<path d="M25.2211 42.3416C25.2211 41.9665 24.917 41.6624 24.5419 41.6624C24.1668 41.6624 23.8628 41.9665 23.8628 42.3416V44.9999H25.2211V42.3416Z" fill="#EE5253"/>
<path d="M21.1376 44.9999V42.3416C21.1376 41.9665 20.8335 41.6624 20.4584 41.6624C20.0834 41.6624 19.7793 41.9665 19.7793 42.3416V44.9999H21.1376Z" fill="#EE5253"/>
</svg>
