<svg width="45" height="45" viewBox="0 0 45 45" fill="none" xmlns="http://www.w3.org/2000/svg">
<g clip-path="url(#clip0)">
<path d="M22.4999 45C34.1585 45 43.6096 35.5489 43.6096 23.8903C43.6096 12.2317 34.1585 2.78052 22.4999 2.78052C10.8413 2.78052 1.39014 12.2317 1.39014 23.8903C1.39014 35.5489 10.8413 45 22.4999 45Z" fill="#B3D8FB"/>
<path d="M22.4999 2.78052C21.119 2.78052 19.7697 2.91464 18.4629 3.16776C28.1901 5.05179 35.5356 13.6125 35.5356 23.8903C35.5356 34.168 28.1901 42.7287 18.4629 44.6128C19.7697 44.8659 21.119 45 22.4999 45C34.1585 45 43.6096 35.5489 43.6096 23.8903C43.6096 12.2317 34.1585 2.78052 22.4999 2.78052Z" fill="#89C6FC"/>
<path d="M16.6004 19.0038L14.322 22.2222C13.2244 23.7728 13.5915 25.9195 15.1421 27.0172L15.7212 27.4271C16.6685 28.0978 17.2138 29.2011 17.1712 30.3611L16.8374 39.4355C16.8107 40.1605 17.1504 40.8503 17.7413 41.271C18.4824 41.7987 19.475 41.8045 20.2221 41.2855L26.4639 36.9491C27.3682 36.3209 28.156 35.5399 28.7923 34.6412L32.8142 28.9599C33.6805 27.7361 33.3907 26.0418 32.1669 25.1755L22.1162 18.0604C20.3325 16.7979 17.8631 17.2202 16.6004 19.0038Z" fill="#05E29A"/>
<path d="M21.2109 4.80792C20.7221 4.24744 20.6541 3.45863 20.9902 2.83478C17.3372 3.093 13.9411 4.2804 11.0365 6.16249L8.07851 9.12045C7.31201 9.88695 6.88135 10.9266 6.88135 12.0106V15.3055C6.88135 16.1611 7.84287 16.664 8.54565 16.1761L10.9761 14.4886C11.7666 13.9398 12.706 13.6457 13.6683 13.6457H16.7962C17.821 13.6457 18.8038 13.2386 19.5285 12.5139L22.6151 9.42728C23.4043 8.63811 23.4474 7.37257 22.7139 6.53137L21.2109 4.80792Z" fill="#05E29A"/>
<path d="M36.5349 8.12372L35.3265 12.3295C34.8512 13.9839 34.9774 15.7532 35.6828 17.3234L37.0021 20.2607C37.6004 21.5929 38.9249 22.4499 40.3853 22.4499C41.1225 22.4499 41.8429 22.2303 42.4546 21.8189L43.4342 21.1603C42.7674 15.9971 40.2347 11.4195 36.5349 8.12372Z" fill="#1DD08D"/>
<path d="M43.5574 10.8525C43.4233 14.0675 40.9726 16.8787 39.7641 18.0764C39.3971 18.4402 38.8064 18.4408 38.4393 18.077C37.1968 16.8458 34.6396 13.9073 34.6396 10.5783C34.6396 8.09783 36.6638 6.09006 39.1505 6.11678C41.6871 6.14403 43.6631 8.31782 43.5574 10.8525Z" fill="#FC6B55"/>
<path d="M39.5907 6.14392C40.337 6.99804 40.7708 8.13526 40.7198 9.3572C40.5892 12.4884 38.2616 15.236 37.0239 16.4836C37.5451 17.152 38.0551 17.6962 38.4393 18.0769C38.8063 18.4406 39.3971 18.44 39.7641 18.0763C40.9726 16.8786 43.4232 14.0673 43.5574 10.8524C43.6568 8.46652 41.9116 6.401 39.5907 6.14392Z" fill="#FC534E"/>
<path d="M39.1016 12.9289C40.3073 12.9289 41.2847 11.9515 41.2847 10.7458C41.2847 9.54007 40.3073 8.56265 39.1016 8.56265C37.8959 8.56265 36.9185 9.54007 36.9185 10.7458C36.9185 11.9515 37.8959 12.9289 39.1016 12.9289Z" fill="#E5ECF1"/>
<path d="M39.5235 8.60397C39.9317 9.00062 40.1857 9.5553 40.1857 10.1695C40.1857 11.3752 39.2083 12.3526 38.0026 12.3526C37.8582 12.3526 37.7171 12.3382 37.5806 12.3115C37.9737 12.6935 38.5099 12.9291 39.1014 12.9291C40.3071 12.9291 41.2845 11.9516 41.2845 10.746C41.2846 9.68468 40.5272 8.80059 39.5235 8.60397Z" fill="#D6E4EA"/>
<path d="M29.5256 17.9683C29.3915 21.1833 26.9409 23.9946 25.7324 25.1923C25.3653 25.556 24.7746 25.5566 24.4076 25.1929C23.1651 23.9616 20.6079 21.0232 20.6079 17.6941C20.6079 15.2137 22.632 13.2059 25.1187 13.2326C27.6553 13.26 29.6314 15.4338 29.5256 17.9683Z" fill="#FC6B55"/>
<path d="M25.5589 13.2598C26.3052 14.1139 26.739 15.2511 26.6881 16.4731C26.5575 19.6043 24.2299 22.3519 22.9922 23.5995C23.5134 24.2679 24.0234 24.8121 24.4076 25.1928C24.7746 25.5565 25.3653 25.5559 25.7323 25.1922C26.9408 23.9945 29.3915 21.1831 29.5256 17.9683C29.6251 15.5823 27.8799 13.5168 25.5589 13.2598Z" fill="#FC534E"/>
<path d="M25.0693 20.0448C26.275 20.0448 27.2525 19.0674 27.2525 17.8617C27.2525 16.656 26.275 15.6786 25.0693 15.6786C23.8636 15.6786 22.8862 16.656 22.8862 17.8617C22.8862 19.0674 23.8636 20.0448 25.0693 20.0448Z" fill="#E5ECF1"/>
<path d="M25.4917 15.7197C25.9 16.1164 26.154 16.6711 26.154 17.2852C26.154 18.4909 25.1766 19.4683 23.9709 19.4683C23.8265 19.4683 23.6854 19.4539 23.5488 19.4272C23.942 19.8093 24.4782 20.0448 25.0697 20.0448C26.2754 20.0448 27.2528 19.0674 27.2528 17.8617C27.2529 16.8004 26.4954 15.9163 25.4917 15.7197Z" fill="#D6E4EA"/>
<path d="M22.6072 28.4356C22.4731 31.6506 20.0224 34.4619 18.8139 35.6595C18.4469 36.0233 17.8562 36.0239 17.4891 35.6602C16.2466 34.4289 13.6895 31.4904 13.6895 28.1614C13.6895 25.681 15.7136 23.6732 18.2003 23.6999C20.737 23.7272 22.7129 25.901 22.6072 28.4356Z" fill="#FC6B55"/>
<path d="M18.641 23.7271C19.3873 24.5813 19.8211 25.7185 19.7701 26.9404C19.6395 30.0716 17.3119 32.8193 16.0742 34.0669C16.5954 34.7353 17.1054 35.2794 17.4896 35.6601C17.8566 36.0238 18.4474 36.0232 18.8144 35.6595C20.0229 34.4618 22.4735 31.6505 22.6077 28.4356C22.7072 26.0497 20.962 23.9842 18.641 23.7271Z" fill="#FC534E"/>
<path d="M18.1514 30.5121C19.3571 30.5121 20.3345 29.5347 20.3345 28.329C20.3345 27.1233 19.3571 26.1458 18.1514 26.1458C16.9457 26.1458 15.9683 27.1233 15.9683 28.329C15.9683 29.5347 16.9457 30.5121 18.1514 30.5121Z" fill="#E5ECF1"/>
<path d="M18.5733 26.187C18.9815 26.5836 19.2355 27.1383 19.2355 27.7525C19.2355 28.9582 18.2581 29.9356 17.0524 29.9356C16.908 29.9356 16.767 29.9212 16.6304 29.8945C17.0235 30.2765 17.5597 30.5121 18.1512 30.5121C19.3569 30.5121 20.3343 29.5346 20.3343 28.329C20.3343 27.2677 19.5769 26.3836 18.5733 26.187Z" fill="#D6E4EA"/>
<path d="M12.7493 4.73599C12.6152 7.95094 10.1645 10.7622 8.95601 11.9599C8.58897 12.3237 7.99826 12.3243 7.63123 11.9605C6.38872 10.7292 3.83154 7.7908 3.83154 4.46177C3.83154 1.98132 5.85566 -0.0264551 8.34235 0.000263615C10.8791 0.0275097 12.855 2.20131 12.7493 4.73599Z" fill="#FC6B55"/>
<path d="M8.78257 0.0275269C9.52885 0.881648 9.96268 2.01886 9.9117 3.24081C9.7811 6.372 7.45349 9.11964 6.21582 10.3672C6.73701 11.0357 7.24704 11.5798 7.63121 11.9605C7.99824 12.3242 8.58895 12.3236 8.95598 11.9599C10.1645 10.7622 12.6151 7.95087 12.7492 4.736C12.8488 2.35004 11.1036 0.284519 8.78257 0.0275269Z" fill="#FC534E"/>
<path d="M8.29347 6.81246C9.49917 6.81246 10.4766 5.83504 10.4766 4.62934C10.4766 3.42364 9.49917 2.44623 8.29347 2.44623C7.08776 2.44623 6.11035 3.42364 6.11035 4.62934C6.11035 5.83504 7.08776 6.81246 8.29347 6.81246Z" fill="#E5ECF1"/>
<path d="M8.71586 2.4873C9.12411 2.88395 9.37811 3.43863 9.37811 4.05281C9.37811 5.25849 8.40068 6.23592 7.195 6.23592C7.0506 6.23592 6.90953 6.22151 6.77295 6.19479C7.16608 6.57685 7.7023 6.8124 8.29381 6.8124C9.49949 6.8124 10.4769 5.83497 10.4769 4.62928C10.4769 3.56801 9.71948 2.684 8.71586 2.4873Z" fill="#D6E4EA"/>
</g>
<defs>
<clipPath id="clip0">
<rect width="45" height="45" fill="white"/>
</clipPath>
</defs>
</svg>
