<svg width="45" height="45" viewBox="0 0 45 45" fill="none" xmlns="http://www.w3.org/2000/svg">
<g clip-path="url(#clip0)">
<path d="M10.0711 42.6783H2.271V32.6772C2.271 32.4274 2.4735 32.225 2.72319 32.225H9.61883C9.86861 32.225 10.071 32.4275 10.071 32.6772V42.6783H10.0711Z" fill="#8AC9FE"/>
<path d="M10.0709 32.6775V41.9115H7.86138V32.6775C7.86138 32.4269 7.65879 32.2253 7.40918 32.2253H9.61866C9.86827 32.2253 10.0709 32.427 10.0709 32.6775Z" fill="#60B7FF"/>
<path d="M31.8431 42.6784H24.043V19.3371C24.043 19.0873 24.2455 18.8849 24.4952 18.8849H31.3908C31.6406 18.8849 31.843 19.0874 31.843 19.3371V42.6784H31.8431Z" fill="#FB2B3A"/>
<path d="M31.8428 19.3374V41.9116H29.6334V19.3374C29.6334 19.0868 29.4308 18.8852 29.1812 18.8852H31.3906C31.6403 18.8852 31.8428 19.0869 31.8428 19.3374Z" fill="#E41F2D"/>
<path d="M42.7289 42.6784H34.9287V10.9863C34.9287 10.7365 35.1312 10.5341 35.3809 10.5341H42.2766C42.5264 10.5341 42.7288 10.7366 42.7288 10.9863V42.6784H42.7289Z" fill="#FEC165"/>
<path d="M42.7286 10.9867V41.9116H40.5191V10.9867C40.5191 10.7361 40.3165 10.5345 40.0669 10.5345H42.2764C42.526 10.5344 42.7286 10.7361 42.7286 10.9867Z" fill="#FDB441"/>
<path d="M20.9573 42.6783H13.1572V24.3361C13.1572 24.0863 13.3597 23.8839 13.6094 23.8839H20.5051C20.7548 23.8839 20.9573 24.0864 20.9573 24.3361V42.6783H20.9573Z" fill="#00C27A"/>
<path d="M20.9571 24.3365V41.9115H18.7476V24.3365C18.7476 24.0859 18.545 23.8843 18.2954 23.8843H20.5049C20.7545 23.8842 20.9571 24.0859 20.9571 24.3365Z" fill="#08B865"/>
<path d="M33.3624 0.0452559L28.4126 0.918804C27.585 1.06488 26.9994 1.86574 27.1112 2.69868C27.2324 3.60159 28.0655 4.21076 28.9626 4.05247L29.8163 3.90182L25.9193 10.0466C25.6109 10.5328 24.9667 10.6771 24.4805 10.3687L17.747 6.85355C16.9072 6.32093 15.7946 6.56984 15.2618 7.40946L9.16561 16.5448C8.65153 17.3548 8.89165 18.4282 9.70183 18.942C10.5118 19.4557 11.5849 19.2155 12.0986 18.4055L16.7372 11.5613C17.0456 11.0751 17.6898 10.9309 18.176 11.2393L24.9133 14.7568C25.7533 15.2895 26.8661 15.0404 27.3989 14.2004L32.7555 5.75413L32.9474 6.84178C33.1001 7.70689 33.9252 8.28451 34.7903 8.13175C35.6555 7.97909 36.2331 7.15388 36.0803 6.28868L35.2053 1.33506C35.0526 0.470033 34.2275 -0.107411 33.3624 0.0452559Z" fill="#8AC9FE"/>
<path d="M36.0805 6.28843L35.2058 1.33524C35.0529 0.470396 34.2273 -0.107487 33.3624 0.0452674L33.2831 0.0589784C33.4349 0.66235 33.6229 1.25781 33.6925 1.87999C33.7632 2.50991 34.1555 3.6415 33.4467 4.05072C33.0128 4.30121 32.5134 4.02655 32.0633 4.30947C31.6675 4.55829 31.4542 4.9262 31.2086 5.31292C30.6033 6.26593 29.9999 7.21796 29.3965 8.17C28.5268 9.54127 27.7083 10.9465 26.7872 12.2848C26.1385 13.2273 25.5998 13.3253 24.3013 12.607L17.5635 9.08969C17.0776 8.78119 16.4332 8.92515 16.1246 9.41093L11.4865 16.4896C10.9723 17.2996 9.89983 17.5396 9.08974 17.0263C9.05054 17.0008 9.0124 16.9754 8.9761 16.947C8.74204 17.6816 9.02013 18.5092 9.7019 18.9422C9.99089 19.1253 10.3121 19.2125 10.6305 19.2125C11.2055 19.2125 11.7676 18.9265 12.0987 18.4054L16.7368 11.5609C17.0454 11.0751 17.6898 10.9311 18.1757 11.2397L24.9135 14.757C25.7529 15.2899 26.8656 15.0401 27.3984 14.2006L32.7551 5.7537L32.9471 6.84188C33.0999 7.70672 33.9246 8.28461 34.7904 8.13185C35.5623 7.99571 36.1048 7.32378 36.1048 6.56669C36.105 6.47458 36.0972 6.3815 36.0805 6.28843Z" fill="#60B7FF"/>
<path d="M44.5478 44.9793H0.452199C0.202413 44.9793 0 44.7768 0 44.5271V42.364C0 42.1142 0.202501 41.9118 0.452199 41.9118H44.5477C44.7975 41.9118 44.9999 42.1143 44.9999 42.364V44.5271C45 44.7768 44.7976 44.9793 44.5478 44.9793Z" fill="#5A5A5A"/>
</g>
<defs>
<clipPath id="clip0">
<rect width="45" height="45" fill="white"/>
</clipPath>
</defs>
</svg>
