<svg width="120" height="33" viewBox="0 0 120 33" fill="none" xmlns="http://www.w3.org/2000/svg">
<g clip-path="url(#clip0)">
<path d="M13.1966 3.65894C14.0048 3.65894 14.6658 4.31617 14.6658 5.12109C14.6658 5.9297 14.0048 6.58694 13.1966 6.58694C12.3843 6.58694 11.7271 5.9297 11.7271 5.12109C11.7271 4.3158 12.3843 3.65894 13.1966 3.65894Z" fill="#63A92A"/>
<path d="M3.33031 9.33025C3.73646 8.62871 4.63369 8.3924 5.33892 8.79486C6.04046 9.19733 6.28046 10.0946 5.87431 10.7924C5.47185 11.4939 4.57092 11.7339 3.86939 11.3315C3.16415 10.925 2.92415 10.0314 3.33031 9.33025Z" fill="#63A92A"/>
<path d="M20.5149 19.2107C20.921 18.5091 21.8183 18.2691 22.5235 18.6757C23.225 19.0781 23.465 19.9717 23.0589 20.6732C22.6527 21.3744 21.7555 21.6144 21.054 21.2082C20.3487 20.8061 20.1087 19.9089 20.5149 19.2107Z" fill="#63A92A"/>
<path d="M3.33031 14.2701C3.73646 13.5686 4.63369 13.3286 5.33892 13.7347C6.04046 14.1372 6.28046 15.0344 5.87431 15.7323C5.47185 16.4338 4.57092 16.6738 3.86939 16.2677C3.16415 15.8656 2.92415 14.9683 3.33031 14.2701Z" fill="#63A92A"/>
<path d="M3.33031 20.6732C2.92415 19.9717 3.16415 19.0781 3.86939 18.6757C4.57092 18.2691 5.47185 18.5091 5.87431 19.2107C6.28046 19.9089 6.04046 20.8058 5.33892 21.2082C4.63369 21.6144 3.73646 21.3747 3.33031 20.6732Z" fill="#63A92A"/>
<path d="M20.5149 10.7922C20.1087 10.0943 20.3487 9.19708 21.054 8.79462C21.7555 8.39216 22.6527 8.62847 23.0589 9.33C23.465 10.0315 23.225 10.9251 22.5235 11.3312C21.8183 11.7341 20.921 11.4937 20.5149 10.7922Z" fill="#63A92A"/>
<path d="M20.5145 14.2701C20.9207 13.5686 21.8179 13.3286 22.5231 13.7347C23.2247 14.1372 23.4647 15.0344 23.0585 15.7323C22.6524 16.4338 21.7551 16.6738 21.0499 16.2677C20.3484 15.8656 20.1084 14.9683 20.5145 14.2701Z" fill="#63A92A"/>
<path d="M8.89825 6.12915C9.71056 6.12915 10.3678 6.78269 10.3678 7.5913C10.3678 8.39992 9.71056 9.05715 8.89825 9.05715C8.08594 9.05715 7.42871 8.39992 7.42871 7.5913C7.42871 6.78269 8.08594 6.12915 8.89825 6.12915Z" fill="#63A92A"/>
<path d="M17.4905 6.12915C16.6782 6.12915 16.021 6.78269 16.021 7.5913C16.021 8.39992 16.6782 9.05715 17.4905 9.05715C18.3028 9.05715 18.9601 8.39992 18.9601 7.5913C18.9601 6.78269 18.3028 6.12915 17.4905 6.12915Z" fill="#63A92A"/>
<path d="M13.1966 26.3445C14.0048 26.3445 14.6658 25.691 14.6658 24.8823C14.6658 24.0737 14.0048 23.4165 13.1966 23.4165C12.3843 23.4165 11.7271 24.0734 11.7271 24.8823C11.7271 25.6913 12.3843 26.3445 13.1966 26.3445Z" fill="#63A92A"/>
<path d="M8.89825 23.8744C9.71056 23.8744 10.3678 23.2205 10.3678 22.4119C10.3678 21.6036 9.71056 20.946 8.89825 20.946C8.08594 20.946 7.42871 21.6033 7.42871 22.4119C7.42871 23.2209 8.08594 23.8744 8.89825 23.8744Z" fill="#63A92A"/>
<path d="M17.4905 23.8744C16.6782 23.8744 16.021 23.2205 16.021 22.4119C16.021 21.6036 16.6782 20.946 17.4905 20.946C18.3028 20.946 18.9601 21.6033 18.9601 22.4119C18.9601 23.2209 18.3028 23.8744 17.4905 23.8744Z" fill="#63A92A"/>
<path d="M14.1489 0.550031C14.4554 1.07434 14.2745 1.74634 13.7465 2.04911C13.2185 2.35188 12.5428 2.17095 12.24 1.64665C11.9373 1.12234 12.1182 0.450339 12.6425 0.14757C13.1705 -0.1552 13.8462 0.0220312 14.1489 0.550031Z" fill="#BEBD2F"/>
<path d="M14.1489 28.3566C14.4554 28.8812 14.2745 29.5529 13.7465 29.856C13.2185 30.1592 12.5428 29.9816 12.24 29.4572C11.9373 28.9292 12.1182 28.2572 12.6425 27.9545C13.1705 27.6517 13.8462 27.8323 14.1489 28.3566Z" fill="#BEBD2F"/>
<path d="M1.104 6.95239C1.71286 6.95239 2.20394 7.44347 2.20394 8.04901C2.20394 8.65454 1.71286 9.14931 1.104 9.14931C0.494769 9.14931 0 8.65454 0 8.04901C0 7.44347 0.494769 6.95239 1.104 6.95239Z" fill="#BEBD2F"/>
<path d="M25.2886 20.8577C25.8941 20.8577 26.3885 21.3487 26.3885 21.9539C26.3885 22.5598 25.8937 23.0509 25.2886 23.0509C24.6793 23.0509 24.1846 22.5598 24.1846 21.9539C24.1846 21.3487 24.6793 20.8577 25.2886 20.8577Z" fill="#BEBD2F"/>
<path d="M0.14757 21.4042C0.454031 20.8795 1.12603 20.6989 1.65403 21.0013C2.18203 21.3078 2.36295 21.9765 2.05649 22.5041C1.75372 23.0284 1.07803 23.2093 0.550031 22.9029C0.0220312 22.6001 -0.1552 21.9285 0.14757 21.4042Z" fill="#BEBD2F"/>
<path d="M24.3323 7.50267C24.6351 6.97467 25.3108 6.79744 25.8388 7.10021C26.3668 7.40298 26.5477 8.07498 26.2412 8.59928C25.9385 9.12359 25.2628 9.30451 24.7348 9.00174C24.2105 8.69491 24.0295 8.02698 24.3323 7.50267Z" fill="#BEBD2F"/>
<path d="M0.14757 16.9216C0.450339 16.3973 1.12603 16.2164 1.65403 16.5229C2.18203 16.8256 2.36295 17.4936 2.05649 18.022C1.75372 18.5463 1.07803 18.7272 0.550031 18.4207C0.0220312 18.118 -0.1552 17.446 0.14757 16.9216Z" fill="#BEBD2F"/>
<path d="M0.14757 11.9846C0.450339 11.4566 1.12603 11.2794 1.65403 11.5821C2.18203 11.8849 2.36295 12.5569 2.05649 13.0812C1.75372 13.6055 1.07803 13.7864 0.550031 13.4837C0.0220312 13.1772 -0.1552 12.5089 0.14757 11.9846Z" fill="#BEBD2F"/>
<path d="M4.98486 4.68164C5.59409 4.68164 6.08517 5.17272 6.08517 5.77826C6.08517 6.38749 5.59409 6.87856 4.98486 6.87856C4.37563 6.87856 3.88086 6.38749 3.88086 5.77826C3.88086 5.17235 4.37563 4.68164 4.98486 4.68164Z" fill="#BEBD2F"/>
<path d="M9.27902 2.21167C9.88825 2.21167 10.383 2.70275 10.383 3.31198C10.383 3.91752 9.88825 4.40859 9.27902 4.40859C8.66979 4.40859 8.17871 3.91752 8.17871 3.31198C8.17871 2.70275 8.66979 2.21167 9.27902 2.21167Z" fill="#BEBD2F"/>
<path d="M21.4041 4.68164C20.7953 4.68164 20.3042 5.17272 20.3042 5.77826C20.3042 6.38749 20.7953 6.87856 21.4041 6.87856C22.0134 6.87856 22.5081 6.38749 22.5081 5.77826C22.5081 5.17235 22.0134 4.68164 21.4041 4.68164Z" fill="#BEBD2F"/>
<path d="M17.1099 2.21167C16.5006 2.21167 16.0059 2.70275 16.0059 3.31198C16.0059 3.91752 16.5006 4.40859 17.1099 4.40859C17.7191 4.40859 18.2102 3.91752 18.2102 3.31198C18.2102 2.70275 17.7191 2.21167 17.1099 2.21167Z" fill="#BEBD2F"/>
<path d="M4.98486 25.3218C5.59409 25.3218 6.08517 24.8307 6.08517 24.2248C6.08517 23.6156 5.59409 23.1245 4.98486 23.1245C4.37563 23.1245 3.88086 23.6156 3.88086 24.2248C3.88086 24.8307 4.37563 25.3218 4.98486 25.3218Z" fill="#BEBD2F"/>
<path d="M9.27902 27.7919C9.88825 27.7919 10.383 27.3008 10.383 26.6949C10.383 26.086 9.88825 25.595 9.27902 25.595C8.66979 25.595 8.17871 26.0857 8.17871 26.6949C8.17871 27.3004 8.66979 27.7919 9.27902 27.7919Z" fill="#BEBD2F"/>
<path d="M21.4041 25.3218C20.7953 25.3218 20.3042 24.8307 20.3042 24.2248C20.3042 23.6156 20.7953 23.1245 21.4041 23.1245C22.0134 23.1245 22.5081 23.6156 22.5081 24.2248C22.5081 24.8307 22.0134 25.3218 21.4041 25.3218Z" fill="#BEBD2F"/>
<path d="M17.1099 27.7919C16.5006 27.7919 16.0059 27.3008 16.0059 26.6949C16.0059 26.086 16.5006 25.595 17.1099 25.595C17.7191 25.595 18.2102 26.0857 18.2102 26.6949C18.2102 27.3004 17.7191 27.7919 17.1099 27.7919Z" fill="#BEBD2F"/>
<path d="M24.3323 16.9216C24.6351 16.3973 25.3108 16.2164 25.8388 16.5229C26.3631 16.8256 26.544 17.4936 26.2412 18.022C25.9385 18.5463 25.2628 18.7272 24.7348 18.4207C24.2068 18.118 24.0259 17.446 24.3323 16.9216Z" fill="#BEBD2F"/>
<path d="M24.3323 11.9846C24.6351 11.4566 25.3108 11.2794 25.8388 11.5821C26.3631 11.8849 26.544 12.5569 26.2412 13.0812C25.9385 13.6055 25.2628 13.7864 24.7348 13.4837C24.2068 13.1772 24.0259 12.5089 24.3323 11.9846Z" fill="#BEBD2F"/>
<path d="M13.1964 8.04874C12.181 8.04874 11.3576 8.86843 11.3576 9.88012C11.3576 10.5374 11.8007 11.195 12.0924 11.3423C12.9748 11.7817 12.6794 12.8081 12.0924 13.0998C11.5053 13.3915 10.549 13.2438 10.549 12.221C10.549 11.7817 10.2314 11.1909 9.65912 10.8623C8.78035 10.3564 7.65789 10.6555 7.14835 11.5306C6.64251 12.4057 6.94121 13.5244 7.81998 14.0303C8.39229 14.3589 9.00521 14.3441 9.44829 14.1226C10.3271 13.6832 10.988 14.2814 10.9917 15.0014C10.988 15.7214 10.3271 16.3158 9.44829 15.8764C9.00521 15.6586 8.39229 15.6401 7.81998 15.9687C6.94121 16.4746 6.64251 17.5934 7.14835 18.4684C7.65789 19.3435 8.78035 19.6459 9.65912 19.1404C10.2314 18.8114 10.549 18.221 10.549 17.7817C10.549 16.7548 11.5053 16.6071 12.0924 16.9029C12.6794 17.1946 12.9748 18.2174 12.0924 18.6567C11.8007 18.8044 11.3576 19.4617 11.3576 20.123C11.3576 21.1306 12.181 21.9503 13.1964 21.9503C14.208 21.9503 15.0314 21.1306 15.0314 20.123C15.0314 19.4617 14.592 18.8048 14.2967 18.6567C13.4142 18.2177 13.7096 17.195 14.3004 16.8955C14.8837 16.6075 15.84 16.7552 15.84 17.782C15.84 18.221 16.1576 18.8155 16.7299 19.1441C17.6087 19.65 18.7348 19.3513 19.2407 18.4754C19.7465 17.6007 19.4474 16.482 18.5687 15.9758C17.9964 15.6471 17.3834 15.6582 16.9293 15.8761C16.0616 16.3154 15.4007 15.721 15.4007 14.9973C15.4007 14.2736 16.0616 13.6828 16.9293 14.1185C17.3834 14.3401 17.9964 14.3511 18.5687 14.0188C19.4474 13.5167 19.7465 12.3979 19.2407 11.5228C18.7348 10.6478 17.6087 10.3487 16.7299 10.8508C16.1576 11.1831 15.84 11.7776 15.84 12.217C15.84 13.2398 14.8837 13.3874 14.3004 13.0994C13.7096 12.8041 13.4142 11.7776 14.2967 11.3382C14.592 11.1942 15.0314 10.5333 15.0314 9.87606C15.0314 8.86437 14.208 8.04468 13.1964 8.04468V8.04874Z" fill="#009299"/>
<path fill-rule="evenodd" clip-rule="evenodd" d="M58.1208 28.8588H59.2802C59.4316 28.8588 59.5682 28.9102 59.6864 29.0062C59.8119 29.1025 59.8747 29.2351 59.8747 29.4049C59.8747 29.5895 59.823 29.7299 59.7196 29.8369C59.6162 29.9333 59.4464 29.9843 59.2101 29.9843H58.1208V28.8588ZM100.413 28.8515H101.439V29.5859L101.181 29.7265C101.084 29.7705 100.985 29.8188 100.881 29.8591C100.781 29.8997 100.678 29.937 100.567 29.9702C100.464 29.9961 100.36 30.0071 100.264 30.0071C100.065 30.0071 99.8993 29.9591 99.7697 29.8668C99.6442 29.7745 99.5814 29.6342 99.5814 29.4459C99.5814 29.3163 99.6069 29.2092 99.6589 29.1317C99.7143 29.0505 99.7882 28.9914 99.8731 28.9548C99.9543 28.9142 100.043 28.8847 100.139 28.8732C100.239 28.8588 100.328 28.8515 100.413 28.8515ZM65.4501 28.7961H66.4581C66.7091 28.7961 66.8901 28.8588 67.0008 28.9844C67.1116 29.1025 67.167 29.2355 67.167 29.3831C67.167 29.5822 67.1042 29.7299 66.9787 29.8369C66.8568 29.937 66.6829 29.9843 66.4581 29.9843H65.4501V28.7961ZM87.8513 28.1976V28.7809H90.1073V28.1976H87.8513ZM115.274 27.3228C115.484 27.3228 115.651 27.3779 115.776 27.4923C115.902 27.6035 115.965 27.8065 115.965 28.1015V29.2092C115.965 29.3606 115.942 29.4899 115.902 29.5932C115.864 29.6933 115.813 29.7742 115.747 29.8369C115.677 29.8919 115.599 29.9333 115.503 29.9588C115.414 29.9809 115.318 29.992 115.215 29.992C115.053 29.992 114.886 29.9772 114.72 29.944C114.55 29.9145 114.347 29.848 114.107 29.752V27.7729C114.192 27.7179 114.284 27.6622 114.392 27.6105C114.495 27.5551 114.599 27.5038 114.706 27.4628C114.813 27.4225 114.92 27.3856 115.016 27.3598C115.115 27.3335 115.204 27.3228 115.274 27.3228ZM44.3301 27.3228C44.5405 27.3228 44.7104 27.3779 44.8322 27.4923C44.9577 27.6035 45.0205 27.8065 45.0205 28.1015V29.2092C45.0205 29.3606 44.9984 29.4899 44.9577 29.5932C44.9208 29.6933 44.8691 29.7742 44.8027 29.8369C44.7325 29.8919 44.6513 29.9333 44.559 29.9588C44.4704 29.9809 44.3744 29.992 44.2673 29.992C44.1052 29.992 43.9424 29.9772 43.7762 29.944C43.6064 29.9145 43.4033 29.848 43.1633 29.752V27.7729C43.2482 27.7179 43.3405 27.6622 43.4476 27.6105C43.551 27.5551 43.6544 27.5038 43.7577 27.4628C43.8685 27.4225 43.9756 27.3856 44.0716 27.3598C44.1713 27.3335 44.2599 27.3228 44.3301 27.3228ZM58.1208 27.304H59.2101C59.3614 27.304 59.5017 27.3446 59.6273 27.4222C59.7528 27.496 59.8156 27.6142 59.8156 27.7807C59.8156 27.9395 59.7639 28.0576 59.6568 28.1422C59.5568 28.2197 59.4201 28.2599 59.2503 28.2599H58.1205V27.304H58.1208ZM111.146 27.2822C111.264 27.2822 111.379 27.3007 111.482 27.3372C111.593 27.3668 111.686 27.4222 111.763 27.5038C111.848 27.5735 111.914 27.6659 111.962 27.7807C112.006 27.8948 112.032 28.0351 112.032 28.1976V28.3452H110.26V28.1713C110.26 28.0203 110.282 27.8907 110.33 27.7803C110.378 27.6655 110.44 27.5732 110.525 27.5034C110.61 27.4292 110.703 27.3738 110.81 27.3369C110.913 27.3003 111.024 27.2822 111.146 27.2822ZM40.2021 27.2822C40.3202 27.2822 40.4347 27.3007 40.5381 27.3372C40.6488 27.3668 40.7411 27.4222 40.8187 27.5038C40.9036 27.5735 40.9701 27.6659 41.0181 27.7807C41.0661 27.8948 41.0882 28.0351 41.0882 28.1976V28.3452H39.3159V28.1713C39.3159 28.0203 39.3381 27.8907 39.3861 27.7803C39.4341 27.6655 39.4968 27.5732 39.5817 27.5034C39.6663 27.4292 39.7586 27.3738 39.8661 27.3369C39.9694 27.3003 40.0802 27.2822 40.2021 27.2822ZM95.3467 26.7136V28.3124C95.3467 28.6521 95.3315 28.9253 95.2946 29.1321C95.2614 29.3425 95.2097 29.5091 95.1358 29.6416C95.0694 29.7635 94.9808 29.8631 94.8696 29.9374C94.7589 30.0108 94.6333 30.0814 94.486 30.1475L94.7589 30.6865C94.9435 30.6131 95.1096 30.5244 95.261 30.4207C95.4198 30.3173 95.5527 30.1811 95.6598 30.0071C95.7706 29.8373 95.8592 29.6154 95.9219 29.3503C95.9847 29.0878 96.0142 28.7518 96.0142 28.353V27.3044H97.3693V30.5798H98.045V26.7136H95.3467ZM76.3313 26.7136V30.5795H76.9516L78.2362 28.6812L78.8236 27.7807H78.8638V30.5795H79.5543V26.7136H78.9192L77.6269 28.6188L77.0435 29.5013H77.014V26.7136H76.3313ZM72.2624 26.7136V30.5795H72.8827L74.1676 28.6812L74.7547 27.7807H74.7953V30.5795H75.4854V26.7136H74.8503L73.5543 28.6188L72.9746 29.5013H72.9454V26.7136H72.2624ZM57.4377 26.7136V30.5795H59.3282C59.5313 30.5795 59.7122 30.5422 59.8636 30.4757C60.0187 30.4092 60.1442 30.3206 60.2439 30.2102C60.351 30.0954 60.4285 29.9665 60.4802 29.8259C60.5319 29.6855 60.5577 29.5452 60.5577 29.4049C60.5577 29.2535 60.5175 29.0985 60.4322 28.9393C60.3547 28.7735 60.2181 28.6443 60.0261 28.5557C60.1882 28.4671 60.303 28.3486 60.3765 28.2049C60.4503 28.0576 60.4876 27.9169 60.4876 27.7729C60.4876 27.6363 60.4651 27.4997 60.4174 27.3742C60.3694 27.2446 60.2956 27.1305 60.1959 27.0345C60.1036 26.9344 59.9817 26.8535 59.8377 26.7982C59.6901 26.7428 59.5165 26.7132 59.3134 26.7132H57.4377V26.7136ZM46.5122 26.7136V30.5795H47.1879V28.929H49.0377V30.5798H49.7208V26.7136H49.0377V28.3198H47.1879V26.7136H46.5122ZM106.099 26.7062V27.3077H107.299V30.5795H107.997V27.3077H109.204V26.7062H106.099ZM90.9824 26.7062V30.5795H91.6507V28.9397H92.3969C92.4855 28.9397 92.5667 28.9475 92.6406 28.9622C92.7104 28.9733 92.7809 28.9991 92.8437 29.0398C92.9064 29.0771 92.9581 29.1321 93.0058 29.2096C93.0578 29.2835 93.1058 29.3835 93.1501 29.5091L93.4858 30.5798H94.191L93.7738 29.3207C93.715 29.1284 93.6408 28.9622 93.5559 28.8297C93.4714 28.689 93.3418 28.5967 93.1645 28.5564C93.3118 28.5121 93.4267 28.4309 93.5079 28.3054C93.5965 28.1758 93.6741 28.017 93.7368 27.8287L94.1208 26.7066H93.4304L93.0534 27.8217C93.0131 27.9472 92.9611 28.0465 92.902 28.1171C92.8503 28.1872 92.7953 28.2389 92.7325 28.2762C92.6698 28.3094 92.6029 28.3353 92.5291 28.346C92.4556 28.3497 92.3817 28.3534 92.3075 28.3534H91.6503V26.7062H90.9824ZM68.3928 26.7062V30.5795H69.0574V28.9397H69.8033C69.8919 28.9397 69.9731 28.9475 70.047 28.9622C70.1208 28.9733 70.1873 28.9991 70.2501 29.0398C70.3128 29.0771 70.3682 29.1321 70.4162 29.2096C70.4679 29.2835 70.5163 29.3835 70.5565 29.5091L70.8925 30.5798H71.5978L71.1842 29.3207C71.1214 29.1284 71.0476 28.9622 70.9623 28.8297C70.8811 28.689 70.7481 28.5967 70.5709 28.5564C70.7186 28.5121 70.8331 28.4309 70.9147 28.3054C71.0029 28.1758 71.0805 28.017 71.1432 27.8287L71.5272 26.7066H70.8368L70.4601 27.8217C70.4195 27.9472 70.3715 28.0465 70.3125 28.1171C70.2608 28.1872 70.2054 28.2389 70.1426 28.2762C70.0798 28.3094 70.0097 28.3353 69.9358 28.346C69.862 28.3497 69.7915 28.3534 69.718 28.3534H69.0571V26.7062H68.3928ZM64.7817 26.7062V30.5795H66.4765C66.9159 30.5795 67.2482 30.4683 67.4808 30.2505C67.7134 30.0289 67.8316 29.7406 67.8316 29.3828C67.8316 29.2163 67.8021 29.0612 67.747 28.9212C67.688 28.7769 67.6027 28.6517 67.4886 28.5483C67.3778 28.4446 67.2371 28.3637 67.064 28.3046C66.8978 28.2419 66.7058 28.2123 66.4846 28.2123H65.4582V26.7059H64.7817V26.7062ZM55.8021 26.7062V30.5795H56.4667V26.7062H55.8021ZM52.3904 26.7062V30.5795H53.0771V27.3077H55.1596V26.7062H52.3904ZM50.7399 26.7062V30.5795H51.4045V26.7062H50.7399ZM115.341 26.673C115.197 26.673 115.034 26.7025 114.846 26.7612C114.661 26.8163 114.414 26.9348 114.107 27.1194L114.03 26.7132H113.443V32.1228H114.107V30.3834C114.369 30.4871 114.594 30.5536 114.783 30.5795C114.971 30.6086 115.134 30.6234 115.274 30.6234C115.698 30.6234 116.031 30.5052 116.271 30.2652C116.518 30.0256 116.64 29.6855 116.64 29.2421V28.0576C116.64 27.5846 116.518 27.2342 116.271 27.0086C116.031 26.7871 115.721 26.673 115.341 26.673ZM111.146 26.673C110.918 26.673 110.703 26.7099 110.511 26.7834C110.323 26.8502 110.16 26.9499 110.016 27.0791C109.883 27.2117 109.777 27.3705 109.695 27.5551C109.617 27.7438 109.577 27.9502 109.577 28.1795V29.2022C109.577 29.4385 109.617 29.6449 109.702 29.8188C109.791 29.9961 109.91 30.1438 110.057 30.2656C110.209 30.3801 110.382 30.4687 110.582 30.5315C110.781 30.5868 110.991 30.6164 111.209 30.6164C111.453 30.6164 111.696 30.5795 111.94 30.5052C112.184 30.4281 112.405 30.2874 112.605 30.0884L112.18 29.6228C112.018 29.7742 111.851 29.8775 111.678 29.9292C111.508 29.9809 111.357 30.0068 111.224 30.0068C111.098 30.0068 110.977 29.992 110.859 29.9588C110.741 29.9292 110.637 29.8775 110.541 29.8115C110.453 29.7372 110.382 29.6523 110.331 29.5489C110.279 29.4382 110.253 29.3052 110.253 29.1502V28.8921H112.712V28.1278C112.712 27.9029 112.675 27.7032 112.598 27.5256C112.524 27.345 112.417 27.1899 112.273 27.064C112.14 26.9385 111.974 26.8425 111.782 26.7764C111.586 26.7099 111.375 26.6767 111.146 26.6767V26.673H111.146ZM44.3965 26.673C44.2525 26.673 44.0901 26.7025 43.9017 26.7612C43.7171 26.8163 43.4734 26.9348 43.1633 27.1194L43.0857 26.7132H42.4987V32.1228H43.1633V30.3834C43.4254 30.4871 43.6507 30.5536 43.839 30.5795C44.0273 30.6086 44.1897 30.6234 44.3301 30.6234C44.7547 30.6234 45.087 30.5052 45.327 30.2652C45.5744 30.0256 45.6962 29.6855 45.6962 29.2421V28.0576C45.6962 27.5846 45.5744 27.2342 45.327 27.0086C45.087 26.7871 44.7768 26.673 44.3965 26.673ZM40.2021 26.673C39.9731 26.673 39.759 26.7099 39.567 26.7834C39.3787 26.8502 39.2125 26.9499 39.0722 27.0791C38.9356 27.2117 38.8285 27.3705 38.751 27.5551C38.6734 27.7438 38.6328 27.9502 38.6328 28.1795V29.2022C38.6328 29.4385 38.6771 29.6449 38.7584 29.8188C38.847 29.9961 38.9655 30.1438 39.1128 30.2656C39.2642 30.3801 39.4418 30.4687 39.6371 30.5315C39.8365 30.5868 40.0433 30.6164 40.2648 30.6164C40.5085 30.6164 40.7522 30.5795 40.9922 30.5052C41.2396 30.4281 41.4611 30.2874 41.6605 30.0884L41.2359 29.6228C41.0738 29.7742 40.9073 29.8775 40.7341 29.9292C40.5643 29.9809 40.4092 30.0068 40.28 30.0068C40.1544 30.0068 40.0326 29.992 39.9144 29.9588C39.7963 29.9292 39.6929 29.8775 39.5969 29.8115C39.5083 29.7372 39.4381 29.6523 39.3864 29.5489C39.3347 29.4382 39.3089 29.3052 39.3089 29.1502V28.8921H41.768V28.1278C41.768 27.9029 41.731 27.7032 41.6535 27.5256C41.5797 27.345 41.4726 27.1899 41.3323 27.064C41.1957 26.9385 41.0295 26.8425 40.8375 26.7764C40.6418 26.7099 40.4313 26.6767 40.2024 26.6767V26.673H40.2021ZM104.474 26.6656C104.271 26.6656 104.075 26.6988 103.887 26.7657C103.706 26.8284 103.543 26.9244 103.403 27.05C103.263 27.1718 103.148 27.3232 103.063 27.5004C102.982 27.6773 102.938 27.8774 102.938 28.0949V29.2428C102.938 29.4463 102.975 29.6346 103.048 29.8044C103.126 29.9706 103.233 30.1146 103.37 30.2324C103.51 30.3542 103.676 30.4465 103.864 30.5134C104.053 30.5835 104.26 30.6167 104.492 30.6167C104.717 30.6167 104.939 30.5835 105.157 30.5134C105.382 30.4465 105.585 30.321 105.77 30.1401L105.352 29.6711C105.234 29.793 105.09 29.8746 104.92 29.9222C104.758 29.9669 104.621 29.9924 104.507 29.9924C104.396 29.9924 104.285 29.9776 104.175 29.9444C104.071 29.9148 103.979 29.8595 103.894 29.7893C103.813 29.7155 103.743 29.6231 103.691 29.5087C103.639 29.3868 103.613 29.2425 103.613 29.0767V28.2012C103.613 28.0355 103.639 27.8948 103.691 27.7807C103.75 27.6625 103.82 27.5665 103.901 27.4923C103.99 27.4188 104.086 27.3668 104.193 27.3372C104.304 27.304 104.407 27.2896 104.507 27.2896C104.621 27.2896 104.754 27.3118 104.898 27.3524C105.05 27.3893 105.213 27.4886 105.386 27.6515L105.784 27.1419C105.6 26.9462 105.393 26.8166 105.157 26.7579C104.928 26.6988 104.7 26.6656 104.474 26.6656ZM100.616 26.6656C100.398 26.6656 100.158 26.6948 99.903 26.7539C99.6482 26.8092 99.3931 26.9348 99.142 27.1271L99.471 27.633C99.67 27.4742 99.8657 27.3745 100.058 27.3372C100.257 27.297 100.427 27.2745 100.56 27.2745C100.845 27.2745 101.062 27.3299 101.214 27.4369C101.366 27.544 101.439 27.7286 101.439 28.0019V28.2972H100.302C100.172 28.2972 100.025 28.3194 99.8546 28.36C99.6925 28.3973 99.5408 28.4601 99.3931 28.5557C99.2531 28.6443 99.1313 28.7625 99.0316 28.9061C98.9393 29.0505 98.8913 29.2314 98.8913 29.4455C98.8913 29.8037 99.0021 30.088 99.2273 30.2944C99.4521 30.5049 99.7516 30.6086 100.128 30.6086C100.287 30.6086 100.46 30.5831 100.656 30.5385C100.852 30.4871 101.107 30.3727 101.417 30.2025L101.439 30.2176L101.517 30.5795H102.104V28.0166C102.104 27.5591 101.982 27.2195 101.738 27.0012C101.498 26.7764 101.121 26.6656 100.616 26.6656ZM62.8544 26.6656C62.6509 26.6656 62.4556 26.6988 62.2669 26.7657C62.0823 26.8284 61.9202 26.9244 61.7799 27.05C61.6392 27.1718 61.5285 27.3232 61.4439 27.5004C61.359 27.6773 61.3184 27.8774 61.3184 28.0949V29.2428C61.3184 29.4463 61.3553 29.6346 61.4291 29.8044C61.5067 29.9706 61.6138 30.1146 61.7504 30.2324C61.8907 30.3542 62.0531 30.4465 62.2414 30.5134C62.4298 30.5835 62.6402 30.6167 62.8688 30.6167C63.094 30.6167 63.3159 30.5835 63.5374 30.5134C63.759 30.4465 63.9657 30.321 64.1467 30.1401L63.7328 29.6711C63.6113 29.793 63.4669 29.8746 63.3008 29.9222C63.1387 29.9669 62.9984 29.9924 62.8839 29.9924C62.7728 29.9924 62.6657 29.9776 62.5549 29.9444C62.4515 29.9148 62.3555 29.8595 62.2743 29.7893C62.1894 29.7155 62.1192 29.6231 62.0672 29.5087C62.0155 29.3868 61.9896 29.2425 61.9896 29.0767V28.2012C61.9896 28.0355 62.0155 27.8948 62.0672 27.7807C62.1262 27.6625 62.1968 27.5665 62.2813 27.4923C62.3699 27.4188 62.4659 27.3668 62.5693 27.3372C62.6801 27.304 62.7835 27.2896 62.8835 27.2896C62.998 27.2896 63.1309 27.3118 63.2782 27.3524C63.4296 27.3893 63.5884 27.4886 63.7619 27.6515L64.1607 27.1419C63.9802 26.9462 63.7693 26.8166 63.5371 26.7579C63.3048 26.6988 63.0796 26.6656 62.8544 26.6656ZM84.1405 25.1998V25.8603H85.6987V30.5795H86.4298V25.8603H87.9805V25.1998H84.1405ZM82.5931 25.1998V30.5795H83.3131V25.1998H82.5931ZM33.7959 25.1887V26.7764C33.7959 27.0459 33.8254 27.2933 33.8805 27.5222C33.9432 27.7475 34.0429 27.9398 34.1799 28.1019C34.3165 28.264 34.4971 28.3862 34.719 28.4748C34.9516 28.5635 35.2355 28.6078 35.5756 28.6078C35.6901 28.6078 35.8119 28.5967 35.9374 28.5782C36.063 28.5561 36.1885 28.5302 36.3104 28.5007C36.4359 28.4638 36.5577 28.4195 36.6722 28.3751C36.7867 28.3231 36.8901 28.2681 36.9861 28.2131V30.5684H37.7134V25.1887H36.9861V27.4779C36.9085 27.5333 36.8125 27.5924 36.7054 27.6515C36.5947 27.7031 36.4765 27.7475 36.351 27.7881C36.2328 27.832 36.1073 27.8656 35.974 27.8911C35.8485 27.9169 35.7303 27.9284 35.6158 27.9284C35.2134 27.9284 34.9291 27.832 34.7666 27.6404C34.6041 27.4414 34.5266 27.1271 34.5266 26.6878V25.1887H33.7959ZM76.8261 25.137C76.8261 25.24 76.8445 25.3511 76.8811 25.473C76.9217 25.5871 76.9845 25.6908 77.0697 25.7902C77.158 25.8899 77.2728 25.9748 77.4131 26.0412C77.5608 26.1077 77.7418 26.1446 77.9559 26.1446C78.1701 26.1446 78.3436 26.1073 78.4802 26.0412C78.6205 25.9748 78.735 25.8899 78.8162 25.7902C78.9085 25.6905 78.9676 25.5867 79.0045 25.473C79.0418 25.3511 79.0673 25.24 79.0747 25.137H78.5208C78.5208 25.1887 78.5061 25.2437 78.4802 25.2991C78.4581 25.3582 78.4252 25.4102 78.3805 25.4612C78.3325 25.5095 78.2697 25.5498 78.1959 25.5793C78.1291 25.6089 78.0482 25.6277 77.9559 25.6277C77.8714 25.6277 77.7971 25.6089 77.727 25.5793C77.6605 25.5498 77.6014 25.5095 77.5534 25.4612C77.5091 25.4099 77.4722 25.3582 77.4464 25.2991C77.4205 25.2437 77.4021 25.1883 77.3984 25.137H76.8261ZM56.1307 25.1182C56.0199 25.1182 55.9239 25.1625 55.839 25.2437C55.7577 25.3216 55.7134 25.4209 55.7134 25.5358C55.7134 25.6502 55.7577 25.7459 55.839 25.8308C55.9239 25.9124 56.0199 25.9526 56.1307 25.9526C56.2451 25.9526 56.3448 25.9124 56.4297 25.8308C56.511 25.7462 56.5553 25.6502 56.5553 25.5358C56.5553 25.4209 56.511 25.3216 56.4297 25.2437C56.3448 25.1625 56.2451 25.1182 56.1307 25.1182ZM51.0685 25.1182C50.9577 25.1182 50.8617 25.1625 50.7805 25.2437C50.6956 25.3216 50.6509 25.4209 50.6509 25.5358C50.6509 25.6502 50.6952 25.7459 50.7805 25.8308C50.8617 25.9124 50.9574 25.9526 51.0685 25.9526C51.183 25.9526 51.2827 25.9124 51.3676 25.8308C51.4488 25.7462 51.4931 25.6502 51.4931 25.5358C51.4931 25.4209 51.4488 25.3216 51.3676 25.2437C51.2827 25.1625 51.183 25.1182 51.0685 25.1182Z" fill="black"/>
<path d="M103.65 18.9373C103.296 18.9373 103.008 19.0591 102.786 19.3065C102.576 19.5432 102.469 19.8086 102.469 20.1151C102.469 20.4659 102.576 20.7653 102.786 21.0127C103.008 21.2449 103.303 21.3594 103.669 21.3594C104.046 21.3594 104.337 21.2376 104.552 20.9902C104.773 20.7465 104.884 20.4548 104.884 20.1151C104.884 19.8086 104.773 19.5428 104.552 19.3065C104.326 19.0591 104.027 18.9373 103.65 18.9373Z" fill="#63A92A"/>
<path d="M111.253 9.15649V10.9809H114.62V21.2566H116.651V10.9809H120V9.15649H111.253Z" fill="#63A92A"/>
<path d="M109.602 9.15649H107.594V21.2566H109.602V9.15649Z" fill="#63A92A"/>
<path d="M93.519 12.561L96.6575 21.2568H98.5812L101.701 12.561H99.6557L98.651 15.7253C98.6288 15.7697 98.5919 15.8767 98.5439 16.0392L98.3671 16.6004C98.3117 16.8109 98.2415 17.0361 98.1566 17.2687C98.0868 17.5054 98.0163 17.734 97.9461 17.9551L97.7874 18.5167C97.7394 18.6681 97.7098 18.7682 97.6987 18.8158H97.6101L96.6243 15.6888L95.5982 12.5614H93.519V12.561Z" fill="#009299"/>
<path d="M92.0751 12.561H90.2031V21.2568H92.0751V12.561Z" fill="#009299"/>
<path fill-rule="evenodd" clip-rule="evenodd" d="M55.8646 14.1779C56.3338 14.1779 56.7396 14.3182 57.083 14.5988C57.4227 14.8683 57.5926 15.3077 57.5926 15.9169V16.1791H54.1181V15.8985C54.1181 15.3262 54.2879 14.8979 54.6313 14.6172C54.9821 14.3256 55.3956 14.1779 55.8646 14.1779ZM55.8461 12.4761C55.3292 12.4761 54.8529 12.5573 54.4172 12.7198C53.9852 12.8748 53.6012 13.0964 53.2726 13.3881C52.9436 13.6798 52.6855 14.0379 52.4968 14.4588C52.3199 14.8798 52.231 15.3561 52.231 15.8804V18.1659C52.231 18.7054 52.3306 19.1706 52.53 19.5694C52.7294 19.9681 52.999 20.3001 53.3423 20.5696C53.6931 20.8284 54.0956 21.0204 54.5423 21.1493C55.0002 21.2785 55.4802 21.345 55.986 21.345C56.5399 21.345 57.0863 21.2675 57.6291 21.1161C58.1793 20.9503 58.7036 20.6287 59.1983 20.1491C59.0211 19.9272 58.8402 19.7167 58.6519 19.5173L58.1054 18.8675C57.7288 19.2072 57.3448 19.425 56.9571 19.5173C56.5805 19.6096 56.2593 19.658 55.986 19.658C55.7423 19.658 55.4986 19.6284 55.266 19.5694C55.0412 19.4992 54.8418 19.3992 54.6642 19.2699C54.5017 19.1296 54.3651 18.9561 54.258 18.7419C54.1547 18.5204 54.0993 18.2579 54.0993 17.9551V17.5161H59.479V15.8102C59.479 15.2859 59.3903 14.817 59.2168 14.4072C59.0396 13.9973 58.7885 13.6502 58.4562 13.3696C58.1386 13.0779 57.758 12.8527 57.3112 12.7013C56.8652 12.5499 56.3741 12.4761 55.8461 12.4761Z" fill="#009299"/>
<path fill-rule="evenodd" clip-rule="evenodd" d="M76.7 12.5611V21.2565H78.5717V12.5611H76.7ZM71.9074 12.4578C71.756 12.4578 71.5862 12.4688 71.3979 12.491C71.2207 12.5058 71.0139 12.5464 70.7813 12.6165C70.556 12.6867 70.2972 12.7864 70.0022 12.9156C69.7216 13.0411 69.404 13.211 69.0533 13.4215L68.8764 12.5611H67.1816V21.2565H69.0533V15.1273C69.5004 14.8467 69.9213 14.6288 70.3201 14.4775C70.7226 14.3261 71.0807 14.2485 71.3983 14.2485C71.786 14.2485 72.1109 14.3667 72.3656 14.5993C72.6278 14.8245 72.757 15.2344 72.757 15.8288V21.2565H74.6438V15.5667C74.6438 14.5919 74.4149 13.8313 73.957 13.2811C73.5062 12.7306 72.8231 12.4578 71.9074 12.4578Z" fill="#009299"/>
<path d="M66.2547 12.439C65.9482 12.439 65.638 12.487 65.3209 12.5793C65.0181 12.6605 64.715 12.7713 64.4236 12.9153C64.139 13.0408 63.8735 13.1885 63.6261 13.351C63.3931 13.5171 63.1978 13.6759 63.0464 13.8273H63.028L62.8688 12.546H61.1777V21.2566H63.0464V15.3707C63.3861 15.1602 63.8107 14.9608 64.3162 14.7762C64.8331 14.5879 65.4793 14.4587 66.2547 14.3885V12.439Z" fill="#009299"/>
<path fill-rule="evenodd" clip-rule="evenodd" d="M43.2405 9.14953V21.2566H45.1088V15.1274C45.5593 14.8468 45.9802 14.6289 46.3827 14.4775C46.7814 14.3261 47.1396 14.2486 47.4571 14.2486C47.6454 14.2486 47.8186 14.2781 47.9851 14.3372C48.1513 14.3815 48.2916 14.4701 48.4097 14.5994C48.539 14.7175 48.6387 14.88 48.7088 15.0905C48.779 15.2898 48.8159 15.5372 48.8159 15.8289V21.2566H50.7027V15.5849C50.7027 14.6101 50.4774 13.8495 50.0307 13.2993C49.5876 12.7381 48.8787 12.4575 47.915 12.4575C47.5974 12.4575 47.2171 12.5165 46.7667 12.631C46.3347 12.7381 45.7808 13.0076 45.1088 13.4396V9.14953H43.2405ZM38.267 9.03101C37.691 9.03101 37.1338 9.11962 36.5944 9.29685C36.0516 9.47039 35.5716 9.72885 35.147 10.0685C34.7334 10.3972 34.4011 10.807 34.1427 11.2981C33.8953 11.7781 33.7734 12.3356 33.7734 12.967V17.4458C33.7734 18.0768 33.8953 18.638 34.1427 19.1295C34.4011 19.6242 34.7338 20.0378 35.147 20.3775C35.5716 20.7065 36.0516 20.9572 36.5944 21.1348C37.1334 21.2969 37.6984 21.3781 38.2854 21.3781C38.9944 21.3781 39.6553 21.2747 40.2793 21.0639C40.9033 20.8538 41.4202 20.5769 41.8337 20.2372L40.8774 18.6934C40.4787 19.0076 40.0541 19.2329 39.6073 19.3584C39.1642 19.4766 38.7211 19.5356 38.2854 19.5356C37.9937 19.5356 37.6984 19.4873 37.403 19.3949C37.1113 19.2989 36.8417 19.155 36.5944 18.9559C36.3581 18.7562 36.1661 18.4981 36.011 18.1805C35.8707 17.8663 35.8005 17.486 35.8005 17.0393V13.3691C35.8005 12.9223 35.8707 12.5457 36.011 12.2282C36.1661 11.9143 36.3577 11.6559 36.5944 11.4565C36.827 11.2571 37.0928 11.1094 37.3882 11.0171C37.6947 10.9248 37.9974 10.8731 38.3039 10.8731C38.7396 10.8731 39.1864 10.9469 39.6442 11.0873C40.1021 11.2276 40.5008 11.4454 40.8442 11.7371L41.8337 10.1753C41.3611 9.78756 40.8147 9.49956 40.1907 9.31494C39.5814 9.12738 38.939 9.03101 38.267 9.03101Z" fill="#009299"/>
<path fill-rule="evenodd" clip-rule="evenodd" d="M80.7212 9.14943V21.2565H82.5895V15.1273C83.0362 14.8467 83.4609 14.6288 83.8596 14.4774C84.2584 14.326 84.6202 14.2485 84.9378 14.2485C85.1261 14.2485 85.2993 14.278 85.4658 14.3371C85.6282 14.3814 85.7722 14.47 85.8867 14.5993C86.0163 14.7174 86.1197 14.8799 86.1895 15.0904C86.2596 15.2897 86.2929 15.5371 86.2929 15.8288V21.2565H88.1833V15.5848C88.1833 14.61 87.9581 13.8494 87.5113 13.2992C87.0645 12.738 86.3593 12.4574 85.396 12.4574C85.0785 12.4574 84.6945 12.5164 84.2477 12.6309C83.812 12.738 83.2618 13.0075 82.5898 13.4395V9.14943H80.7212ZM91.1224 8.99805C90.827 8.99805 90.5763 9.10143 90.3618 9.31558C90.162 9.51128 90.0623 9.76235 90.0623 10.0688C90.0623 10.3716 90.162 10.63 90.3618 10.8405C90.5759 11.0399 90.827 11.1396 91.1224 11.1396C91.4248 11.1396 91.6799 11.0399 91.8793 10.8405C92.0935 10.63 92.1968 10.3716 92.1968 10.0688C92.1968 9.76235 92.0935 9.51128 91.8793 9.31558C91.6799 9.10106 91.4248 8.99805 91.1224 8.99805ZM77.6196 8.99805C77.3242 8.99805 77.0735 9.10143 76.859 9.31558C76.6596 9.51128 76.5596 9.76235 76.5596 10.0688C76.5596 10.3716 76.6596 10.63 76.859 10.8405C77.0732 11.0399 77.3242 11.1396 77.6196 11.1396C77.9224 11.1396 78.1775 11.0399 78.3766 10.8405C78.5907 10.63 78.6941 10.3716 78.6941 10.0688C78.6941 9.76235 78.5907 9.51128 78.3766 9.31558C78.1772 9.10106 77.9224 8.99805 77.6196 8.99805Z" fill="#009299"/>
</g>
<defs>
<clipPath id="clip0">
<rect width="120" height="32.1231" fill="white"/>
</clipPath>
</defs>
</svg>
