<svg width="84" height="87" viewBox="0 0 84 87" fill="none" xmlns="http://www.w3.org/2000/svg">
<path d="M25.0972 63.4208C32.291 64.3591 36.8871 64.0918 41.8427 61.0754C43.9126 59.8156 45.5953 58.7633 47.459 57.032L35.9823 57.3027L49.738 54.732C59.0925 44.5713 67.9674 31.2005 78.0326 17.6383L73.7831 18.4931L78.768 15.9991C83.1456 13.8994 83.0798 0.551885 83.0708 0.560988L25.0972 63.4208Z" fill="#8A8C8B" stroke="#040407" stroke-width="1.5001" stroke-miterlimit="22.926"/>
<path d="M32.8535 63.8707C16.7863 72.6883 19.6574 73.6199 16.6361 78.675C14.2945 79.9961 9.51702 81.0275 4.21777 84.8738L71.2743 13.4011C72.8301 11.594 70.5235 14.6793 67.9869 17.6551C61.892 24.8051 47.9551 40.8618 36.4831 53.5124C28.7203 62.0727 29.0083 64.2387 32.8535 63.8707Z" fill="#B9BBBA" stroke="#040407" stroke-width="1.5001" stroke-miterlimit="22.926"/>
<path d="M5.07275 7.45027L66.5996 69.9109L70.476 67.4458L7.19684 5.09181C7.17569 5.73805 5.3807 6.85208 5.07275 7.45027Z" fill="#8A8C8B" stroke="#040407" stroke-width="1.5001" stroke-miterlimit="22.926"/>
<path d="M71.556 67.4708L67.6694 71.439C70.3079 72.8046 74.0181 75.8744 75.9274 78.6658L78.7606 75.8326C75.76 73.9387 72.9275 70.4042 71.556 67.4708Z" fill="#220405" stroke="#040407" stroke-width="1.5001" stroke-miterlimit="22.926"/>
<path d="M12.4961 11.4855L69.4111 68.4005L69.6345 68.2143L70.3331 67.6321C70.3895 67.5851 70.4484 67.5411 70.5095 67.5004L71.0715 67.1257L8.30025 4.35851C6.93216 2.99055 0.849245 0.820985 1.05068 1.3387C0.633194 1.17627 3.02268 7.14054 4.47058 8.58831L66.6503 70.8323L66.6553 70.8318L66.7146 70.7729L66.9759 70.4245C67.2085 70.1144 67.5225 69.9113 67.8287 69.6817L68.2163 69.3715L11.1431 12.2873C6.96996 8.11406 8.32259 7.31191 12.4961 11.4854V11.4855Z" fill="#B9BBBA" stroke="#040407" stroke-width="1.5001" stroke-miterlimit="22.926"/>
<path d="M69.0064 66.9057C72.2524 65.4033 73.387 59.2051 73.5786 59.0771C74.0627 58.7544 76.3151 59.8496 76.4948 60.1034C71.544 69.3025 69.2367 71.6096 60.0374 76.5608C59.7836 76.3812 58.6883 74.1286 59.0112 73.6443C59.1394 73.453 65.3375 72.3182 66.8402 69.072C67.3367 67.9994 67.102 67.5636 67.3387 67.385C67.5249 67.2448 68.0757 67.3366 69.0064 66.9057Z" fill="#AC881B" stroke="#040407" stroke-width="1.5001" stroke-miterlimit="22.926"/>
<path fill-rule="evenodd" clip-rule="evenodd" d="M79.4287 75.8221C81.4097 75.8221 83.0156 77.428 83.0156 79.409C83.0156 81.3901 81.4097 82.9961 79.4287 82.9961C77.4478 82.9961 75.8418 81.3901 75.8418 79.409C75.8418 77.428 77.4478 75.8221 79.4287 75.8221Z" fill="#AC881B" stroke="#040407" stroke-width="1.5001" stroke-miterlimit="22.926"/>
<path fill-rule="evenodd" clip-rule="evenodd" d="M79.4285 78.0972C80.153 78.0972 80.7404 78.6845 80.7404 79.409C80.7404 80.1334 80.153 80.7207 79.4285 80.7207C78.7041 80.7207 78.1167 80.1334 78.1167 79.409C78.1167 78.6845 78.7041 78.0972 79.4285 78.0972Z" fill="#8C671A" stroke="#040407" stroke-width="1.5001" stroke-miterlimit="22.926"/>
<path d="M40.6619 80.6822C38.4203 79.3249 36.0383 77.9427 33.8416 76.668L33.8368 76.6652C31.124 75.0912 28.7006 73.685 26.5451 72.3035C24.3613 70.9039 22.4485 69.5279 20.7847 68.0295C19.3208 66.7113 17.9995 65.3217 16.8291 63.7479C15.6586 62.1741 14.6478 60.4239 13.8081 58.3871C12.9856 56.3926 12.3361 54.1399 11.8714 51.5254C11.4144 48.9534 11.1339 46.008 11.0413 42.5861L11.0317 42.4878V4.33818V3.42348H11.9465H73.6985H74.6133V4.33818V42.4878L74.6034 42.5915C74.5107 46.0111 74.2303 48.9548 73.7736 51.5254C73.3089 54.1399 72.6594 56.3926 71.8369 58.3871C70.9971 60.4239 69.9864 62.1741 68.8159 63.7479C67.6456 65.3217 66.3243 66.7113 64.8605 68.0295C63.1966 69.5279 61.2838 70.9039 59.1 72.3035C56.9445 73.685 54.5212 75.0912 51.8084 76.6652C50.6135 77.3586 49.3669 78.0819 48.4596 78.6141C47.2928 79.2988 46.1201 79.9939 44.9832 80.6822L43.8477 81.3697L42.8229 81.9907L41.7979 81.37L40.6619 80.6822ZM34.7564 75.0888C36.875 76.3181 39.1722 77.6511 41.6053 79.1243L42.8218 79.8609L42.8222 79.8607L42.8228 79.8611L44.0399 79.1243C45.2421 78.3964 46.4097 77.7039 47.5379 77.0421C48.9256 76.2279 49.9294 75.6454 50.8937 75.086C53.5817 73.5263 55.9829 72.133 58.1139 70.7671C60.2167 69.4194 62.0528 68.0996 63.6385 66.6717C65.0244 65.4236 66.2663 64.1201 67.3509 62.6616C68.4356 61.2031 69.3722 59.5812 70.1504 57.694C70.9189 55.8303 71.5298 53.703 71.9727 51.211C72.4209 48.6888 72.6946 45.8166 72.7826 42.4948L72.7838 42.48V5.25289H12.8611V42.4821L12.8621 42.4948C12.9503 45.8166 13.224 48.6887 13.6722 51.211C14.1151 53.703 14.726 55.8303 15.4945 57.694C16.2726 59.5812 17.2092 61.2031 18.294 62.6616C19.3786 64.1201 20.6206 65.4236 22.0066 66.6717C23.5921 68.0996 25.4283 69.4194 27.5311 70.7671C29.6621 72.133 32.0634 73.5263 34.7514 75.086L34.7563 75.0888H34.7564Z" fill="#220405"/>
<path d="M41.1167 80.279C38.754 78.8484 36.389 77.4761 34.2082 76.2106C28.7527 73.0452 24.4618 70.5554 21.1794 67.5995C18.3008 65.0073 16.0013 62.1592 14.367 58.1954C12.76 54.2982 11.8207 49.3471 11.6395 42.5143L11.6348 42.4856V3.95061H74.0106V42.4856L74.0057 42.5143C73.8246 49.3471 72.8854 54.2982 71.2784 58.1954C69.644 62.1592 67.3446 65.0073 64.4661 67.5995C61.1836 70.5554 56.8928 73.0452 51.4373 76.2106C49.2563 77.4761 46.8915 78.8484 44.5288 80.279L42.9455 81.2375L42.8227 81.3118L42.6999 81.2375L41.1167 80.279Z" fill="#AE8B2A"/>
<path fill-rule="evenodd" clip-rule="evenodd" d="M41.2558 77.2128C39.0856 75.8988 36.9135 74.6384 34.9105 73.4761C29.8997 70.5687 25.9586 68.2819 22.9438 65.5669C20.2998 63.186 18.1878 60.5701 16.6867 56.9295C15.2107 53.35 14.3481 48.8025 14.1816 42.5267L14.1772 42.5004V7.10683H71.4681V42.5004L71.4636 42.5267C71.2973 48.8025 70.4346 53.35 68.9586 56.9295C67.4575 60.5701 65.3455 63.186 62.7017 65.5669C59.6868 68.2819 55.7458 70.5687 50.735 73.4761C48.7319 74.6384 46.5598 75.8988 44.3897 77.2128L42.9355 78.0932L42.8227 78.1614L42.7099 78.0932L41.2558 77.2128Z" fill="#971318"/>
<path d="M42.8227 18.6174C48.6457 12.7076 64.2201 13.2083 67.5204 13.3857L67.4331 46.8768C59.0604 46.7419 52.2856 47.1982 45.1358 51.3294C45.1458 51.3831 45.151 51.4384 45.151 51.4948V51.5574C45.151 52.0569 44.7425 52.4656 44.243 52.4656H41.4025C40.903 52.4656 40.4944 52.0569 40.4944 51.5574V51.4948C40.4944 51.3916 40.5119 51.2924 40.5438 51.1998C34.2105 47.2179 27.4862 46.7274 18.2124 46.877L18.125 13.3857C21.4253 13.2082 36.9997 12.7076 42.8227 18.6174Z" fill="#176024" stroke="#161415" stroke-width="2.0001" stroke-miterlimit="22.9256"/>
<path d="M42.9584 16.4576C48.1897 10.509 62.0831 11.0625 65.0569 11.2407L64.9781 44.8582C52.6979 44.6374 47.5058 46.6474 43.3216 50.0083C42.7114 50.4983 43.0587 50.4835 42.3619 49.9284C38.1935 46.6082 32.85 44.6391 20.6671 44.8582L20.5884 11.2407C23.5621 11.0625 37.6054 10.5589 42.8369 16.5076V16.52L42.9584 16.4576Z" fill="white" stroke="#161415" stroke-width="1.5001" stroke-miterlimit="22.9256"/>
<path d="M47.6488 46.7994C46.9436 46.6656 46.4342 47.1335 46.9017 47.9255C47.3692 48.7174 47.2742 49.2236 46.9296 49.7984C45.8274 51.6368 47.1287 52.0347 47.8026 52.1107C45.723 59.3206 50.0288 57.8088 49.7173 59.8881C49.9811 59.8881 50.9729 59.0377 51.0955 58.1903C53.4667 58.8875 54.5572 57.3367 55.3403 58.0836C56.3834 59.0783 50.7419 61.9306 49.6992 61.5529C49.3706 60.9239 48.701 60.6626 48.093 60.771C47.6079 60.8574 47.162 61.1792 46.9595 61.7373C46.2663 61.856 46.0211 62.5277 46.1223 63.2235C46.0748 63.2472 46.4243 62.789 46.9425 62.7079C47.0139 62.9305 47.1351 63.128 47.2914 63.2896C46.8568 63.6039 46.6412 64.3994 46.684 64.71C46.7268 65.0206 46.7012 64.8146 46.7137 64.8652C46.4287 65.2115 46.0755 65.4537 46.6007 66.7537C46.8 66.2879 47.0485 65.9658 47.3357 65.7515C47.6302 65.9487 48.1571 66.0208 48.3743 65.9908C48.5915 65.9609 48.4841 65.9726 48.5373 65.9591C48.5358 66.0372 48.5066 65.8726 48.5512 66.1962C48.5957 66.5198 49.0154 67.2127 49.5173 67.3985C49.5205 68.1569 50.2538 68.4876 50.5094 68.4199C50.4655 68.2451 50.3296 67.8142 50.4466 67.4341C51.155 67.2337 51.9431 66.9348 51.5437 65.8726C50.8704 64.8198 52.3166 64.7381 52.8441 64.9292C52.9034 65.1799 53.0199 65.4815 53.2458 65.6865C53.2088 66.2798 52.7619 66.5661 52.7619 66.5661C52.7619 66.5661 53.9641 66.8735 54.2046 65.8852C54.8632 65.7056 55.166 64.8871 54.9634 64.4046C57.1958 62.9584 59.9844 59.9922 60.6784 57.5134C59.723 57.7037 59.2223 57.7487 59.2269 57.3889C60.4326 55.8205 60.3456 53.763 58.2135 54.1078C56.6223 54.3651 54.0986 55.3344 54.8452 53.3248C55.634 51.2013 55.9619 51.0772 55.8787 48.8285C58.4741 49.1576 58.8359 47.4503 60.5643 48.7438C60.7081 47.1746 59.9611 46.5633 59.0584 46.4502C60.245 44.3123 59.4714 41.9604 57.7927 39.042C56.6573 37.0683 54.8148 34.362 54.0056 33.0984C53.2353 31.8957 52.4119 29.3584 53.1307 27.9888C53.4248 27.4284 54.0123 27.0461 54.6892 27.0461C55.6607 27.0461 56.4482 27.8336 56.4482 28.8051C56.4482 29.7766 55.6607 30.5641 54.6892 30.5641C54.6568 30.5641 54.6245 30.5632 54.5925 30.5614C54.6056 31.3227 55.209 32.187 56.5658 32.1713C56.5495 34.8199 57.478 36.7796 59.8353 36.7796C59.1492 33.0913 59.6029 30.0828 59.1752 27.4392C58.6624 24.2688 55.5486 23.532 53.0469 24.6959C52.7408 23.8912 51.3848 23.4964 50.5109 24.2023C52.3849 25.8159 48.8165 28.5571 51.8932 34.2665C53.3921 37.048 57.4085 41.7091 57.164 44.4594C57.0447 45.8018 55.8338 46.491 54.256 44.6481C52.3302 42.3986 50.1556 39.06 49.6013 37.7946C49.0503 38.0666 45.5597 38.1486 44.2258 35.6182L30.7563 43.6911C30.4452 43.1523 29.8728 42.6968 29.2287 42.572C28.698 42.4693 28.1205 42.5971 27.5819 43.0342C26.9059 43.0583 26.5405 43.3217 26.3418 43.9574C26.7597 43.8725 27.0693 43.8749 27.3188 43.9482C27.3626 44.25 27.5179 44.5157 27.7416 44.702C27.3308 44.8881 27.0436 45.2992 27.0376 45.778C26.2375 46.3685 26.561 47.0994 26.6929 47.3472C26.7498 47.2288 27.0284 46.8975 27.4484 46.6965C27.6588 46.88 27.934 46.9913 28.2351 46.9913C28.4027 46.9913 28.5623 46.9568 28.7071 46.8946V46.8977C28.7071 47.4975 29.1035 48.0048 29.6486 48.1719C29.8239 48.6456 30.2898 48.9875 30.693 48.9606C30.5765 48.8285 30.4667 48.4822 30.583 48.1148C31.0481 47.9067 31.3562 47.5364 31.3562 46.9939C30.885 45.9213 32.2147 45.6732 32.7897 45.819C32.7844 46.0763 32.8673 46.2421 33.0049 46.4196C32.9664 46.8993 32.6406 47.0748 32.6406 47.0748C32.6406 47.0748 33.014 47.2443 33.6826 46.8204C33.7366 46.8288 33.7919 46.8332 33.8483 46.8332C34.4376 46.8332 34.9152 46.3556 34.9152 45.7664C34.9152 45.6521 34.8972 45.5422 34.8639 45.439L39.708 44.0058C40.974 44.1176 41.9306 43.7682 42.0481 41.8184C42.7537 43.5592 41.3307 44.8908 40.2635 44.8357C40.6511 45.0148 42.4927 46.01 43.3751 46.1305C44.6607 46.3062 46.2099 44.5334 47.6488 46.7994Z" fill="#AC881B" stroke="#040407" stroke-width="0.5669" stroke-miterlimit="22.926"/>
<path d="M26.1288 32.7941C25.8144 33.0171 25.6932 33.3595 25.7065 33.5352C25.3687 33.3134 25.2032 32.7919 25.349 32.3083C25.0052 31.8325 24.895 31.1198 25.427 30.6954C24.6884 30.6114 24.5132 30.4299 24.1823 29.7454C23.8103 29.5127 23.5133 29.7091 23.3965 29.8287C23.401 29.5614 23.4501 28.8325 24.2746 28.8738C24.536 28.4793 25.0479 28.1662 25.4778 28.3151C25.4118 28.0316 25.5539 27.6211 25.7009 27.3541C25.6252 27.1549 25.5998 26.8929 25.0176 26.8823C25.854 26.2578 26.235 26.5042 26.5999 26.8589C27.1274 26.8586 27.828 27.4566 28.0002 28.3431C28.0503 29.6689 28.0307 30.6408 27.8507 31.7897C27.7375 32.512 27.1572 33.0313 26.1288 32.7941Z" fill="#AC881B" stroke="#040407" stroke-width="0.5669" stroke-miterlimit="22.926"/>
<path d="M33.9073 34.231L30.9769 32.7708C30.8617 31.9672 30.7545 31.0705 30.6905 30.1324C30.6694 29.8245 30.6532 29.513 30.6431 29.2001C30.9215 29.3225 31.1965 29.4482 31.4515 29.5754C33.461 30.5775 36.2071 31.7176 37.1485 31.8874L34.996 33.2118C34.5882 33.4626 34.1769 33.8406 33.9073 34.231Z" fill="#AC881B" stroke="#040407" stroke-width="0.5669" stroke-miterlimit="22.926"/>
<path d="M27.7695 35.2527L28.9411 35.6248V42.0535C28.6083 42.0451 28.1397 42.0724 27.7695 42.299V35.2527ZM28.9411 48.6567V59.5202C29.0034 60.7215 29.0332 61.7545 29.2823 62.5627C29.4837 61.9584 29.5573 60.9977 29.6295 59.5202V49.2277C29.8751 49.4143 30.3013 49.6284 30.7637 49.6834V62.5439C30.517 64.1987 30.0089 66.1741 29.3202 66.8508C28.4687 65.9456 27.9824 63.8893 27.7695 62.5439V47.6235C28.2609 47.9514 28.5356 48.2881 28.9411 48.6567ZM29.6295 42.1992V35.6248L30.7637 35.275V42.9774C30.5216 42.718 30.0802 42.3923 29.6295 42.1992Z" fill="#AC881B" stroke="#040407" stroke-width="0.5669" stroke-miterlimit="22.926"/>
<path d="M34.5599 23.8151C34.1659 25.0288 35.1086 25.6107 35.8932 25.6294C37.0706 25.6575 38.0509 25.2238 39.0514 25.4486C39.1428 25.4698 39.6126 26.1677 40.2144 25.475C39.7864 24.4525 38.5736 24.7459 37.2688 24.778C36.3107 24.8016 35.3295 24.5913 34.5599 23.8151Z" fill="#AC881B" stroke="#040407" stroke-width="0.5669" stroke-miterlimit="22.926"/>
<path d="M37.5907 21.4681C37.4483 21.5575 36.871 21.6377 36.7598 21.6759C36.6683 21.9549 36.7119 23.6651 37.5532 23.7148C37.9028 23.7356 37.4327 23.7323 38.1168 24.678C38.2043 23.0056 39.9806 23.8545 40.5211 24.8841C40.8304 25.473 40.7782 26.1104 39.6655 26.3959C38.9546 26.5766 38.2927 26.3962 38.1812 25.568C38.1952 25.6461 37.8904 25.6293 37.9815 26.3777C37.4088 26.38 37.3652 26.6127 37.5528 26.9952L37.5373 27.7649C37.5143 28.9092 38.7561 28.5402 39.1061 27.9461L42.8012 25.7175C43.6057 25.2162 45.2704 24.4956 45.5063 22.7458C46.8692 22.7537 47.6475 22.2678 47.5776 20.9662C47.5508 20.4672 47.2586 20.0873 46.8174 19.9785C46.3063 19.8524 45.677 20.0848 45.3204 20.8172C45.2641 20.433 45.3765 20.2483 45.6477 19.7537C42.7879 19.4605 40.2756 19.5417 40.3019 20.4036C39.0765 20.6614 37.5858 20.6829 36.7272 21.1058C36.7309 21.5857 37.1591 21.2384 37.4633 21.3708L37.4673 21.3707C37.4905 21.3813 37.5128 21.393 37.5338 21.4059H37.5247C37.5479 21.4225 37.57 21.443 37.5907 21.4681ZM46.1068 21.9072C45.7139 21.3352 45.8314 21.0225 46.0605 20.8822C46.3093 20.7298 46.7414 20.7844 46.9466 21.0557C46.4542 21.0562 46.0303 21.3073 46.1068 21.9072ZM40.8602 21.1715C41.1458 21.047 40.8242 20.6396 41.3545 20.6216C41.5233 20.8782 41.675 21.0703 41.9753 21.1378C42.1324 21.1731 42.1347 21.1547 42.079 21.3262C41.25 21.1103 40.9356 21.3532 40.8363 21.3985C40.7746 21.2408 40.7283 21.2291 40.8602 21.1715Z" fill="#AC881B" stroke="#040407" stroke-width="0.5669" stroke-miterlimit="22.926"/>
<path d="M35.5314 30.769C36.5943 31.2962 37.4565 31.577 38.2642 31.1489L42.327 28.7046C42.3314 28.9181 42.1618 29.4614 41.8456 29.6528L35.0271 33.8779C34.3707 34.2553 33.8568 35.2234 33.8563 35.8362L33.8553 37.1856L41.8098 32.2904C41.8348 32.7465 41.5707 33.2214 41.1649 33.4671L34.4699 37.5189C34.0109 37.7973 33.8135 38.2912 33.8114 38.8372L33.811 40.8484L43.8386 34.8837C43.8685 34.6265 43.8149 33.5134 44.858 33.0487C44.0294 36.9626 48.4466 37.215 49.2201 36.88C47.039 32.9086 51.9472 25.5 48.4644 21.989C48.2367 21.7596 47.9903 21.6152 47.9882 21.6943C47.9645 22.5976 46.9916 23.3086 45.9487 23.3535C45.5599 24.5043 44.8594 25.1695 44.2287 25.548L35.5315 30.769H35.5314Z" fill="#AC881B" stroke="#040407" stroke-width="0.5669" stroke-miterlimit="22.926"/>
<path d="M46.7466 52.3521C46.8201 52.5269 46.8436 52.6724 46.6618 52.9924L43.2803 52.2207C42.0252 51.9341 41.324 52.9599 41.8089 53.7328C42.2595 54.4514 45.0859 55.5391 45.5897 55.8801C47.0163 57.0415 46.103 58.0492 45.0194 58.6849C44.464 59.4997 46.0442 59.4766 46.2855 59.3895C45.5099 60.8948 43.3067 62.451 41.6932 63.2063C41.828 63.7119 41.4164 64.4815 40.7394 64.5695C40.4052 65.5865 39.255 65.0673 39.255 65.0673C39.255 65.0673 39.7869 64.8085 39.8167 64.2418C39.6209 64.0078 39.5467 63.6931 39.5222 63.4367C39.0555 63.0859 37.6887 63.0922 37.9696 63.7766C38.5662 64.6956 37.9928 65.6877 36.9534 65.5722C36.7857 65.9329 36.8615 66.3783 36.8811 66.5574C36.6187 66.5896 35.9374 66.162 36.0378 65.4102C35.5659 65.1576 35.2448 64.6599 35.2448 64.0872C35.2448 64.0067 35.2512 63.9276 35.2634 63.8505C35.209 63.8565 35.1537 63.8597 35.0976 63.8597C34.7152 63.8597 34.3663 63.7164 34.1013 63.4808C33.7877 63.654 33.4976 63.939 33.2364 64.3732C32.8936 63.0138 33.2767 62.822 33.6063 62.5179C33.6009 62.4661 33.598 62.4134 33.598 62.3601C33.598 61.7863 33.9203 61.288 34.3936 61.0358C34.2609 60.8545 34.1678 60.6422 34.1274 60.4119C33.603 60.4216 33.1942 60.8277 33.2445 60.8108C33.2392 60.1077 33.5738 59.4758 34.2768 59.4529C34.3937 59.2309 34.5647 59.042 34.7721 58.9032C34.8369 58.8588 34.9073 58.8192 34.9826 58.7858C35.172 58.6994 35.3825 58.6513 35.6042 58.6513C36.3065 58.6513 36.896 59.1341 37.059 59.7858C37.0956 59.8221 37.133 59.8524 37.1716 59.8744C39.303 60.0656 44.8433 58.2487 39.713 56.1557C38.7903 55.7793 35.6765 54.9512 35.583 53.1041C34.5852 53.5817 32.9986 53.3045 32.646 52.1418C32.8989 52.2583 34.0535 51.9892 34.4091 50.9771C35.1046 48.5481 36.6622 47.0267 38.7601 46.8672C39.762 46.791 44.9734 47.3105 45.9076 47.4595C46.3688 47.9088 46.6852 48.8 46.3254 49.5414C45.7912 50.6418 45.4624 52.1276 46.7466 52.3521Z" fill="#AC881B" stroke="#040407" stroke-width="0.5669" stroke-miterlimit="22.926"/>
<path d="M29.0601 35.2239C27.6259 34.584 25.9246 35.0994 25.0915 35.6306C25.027 35.2726 24.9157 34.9605 24.7808 34.6909C25.4855 34.1723 27.4009 33.8341 29.3247 33.8076C31.1061 33.783 32.8942 34.0252 33.6857 34.5899C33.5341 34.9304 33.4576 35.2861 33.421 35.5969C32.682 35.0397 30.9179 34.5102 29.3716 35.2222C29.1075 35.3437 29.3256 35.3425 29.0601 35.2239Z" fill="#AC881B" stroke="#040407" stroke-width="0.5669" stroke-miterlimit="22.926"/>
<path d="M28.0449 33.3726L30.5716 33.3443C30.097 31.7424 29.8956 28.8529 30.4137 27.2864C30.7324 26.4086 31.2298 25.6065 31.19 24.7285C30.6382 22.6035 29.8279 21.3731 29.9104 17.067L29.47 17.0063V24.2518C29.8811 24.3278 30.1924 24.6881 30.1924 25.1212C30.1924 25.6094 29.7965 26.0054 29.3082 26.0054C28.8199 26.0054 28.4241 25.6094 28.4241 25.1212C28.4241 24.6881 28.7354 24.3278 29.1465 24.2518V17.0063L28.7061 17.067C28.7886 21.3731 27.9782 22.6035 27.4265 24.7285C27.3866 25.6065 27.901 26.4086 28.2197 27.2864C28.8342 29.0223 28.6218 31.6665 28.0449 33.3726Z" fill="#AC881B" stroke="#040407" stroke-width="0.5669" stroke-miterlimit="22.926"/>
</svg>
