<svg width="90" height="90" viewBox="0 0 90 90" fill="none" xmlns="http://www.w3.org/2000/svg">
<path d="M13.0645 76.9355V24.6774C13.0645 21.4694 15.6629 18.871 18.8709 18.871H47.1632C46.5529 20.3658 45.842 21.8174 44.9999 23.2258C44.9999 29.0323 46.5969 34.6062 49.4852 39.4112C51.3437 42.5178 53.7528 45.3197 56.6128 47.6275V82.7419C56.6128 84.3389 55.9593 85.7905 54.9146 86.8501C53.8549 87.8949 52.4033 88.5484 50.8064 88.5484C47.5984 88.5484 44.9999 85.9499 44.9999 82.7419V76.9355H13.0645Z" fill="#E6E9ED"/>
<path d="M7.25811 88.5484C4.0501 88.5484 1.45166 85.95 1.45166 82.742V76.9355H45V82.742C45 85.95 47.5985 88.5484 50.8065 88.5484H7.25811Z" fill="#FCD770"/>
<path d="M42.0967 59.5161H47.9031V71.129H42.0967V59.5161Z" fill="#B4DD7F"/>
<path d="M30.4839 50.8064H36.2903V71.129H30.4839V50.8064Z" fill="#B4DD7F"/>
<path d="M18.8711 56.6128H24.6775V71.1289H18.8711V56.6128Z" fill="#B4DD7F"/>
<path d="M44.9999 47.9032C46.5968 47.9032 47.9031 49.2095 47.9031 50.8064C47.9031 52.4033 46.5968 53.7096 44.9999 53.7096C43.403 53.7096 42.0967 52.4033 42.0967 50.8064C42.0967 50.1529 42.3143 49.5582 42.6772 49.0642C43.2145 48.3675 44.0565 47.9032 44.9999 47.9032Z" fill="#FF826E"/>
<path d="M33.3871 39.1936C34.984 39.1936 36.2903 40.4999 36.2903 42.0968C36.2903 42.7503 36.0727 43.345 35.7098 43.839C35.1726 44.5358 34.3305 45.0001 33.3871 45.0001C32.2552 45.0001 31.2678 44.3465 30.7887 43.389C30.5852 42.997 30.4839 42.5611 30.4839 42.0968C30.4839 40.4999 31.7902 39.1936 33.3871 39.1936Z" fill="#FF826E"/>
<path d="M24.3728 46.6111C24.5762 47.0031 24.6775 47.439 24.6775 47.9032C24.6775 49.5001 23.3712 50.8064 21.7743 50.8064C20.1774 50.8064 18.8711 49.5001 18.8711 47.9032C18.8711 46.3063 20.1774 45 21.7743 45C22.9063 45 23.8936 45.6535 24.3728 46.6111Z" fill="#FF826E"/>
<path d="M85.2964 15.663C86.0371 18.3047 87.1258 20.845 88.5484 23.2259C88.5484 34.8388 82.1465 45.5083 71.8981 50.9809L66.7742 53.7097L61.6503 50.9809C59.85 50.0226 58.1659 48.9048 56.6129 47.6276C53.7529 45.3197 51.3437 42.5178 49.4853 39.4112C46.5969 34.6063 45 29.0323 45 23.2259C45.842 21.8175 46.553 20.3659 47.1632 18.871C48.6 15.271 49.3548 11.4095 49.3548 7.50477V5.8065C53.3609 5.8065 56.6129 3.86156 56.6129 1.45166H76.9355C76.9355 3.86156 80.1874 5.8065 84.1935 5.8065V7.50477C84.1935 10.2776 84.5706 13.0064 85.2964 15.663Z" fill="#B4DD7F"/>
<path d="M76.9354 24.6774V31.5293C76.9354 37.7851 72.784 43.2868 66.7741 44.9999C60.7642 43.2868 56.6128 37.7851 56.6128 31.5293V24.6774H76.9354Z" fill="#FCD770"/>
<path d="M69.6775 33.3871C69.6775 34.9904 68.3776 36.2903 66.7743 36.2903C65.171 36.2903 63.8711 34.9904 63.8711 33.3871C63.8711 31.7838 65.171 30.4839 66.7743 30.4839C68.3776 30.4839 69.6775 31.7838 69.6775 33.3871Z" fill="#E6E9ED"/>
<path d="M89.7923 22.478C87.0791 17.9566 85.6452 12.7789 85.6452 7.50331V4.35484H84.1936C80.8693 4.35484 78.3871 2.82171 78.3871 1.45161V0H55.1613V1.45161C55.1613 2.82171 52.6791 4.35484 49.3548 4.35484H47.9032V7.50331C47.9032 10.8999 47.3008 14.2532 46.1525 17.4194H18.871C14.8691 17.4194 11.6129 20.6756 11.6129 24.6774V75.4839H0V82.7419C0 86.7438 3.25621 90 7.25806 90H50.8065C54.8083 90 58.0645 86.7438 58.0645 82.7419V50.4903C58.9994 51.1183 59.9591 51.7194 60.9677 52.2566L66.7742 55.3555L72.5807 52.2581C83.3253 46.5289 90 35.405 90 23.2258V22.8239L89.7923 22.478ZM55.1613 82.7419C55.1613 85.1426 53.2071 87.0968 50.8065 87.0968C48.4058 87.0968 46.4516 85.1426 46.4516 82.7419V75.4839H17.4194V78.3871H43.5484V82.7419C43.5484 84.3821 44.1161 85.8805 45.0376 87.0968H7.25806C4.85737 87.0968 2.90323 85.1426 2.90323 82.7419V78.3871H14.5161V24.6774C14.5161 22.2767 16.4703 20.3226 18.871 20.3226H44.9142C44.5556 21.0541 44.1771 21.777 43.7546 22.478L43.5484 22.8239V23.2258C43.5484 33.0242 47.8756 42.1358 55.1613 48.3079V82.7419ZM71.2148 49.6958L66.7742 52.0639L62.3336 49.6944C52.6529 44.5329 46.5955 34.5672 46.4544 23.6178C49.3024 18.7285 50.8065 13.1659 50.8065 7.50331V7.18081C54.2583 6.8094 56.9716 5.13026 57.8001 2.90323H75.7468C76.5768 5.13026 79.2887 6.8094 82.7405 7.18081V7.50331C82.7405 13.1659 84.2446 18.7285 87.0925 23.6192C86.9529 34.5672 80.8955 44.5343 71.2148 49.6958Z" fill="black"/>
<path d="M75.4837 14.5161C75.4837 9.71257 71.5775 5.8064 66.774 5.8064C61.9705 5.8064 58.0644 9.71257 58.0644 14.5161V23.2258H55.1611V31.5293C55.1611 38.3954 59.7726 44.5095 66.375 46.3963L66.774 46.5097L67.1731 46.3963C73.7755 44.5095 78.3869 38.3954 78.3869 31.5293V23.2258H75.4837V14.5161ZM60.9676 14.5161C60.9676 11.3137 63.5717 8.70962 66.774 8.70962C69.9764 8.70962 72.5805 11.3137 72.5805 14.5161V23.2258H60.9676V14.5161ZM75.4837 31.5293C75.4837 36.9679 71.9227 41.8253 66.774 43.4831C61.6253 41.8238 58.0644 36.9679 58.0644 31.5293V26.129H75.4837V31.5293Z" fill="black"/>
<path d="M65.3227 37.4747V40.6451H68.2259V37.4747C69.9114 36.8736 71.1291 35.2767 71.1291 33.3871C71.1291 30.9864 69.175 29.0322 66.7743 29.0322C64.3736 29.0322 62.4194 30.9864 62.4194 33.3871C62.4194 35.2767 63.6371 36.8736 65.3227 37.4747ZM66.7743 31.9355C67.5738 31.9355 68.2259 32.5861 68.2259 33.3871C68.2259 34.188 67.5738 34.8387 66.7743 34.8387C65.9748 34.8387 65.3227 34.188 65.3227 33.3871C65.3227 32.5861 65.9748 31.9355 66.7743 31.9355Z" fill="black"/>
<path d="M17.4194 72.5806H26.1291V55.1613H17.4194V72.5806ZM20.3227 58.0645H23.2259V69.6774H20.3227V58.0645Z" fill="black"/>
<path d="M29.0322 72.5807H37.7419V49.3549H29.0322V72.5807ZM31.9355 52.2581H34.8387V69.6774H31.9355V52.2581Z" fill="black"/>
<path d="M40.645 72.5806H49.3547V58.0645H40.645V72.5806ZM43.5482 60.9677H46.4515V69.6774H43.5482V60.9677Z" fill="black"/>
<path d="M45.0001 46.4516C44.1091 46.4516 43.2798 46.7231 42.5888 47.1845L37.5258 43.3875C37.6534 42.9764 37.742 42.5483 37.742 42.0968C37.742 39.6961 35.7879 37.7419 33.3872 37.7419C30.9865 37.7419 29.0323 39.6961 29.0323 42.0968C29.0323 42.2768 29.0642 42.4498 29.0862 42.6248L24.7895 44.7739C24.0056 44.019 22.9459 43.5484 21.7743 43.5484C19.3736 43.5484 17.4194 45.5025 17.4194 47.9032C17.4194 50.3039 19.3736 52.2581 21.7743 52.2581C24.175 52.2581 26.1291 50.3039 26.1291 47.9032C26.1291 47.7232 26.0972 47.5503 26.0752 47.3766L30.372 45.2282C31.1559 45.981 32.2155 46.4516 33.3872 46.4516C34.2781 46.4516 35.1074 46.1802 35.7985 45.7201L40.8628 49.5186C40.7338 49.9283 40.6452 50.355 40.6452 50.8065C40.6452 53.2072 42.5994 55.1613 45.0001 55.1613C47.4008 55.1613 49.3549 53.2072 49.3549 50.8065C49.3549 48.4058 47.4008 46.4516 45.0001 46.4516ZM21.7743 49.3548C20.9748 49.3548 20.3227 48.7042 20.3227 47.9032C20.3227 47.1023 20.9748 46.4516 21.7743 46.4516C22.5738 46.4516 23.2259 47.1023 23.2259 47.9032C23.2259 48.7042 22.5738 49.3548 21.7743 49.3548ZM33.3872 43.5484C32.5877 43.5484 31.9356 42.8977 31.9356 42.0968C31.9356 41.2958 32.5877 40.6452 33.3872 40.6452C34.1867 40.6452 34.8388 41.2958 34.8388 42.0968C34.8388 42.8977 34.1867 43.5484 33.3872 43.5484ZM45.0001 52.2581C44.2006 52.2581 43.5485 51.6074 43.5485 50.8065C43.5485 50.0055 44.2006 49.3548 45.0001 49.3548C45.7996 49.3548 46.4517 50.0055 46.4517 50.8065C46.4517 51.6074 45.7996 52.2581 45.0001 52.2581Z" fill="black"/>
<path d="M17.4194 23.2258H20.3227V26.1291H17.4194V23.2258Z" fill="black"/>
<path d="M23.2256 23.2258H40.6449V26.1291H23.2256V23.2258Z" fill="black"/>
<path d="M23.2256 29.0322H40.6449V31.9355H23.2256V29.0322Z" fill="black"/>
<path d="M17.4194 29.0322H20.3227V31.9355H17.4194V29.0322Z" fill="black"/>
<path d="M37.7417 81.2903H40.6449V84.1935H37.7417V81.2903Z" fill="black"/>
<path d="M5.80664 81.2903H34.8389V84.1935H5.80664V81.2903Z" fill="black"/>
</svg>
