<svg width="90" height="90" viewBox="0 0 90 90" fill="none" xmlns="http://www.w3.org/2000/svg">
<path d="M31.0432 21.5568C32.0938 21.0363 33.2765 20.7422 34.5282 20.7422C36.0786 20.7422 37.5229 21.1927 38.741 21.9672C42.3658 20.5995 44.9449 17.0998 44.9449 12.9962C44.9449 7.70153 40.6526 3.4093 35.3579 3.4093C30.0632 3.4093 25.771 7.70153 25.771 12.9962C25.771 16.7384 27.9164 19.9776 31.0432 21.5568Z" fill="#FFCFAB"/>
<path opacity="0.1" d="M31.0435 21.5567C32.0894 21.0385 33.2664 20.7451 34.5122 20.7427C32.1244 18.9991 30.5724 16.1794 30.5724 12.9964C30.5724 8.53063 33.6259 4.77806 37.7589 3.71265C36.9918 3.51489 36.1874 3.40942 35.3584 3.40942C30.0637 3.40942 25.7715 7.70165 25.7715 12.9964C25.7713 16.7384 27.9167 19.9775 31.0435 21.5567Z" fill="black"/>
<path d="M44.7455 10.999V8.67551C44.7455 4.61215 41.4515 1.31836 37.3883 1.31836H33.1288C29.0656 1.31836 25.7715 4.61232 25.7715 8.67551V10.999H44.7455Z" fill="#E23C38"/>
<g opacity="0.1">
<path opacity="0.1" d="M37.6654 1.32539C37.5733 1.32205 37.481 1.31836 37.3879 1.31836H33.1283C29.0651 1.31836 25.771 4.61232 25.771 8.67551V10.999H30.5858V8.67551C30.5858 4.70549 33.7313 1.47164 37.6654 1.32539Z" fill="black"/>
</g>
<path d="M51.181 64.9956C50.883 63.0738 49.7146 60.7714 48.3402 59.397L41.4635 52.5203H35.2134V57.5685L42.6823 65.0375C42.8894 65.2623 43.229 65.9322 43.2861 66.2194L46.2213 85.166C46.3679 84.8835 46.6601 84.6872 46.9988 84.6872H54.2317L51.181 64.9956Z" fill="#34A1D7"/>
<path opacity="0.1" d="M47.1338 66.2192C47.0769 65.932 46.7371 65.2623 46.5302 65.0373L35.2134 53.7208V57.5685L42.6823 65.0373C42.8894 65.2621 43.229 65.932 43.2861 66.2192L46.2213 85.1658C46.3679 84.8833 46.6601 84.687 46.9988 84.687H49.995L47.1338 66.2192Z" fill="black"/>
<path d="M57.3049 87.8027C57.3049 88.2861 56.9094 88.6816 56.426 88.6816H46.999C46.5156 88.6816 46.1201 88.2861 46.1201 87.8027V85.5659C46.1201 85.0825 46.5156 84.687 46.999 84.687H56.426C56.9094 84.687 57.3049 85.0825 57.3049 85.5659V87.8027Z" fill="#08375E"/>
<path d="M27.2244 52.5203V60.2255C27.2118 60.5308 26.9783 61.2445 26.8155 61.4883L13.6523 79.4777L13.6668 79.4883C13.9593 79.2947 14.3527 79.2856 14.6564 79.4983L20.5282 83.61L33.2625 66.2062C34.4109 64.637 35.2131 62.1828 35.2131 60.2381V52.5204H27.2242V52.5203H27.2244Z" fill="#34A1D7"/>
<path opacity="0.1" d="M31.0343 52.5203H27.2244V60.2255C27.2118 60.5308 26.9783 61.2445 26.8155 61.4883L13.6523 79.4777L13.6668 79.4883C13.9593 79.2947 14.3527 79.2856 14.6564 79.4983L20.5282 83.61L21.0077 82.9547L17.4624 80.3605L30.6254 62.371C30.7884 62.1272 31.0216 61.4136 31.0343 61.1082V52.5203Z" fill="black"/>
<path d="M21.3115 87.9616C21.0341 88.3575 20.4834 88.4547 20.0874 88.1775L12.3651 82.7704C11.9691 82.4932 11.8721 81.9423 12.1493 81.5465L13.4321 79.7141C13.7095 79.3181 14.2602 79.2211 14.6563 79.4983L22.3783 84.9055C22.7744 85.1827 22.8716 85.7336 22.594 86.1294L21.3115 87.9616Z" fill="#08375E"/>
<path d="M26.666 28.6049C26.666 27.607 26.8538 26.6536 27.1929 25.7754C26.7817 25.2083 26.116 24.8365 25.366 24.8365H18.8185C17.5764 24.8365 16.5605 25.8526 16.5605 27.0943V38.0365C16.7746 37.9686 17.0021 37.9315 17.238 37.9315H20.173C21.4147 37.9315 22.4309 38.9476 22.4309 40.1894V48.5433C22.4309 49.2809 22.0708 49.9369 21.5193 50.3494H25.366C25.8494 50.3494 26.2976 50.194 26.666 49.9326V28.6049Z" fill="#CB7C52"/>
<g opacity="0.1">
<path opacity="0.1" d="M17.238 37.9313H20.173C20.6441 37.9313 21.0825 38.0781 21.4453 38.3275V27.094C21.4453 25.8523 22.4612 24.8363 23.7032 24.8363H18.8185C17.5764 24.8363 16.5605 25.8523 16.5605 27.094V38.0362C16.7748 37.9684 17.0023 37.9313 17.238 37.9313Z" fill="black"/>
</g>
<path d="M42.3912 52.5203V28.6049C42.3912 24.2626 38.8714 20.7422 34.5285 20.7422C30.1864 20.7422 26.666 24.2624 26.666 28.6049V52.5204L42.3912 52.5203Z" fill="#EF5A50"/>
<g opacity="0.1">
<path opacity="0.1" d="M36.4482 20.9793C35.8337 20.8252 35.1911 20.7422 34.5285 20.7422C30.1864 20.7422 26.666 24.2624 26.666 28.6049V52.5204H30.5053V28.6049C30.5051 24.9247 33.0339 21.8361 36.4482 20.9793Z" fill="black"/>
</g>
<path d="M39.1454 37.0873L38.7163 36.6582C36.7472 38.143 34.2974 39.0235 31.6408 39.0235C29.8626 39.0235 28.1777 38.6271 26.666 37.9214V42.6675C28.1777 43.373 29.8626 43.7696 31.6408 43.7696C35.6381 43.7696 39.1671 41.7759 41.2956 38.7305C40.4793 38.2406 39.7429 37.6848 39.1454 37.0873Z" fill="#AB5436"/>
<path d="M59.3394 35.3769C59.3394 35.1543 59.4258 34.9527 59.5633 34.7975H48.0828C46.6931 34.7975 44.3649 33.8332 43.3823 32.8504L38.6887 28.1568C37.5189 26.987 35.6219 26.9868 34.4517 28.157C33.2817 29.327 33.2817 31.2239 34.4517 32.394L39.1453 37.0874C41.2557 39.198 45.0977 40.7895 48.0828 40.7895H59.3392V35.3769H59.3394Z" fill="#E23C38"/>
<path opacity="0.1" d="M59.3392 37.9688H49.0927C46.1078 37.9688 42.2655 36.3773 40.1551 34.2666L35.4616 29.5733C35.0139 29.1256 34.7391 28.5713 34.6338 27.9923C34.5718 28.045 34.5103 28.0985 34.4517 28.157C33.2817 29.327 33.2817 31.2239 34.4517 32.394L39.1453 37.0874C41.2557 39.198 45.0977 40.7895 48.0828 40.7895H59.3392V37.9688Z" fill="black"/>
<path d="M64.0526 34.4979C64.1584 34.4979 64.2584 34.5197 64.3525 34.5544V32.503C64.3525 31.4019 63.46 30.5093 62.3589 30.5093C61.2579 30.5093 60.3652 31.4019 60.3652 32.503V34.4979H64.0526Z" fill="#CB7C52"/>
<path d="M64.0526 42.1875H60.3652V86.6879C60.3652 87.789 61.2579 88.6816 62.3589 88.6816C63.46 88.6816 64.3525 87.789 64.3525 86.6879V42.1309C64.2584 42.1657 64.1582 42.1875 64.0526 42.1875Z" fill="#CB7C52"/>
<path d="M64.9318 41.3086C64.9318 41.792 64.5363 42.1875 64.0529 42.1875H60.2183C59.7349 42.1875 59.3394 41.792 59.3394 41.3086V35.3768C59.3394 34.8934 59.7349 34.4979 60.2183 34.4979H64.0529C64.5363 34.4979 64.9318 34.8934 64.9318 35.3768V41.3086Z" fill="#FFCFAB"/>
<path d="M22.4306 48.543C22.4306 49.7847 21.4146 50.8007 20.1727 50.8007H17.2377C15.996 50.8007 14.98 49.7847 14.98 48.543V40.1892C14.98 38.9475 15.996 37.9313 17.2379 37.9313H20.1729C21.4146 37.9313 22.4308 38.9473 22.4308 40.1892L22.4306 48.543Z" fill="#FFBB4A"/>
<g opacity="0.1">
<path opacity="0.1" d="M17.8617 48.543V40.1892C17.8617 38.9475 18.8778 37.9313 20.1196 37.9313H17.2379C15.9962 37.9313 14.98 38.9473 14.98 40.1892V48.543C14.9802 49.7847 15.9962 50.8007 17.2379 50.8007H20.1196C18.8779 50.8007 17.8617 49.7847 17.8617 48.543Z" fill="black"/>
</g>
<path d="M84.7458 87.3633H65.6013C65.6469 87.1451 65.6709 86.9194 65.6709 86.6879V71.8945C65.6709 71.1664 65.0808 70.5762 64.3526 70.5762C63.6243 70.5762 63.0342 71.1664 63.0342 71.8945V86.6879C63.0342 87.0602 62.7313 87.3633 62.359 87.3633C61.9867 87.3633 61.6837 87.0602 61.6837 86.6879V43.5059H63.0342V66.4453C63.0342 67.1734 63.6243 67.7637 64.3526 67.7637C65.0808 67.7637 65.6709 67.1734 65.6709 66.4453V42.7897C66.0292 42.3986 66.25 41.8795 66.25 41.3086V35.3769C66.25 34.8059 66.0292 34.2868 65.6709 33.8957V32.503C65.6709 30.6768 64.1852 29.1909 62.359 29.1909C60.5327 29.1909 59.047 30.6768 59.047 32.503V33.4791H48.0828C47.0511 33.4791 45.0437 32.6477 44.3146 31.9182L43.7097 31.3133V28.6049C43.7097 26.1343 42.7269 23.8901 41.134 22.2381C44.2116 20.3084 46.2636 16.8889 46.2636 12.9964C46.2636 12.7682 46.2552 12.5422 46.2413 12.3175H52.7345C53.4628 12.3175 54.0529 11.7272 54.0529 10.9992C54.0529 10.2711 53.4628 9.6808 52.7345 9.6808H46.0638V8.67568C46.0638 3.8918 42.1718 0 37.3881 0H33.1286C28.3447 0 24.4529 3.8918 24.4529 8.67551C24.4529 8.67551 24.4529 12.912 24.4529 12.9962C24.4529 16.4749 26.0908 19.5773 28.6356 21.5752C27.9667 22.137 27.377 22.7897 26.8903 23.5178H18.8184C16.8465 23.5178 15.2421 25.122 15.2421 27.0939V27.3127H11.4458C10.7175 27.3127 10.1274 27.903 10.1274 28.6311C10.1274 29.3592 10.7175 29.9494 11.4458 29.9494H15.2423V31.9062H13.8425C13.1143 31.9062 12.5242 32.4965 12.5242 33.2246C12.5242 33.9527 13.1143 34.5429 13.8425 34.5429H15.2423V37.2229C14.2896 37.8661 13.6618 38.9554 13.6618 40.189V48.5429C13.6618 50.5148 15.2662 52.119 17.2381 52.119H20.1731C20.8026 52.119 21.3938 51.9541 21.9081 51.6674H25.3476V52.5201C25.3476 52.965 25.5686 53.3577 25.9062 53.5964V55.5242H22.2312C21.5029 55.5242 20.9128 56.1145 20.9128 56.8426C20.9128 57.5706 21.5029 58.1609 22.2312 58.1609H25.9062V59.9182H23.6293C22.9011 59.9182 22.311 60.5085 22.311 61.2366C22.311 61.9646 22.9011 62.5549 23.6293 62.5549H24.4017L12.6384 78.6313C12.5342 78.7305 12.4368 78.8377 12.3528 78.9578L11.0699 80.7901C10.7338 81.27 10.6048 81.8531 10.707 82.4316C10.8089 83.0102 11.1295 83.5142 11.6096 83.8501L16.6264 87.3633H5.25439C4.52613 87.3633 3.93604 87.9536 3.93604 88.6816C3.93604 89.4097 4.52613 90 5.25439 90H84.746C85.4743 90 86.0644 89.4097 86.0644 88.6816C86.0644 87.9536 85.4741 87.3633 84.7458 87.3633ZM21.1125 48.543C21.1125 49.0611 20.6912 49.4824 20.1729 49.4824H17.2379C16.7199 49.4824 16.2984 49.0611 16.2984 48.543V40.1892C16.2984 39.6712 16.7197 39.2497 17.2379 39.2497H20.1729C20.691 39.2497 21.1125 39.6712 21.1125 40.1892V48.543ZM25.3476 28.6049V49.031H23.712C23.7339 48.8711 23.7492 48.709 23.7492 48.5432V40.1894C23.7492 38.2175 22.1449 36.6131 20.1729 36.6131H17.8788V34.5433H18.8356C19.5639 34.5433 20.154 33.953 20.154 33.2249C20.154 32.4969 19.5639 31.9066 18.8356 31.9066H17.8788V29.9496H18.8356C19.5639 29.9496 20.154 29.3593 20.154 28.6313C20.154 27.9032 19.5639 27.3129 18.8356 27.3129H17.8788V27.094C17.8788 26.576 18.3002 26.1547 18.8184 26.1547H25.3659C25.4719 26.1547 25.5717 26.1761 25.6668 26.2086C25.4599 26.9729 25.3476 27.7759 25.3476 28.6049ZM61.6837 32.503C61.6837 32.1307 61.9867 31.8277 62.359 31.8277C62.7313 31.8277 63.0342 32.1307 63.0342 32.503V33.1796H61.6837V32.503ZM60.6577 35.8163H63.6134V40.8691H60.6577V35.8163ZM48.083 36.116H58.0209V39.4712H48.083C45.4533 39.4712 41.937 38.0146 40.0775 36.1552L35.3842 31.4619C35.0672 31.1449 34.8927 30.7237 34.8927 30.2755C34.8927 29.8273 35.0672 29.4061 35.3842 29.0892C35.7009 28.7722 36.1223 28.5977 36.5704 28.5977C37.0186 28.5977 37.4398 28.7722 37.7565 29.089L42.4501 33.7823C43.671 35.0037 46.3559 36.116 48.083 36.116ZM27.0896 8.67551C27.0896 5.34568 29.7987 2.63672 33.1286 2.63672H37.3881C40.7179 2.63672 43.4269 5.34586 43.4269 8.67551V9.68062H27.0896V8.67551ZM27.0896 12.9964C27.0896 12.7675 27.1024 12.5416 27.1211 12.3175H43.5954C43.6139 12.5416 43.6269 12.7675 43.6269 12.9964C43.6269 16.3162 41.6589 19.1825 38.8293 20.4966C37.5454 19.813 36.0819 19.4238 34.5287 19.4238C33.3203 19.4238 32.1669 19.6596 31.1094 20.0856C28.7033 18.6384 27.0896 16.0028 27.0896 12.9964ZM27.9843 28.6049C27.9843 24.9964 30.92 22.0605 34.5285 22.0605C38.1371 22.0605 41.0728 24.9963 41.0728 28.6049V28.6768L39.6209 27.2248C38.8059 26.4099 37.7226 25.9611 36.5702 25.9611C35.4178 25.9611 34.3342 26.4099 33.5195 27.2248C32.7046 28.0397 32.2558 29.1231 32.2558 30.2755C32.2558 31.4279 32.7046 32.5113 33.5195 33.3262L36.6222 36.4289C35.1172 37.2482 33.4103 37.7051 31.6404 37.7051C30.3772 37.7051 29.1517 37.479 27.984 37.041V28.6049H27.9843ZM27.9843 39.8236C29.1654 40.1679 30.389 40.3418 31.6407 40.3418C34.1282 40.3418 36.5162 39.6216 38.5584 38.347C38.8144 38.5805 39.087 38.8067 39.3744 39.0247C37.4231 41.1673 34.6299 42.4512 31.6407 42.4512C30.3779 42.4512 29.1517 42.2299 27.9843 41.7925V39.8236ZM27.9843 44.5637C29.1657 44.9089 30.3885 45.0879 31.6407 45.0879C35.2569 45.0879 38.6446 43.5885 41.073 41.0681V43.5938C41.073 44.3218 41.6631 44.9121 42.3913 44.9121C43.1196 44.9121 43.7097 44.3218 43.7097 43.5938V41.3046C45.1829 41.8145 46.701 42.1077 48.083 42.1077H58.1735C58.3456 42.5463 58.6539 42.9156 59.0471 43.1645V86.6879C59.0471 86.9193 59.0714 87.1451 59.1168 87.3633H58.6232V85.5659C58.6232 84.3543 57.6376 83.3687 56.4259 83.3687H55.3617L52.4838 64.7937C52.1418 62.5867 50.8512 60.0435 49.2727 58.4648L43.6649 52.8571C43.6932 52.7495 43.7099 52.6368 43.7099 52.5203V49.043C43.7099 48.3149 43.1198 47.7246 42.3915 47.7246C41.6633 47.7246 41.0732 48.3149 41.0732 49.043V51.2019H27.9845L27.9843 44.5637ZM47.2772 83.3687L44.589 66.0173C44.5862 65.999 44.583 65.9807 44.5793 65.9626C44.4738 65.4311 44.0233 64.5474 43.6524 64.1445C43.6403 64.1312 43.6274 64.118 43.6148 64.1051L36.5319 57.0224V53.8386H40.9172L47.408 60.3292C48.5843 61.5055 49.6233 63.553 49.8784 65.1974L52.6935 83.3687H47.2772ZM14.2605 80.8304L21.2626 85.7334L20.4839 86.8458L13.4817 81.9429L14.2605 80.8304ZM24.0375 85.2441C23.9355 84.6654 23.6149 84.1614 23.1349 83.8255L22.3873 83.302L26.0488 78.2981C26.4788 77.7104 26.351 76.8855 25.7633 76.4557C25.1759 76.0257 24.3507 76.1534 23.9208 76.7412L20.2267 81.7894L15.8415 78.7187L27.6686 62.5551H29.8205C30.5488 62.5551 31.1389 61.9648 31.1389 61.2367C31.1389 60.5087 30.5488 59.9184 29.8205 59.9184H28.5426V58.1611H30.0202C30.7485 58.1611 31.3386 57.5708 31.3386 56.8427C31.3386 56.1147 30.7485 55.5244 30.0202 55.5244H28.5426V53.8386H33.8948V60.238C33.8948 61.9021 33.1815 64.0844 32.1987 65.4275L27.0077 72.5221C26.5777 73.1097 26.7055 73.9346 27.2931 74.3644C27.8806 74.7944 28.7057 74.6666 29.1355 74.079L34.3265 66.9844C35.5489 65.314 36.3981 62.8634 36.516 60.7358L41.7054 65.9252C41.7896 66.0438 41.9445 66.3469 41.9934 66.4877L44.8674 85.04C44.8257 85.2089 44.8011 85.3845 44.8011 85.5659V87.3633H23.3402L23.6742 86.886C24.0106 86.406 24.1395 85.8229 24.0375 85.2441ZM47.4384 87.3633V86.0054H55.9864V87.3633H47.4384Z" fill="black"/>
</svg>
