<svg width="90" height="90" viewBox="0 0 90 90" fill="none" xmlns="http://www.w3.org/2000/svg">
<path d="M29.794 29.2177V24.2865H26.7861C25.3557 24.2865 24.1963 25.446 24.1963 26.8763V28.8795C24.1963 30.3098 25.3557 31.4693 26.7861 31.4693H29.794V29.2177Z" fill="#F4D5BA"/>
<path d="M63.2145 24.2865H60.2065V29.2177V31.4695H63.2145C64.6448 31.4695 65.8043 30.31 65.8043 28.8797V26.8765C65.8045 25.4461 64.6448 24.2865 63.2145 24.2865Z" fill="#F4D5BA"/>
<path d="M51.0786 62.8253L60.3585 54.1092L56.6743 53.4247C54.896 53.0673 53.6167 51.0045 53.6167 49.1906V41.1077H45.0001H36.3838V49.1906C36.3838 51.0045 35.1045 53.0673 33.3263 53.4247L29.6421 54.1092L38.9219 62.8253C42.3386 66.0347 47.6616 66.0347 51.0786 62.8253Z" fill="#FFE7CF"/>
<path d="M49.4429 41.1077V53.3641C49.4429 55.1779 50.7222 57.2407 52.5004 57.5981L55.6757 58.5071L60.3582 54.109L56.674 53.4245C54.8958 53.0672 53.6164 51.0044 53.6164 49.1905V41.1075H49.4429V41.1077Z" fill="#F4D5BA"/>
<path d="M55.7568 52.9816L44.9999 61.0216L34.243 52.9816C33.6662 52.5505 32.919 52.4189 32.2297 52.6268L14.1579 58.0796C12.2135 58.6661 10.7683 60.3025 10.4264 62.3045L6.44493 85.6138C6.17088 87.2178 7.40663 88.6824 9.03383 88.6824H80.966C82.5932 88.6824 83.8289 87.2178 83.5549 85.6138L79.5734 62.3045C79.2315 60.3025 77.7863 58.6663 75.8419 58.0796L57.7701 52.6268C57.0806 52.4187 56.3336 52.5504 55.7568 52.9816Z" fill="#24D9DE"/>
<path d="M32.23 52.6268L29.1211 53.5648L35.9824 63.166C36.5225 63.9218 37.515 64.2011 38.37 63.8378L45.0001 61.0216L34.2432 52.9816C33.6664 52.5504 32.9194 52.4187 32.23 52.6268Z" fill="#D0D1D2"/>
<path d="M51.6301 63.8381C52.4851 64.2012 53.4778 63.9219 54.0178 63.1662L60.879 53.5651L60.8625 53.5601L57.7702 52.6271C57.0807 52.4191 56.3337 52.5508 55.7569 52.9818L45 61.0217L51.6301 63.8381Z" fill="#D0D1D2"/>
<path d="M45 61.0216L39.7861 63.2365L42.8342 66.7797H47.1658L50.2138 63.2365L45 61.0216Z" fill="#F9644B"/>
<path d="M47.1658 66.7797H45H42.8342L38.834 88.6822H51.1661L47.1658 66.7797Z" fill="#F9644B"/>
<path d="M56.0573 7.49119C53.4633 5.25771 49.8169 5.40273 45.0001 5.34912C40.1834 5.40291 36.537 5.25771 33.943 7.49137C30.6342 10.3404 28.8418 14.5711 28.8418 18.9374V31.6293C28.8418 35.9955 34.3295 47.5771 45.0001 47.5771C55.6708 47.5771 61.1585 35.9955 61.1585 31.6293V18.9374C61.1585 14.5711 59.3659 10.3403 56.0573 7.49119Z" fill="#FFE7CF"/>
<path d="M56.0571 7.49121C55.0266 6.60404 53.8297 6.09305 52.4599 5.79492C52.4599 5.80143 52.46 5.80723 52.46 5.81373V31.6293C52.46 35.3568 48.4598 44.3409 40.6509 46.8906C41.9893 47.3276 43.4388 47.5771 45.0001 47.5771C55.6707 47.5771 61.1584 35.9957 61.1584 31.6293V18.9374C61.1582 14.5712 59.3656 10.3403 56.0571 7.49121Z" fill="#F4D5BA"/>
<path d="M44.9999 84.6156C44.9999 84.6156 32.9192 52.4187 32.2297 52.6266L14.1579 58.0794C12.2135 58.6659 10.7683 60.3023 10.4264 62.3042L6.44493 85.6135C6.17088 87.2175 7.40663 88.6822 9.03383 88.6822H80.966C82.5932 88.6822 83.8289 87.2175 83.5549 85.6135L79.5734 62.3042C79.2315 60.3023 77.7863 58.6661 75.8419 58.0794L57.7701 52.6266C57.0806 52.4187 44.9999 84.6156 44.9999 84.6156Z" fill="#E1EFFB"/>
<path d="M83.5551 85.6135L79.5737 62.3042C79.2318 60.3022 77.7865 58.6661 75.8422 58.0795L57.7703 52.6267C57.5829 52.5701 56.5537 54.9086 55.1543 58.3431L68.2611 62.2977C69.2518 62.5965 69.9881 63.4303 70.1623 64.4503L74.3014 88.6819H80.9664C82.5934 88.6821 83.8291 87.2175 83.5551 85.6135Z" fill="#CADDEA"/>
<path d="M54.7207 1.31787H45H35.2793C30.277 1.31787 26.2217 5.37314 26.2217 10.3755V25.245C26.2217 25.245 28.7158 25.1886 30.3186 26.7749C30.6524 27.1052 31.2197 26.8638 31.2197 26.3943V14.2274C31.2197 12.0163 33.0121 10.2238 35.2233 10.2238H38.8611C39.8152 10.2238 40.74 10.5538 41.4786 11.1576L41.8354 11.4494C42.7286 12.1796 43.8466 12.5784 45 12.5784C46.1535 12.5784 47.2717 12.1796 48.1646 11.4494L48.5215 11.1576C49.2601 10.5538 50.1849 10.2238 51.139 10.2238H54.7768C56.988 10.2238 58.7804 12.0163 58.7804 14.2274V26.3943C58.7804 26.8638 59.3477 27.1053 59.6815 26.7749C61.2842 25.1886 63.7784 25.245 63.7784 25.245V10.3755C63.7784 5.37314 59.7231 1.31787 54.7207 1.31787Z" fill="#FFB125"/>
<path d="M54.7208 1.31787H46.0225C50.9781 1.31787 55.0019 5.29826 55.0766 10.2361C57.1475 10.3896 58.7803 12.1172 58.7803 14.2274V26.3943C58.7803 26.8638 59.3476 27.1053 59.6814 26.7749C61.2841 25.1886 63.7783 25.245 63.7783 25.245V10.3755C63.7785 5.37314 59.7234 1.31787 54.7208 1.31787Z" fill="#FF901D"/>
<path d="M64.1953 75.5278C67.234 75.5278 69.6973 73.0645 69.6973 70.0259C69.6973 66.9872 67.234 64.5239 64.1953 64.5239C61.1567 64.5239 58.6934 66.9872 58.6934 70.0259C58.6934 73.0645 61.1567 75.5278 64.1953 75.5278Z" fill="#1785B8"/>
<path d="M64.1952 72.4496C65.5337 72.4496 66.6188 71.3645 66.6188 70.026C66.6188 68.6874 65.5337 67.6023 64.1952 67.6023C62.8566 67.6023 61.7715 68.6874 61.7715 70.026C61.7715 71.3645 62.8566 72.4496 64.1952 72.4496Z" fill="#E1EFFB"/>
<path d="M84.8543 85.3915L80.8729 62.0824C80.4438 59.571 78.6622 57.5536 76.2229 56.8178L65.4841 53.5776C65.2617 50.9525 64.1854 48.4759 62.3942 46.5156C60.9614 44.9476 59.1593 43.8059 57.1728 43.1759C57.5128 42.7987 57.8279 42.4227 58.1171 42.055C60.6708 38.8071 62.0381 35.2288 62.3861 32.7871H63.2146C65.3693 32.7871 67.1224 31.0342 67.1224 28.8793V26.8761C67.1224 25.438 66.3134 24.1349 65.0968 23.4587V18.6416C65.0968 17.9137 64.5067 17.3236 63.7788 17.3236C63.0509 17.3236 62.461 17.9135 62.461 18.6416V24.0493C61.9477 24.1385 61.3353 24.2924 60.7088 24.5563C60.6447 24.5797 60.5823 24.6067 60.5232 24.6393C60.3817 24.7038 60.24 24.7718 60.0989 24.8484V14.2274C60.0989 11.2931 57.7118 8.90596 54.7774 8.90596H51.1396C49.8849 8.90596 48.6592 9.34312 47.6878 10.1373L47.3308 10.4291C46.6751 10.9652 45.8476 11.2605 45.0005 11.2605C44.1534 11.2605 43.3256 10.9652 42.67 10.4291L42.3131 10.1373C41.3418 9.3433 40.116 8.90596 38.8613 8.90596H35.2232C32.2889 8.90596 29.9017 11.2931 29.9017 14.2274V24.8484C29.7606 24.7718 29.6189 24.7038 29.4774 24.6393C29.4184 24.6067 29.3561 24.5797 29.292 24.5563C28.6655 24.2924 28.0529 24.1385 27.5398 24.0493V10.3755C27.5398 6.10787 31.0118 2.63584 35.2794 2.63584H54.721C58.9888 2.63584 62.4607 6.10787 62.4607 10.3755V12.4472C62.4607 13.1752 63.0508 13.7653 63.7785 13.7653C64.5062 13.7653 65.0965 13.1753 65.0965 12.4472V10.3755C65.0965 4.65451 60.442 0 54.721 0H35.2794C29.5583 0 24.9039 4.65451 24.9039 10.3755V23.4589C23.6874 24.1351 22.8784 25.438 22.8784 26.8762V28.8795C22.8784 31.0344 24.6315 32.7872 26.7862 32.7872H27.6147C27.9625 35.229 29.3299 38.8072 31.8837 42.0551C32.1725 42.4225 32.4875 42.7982 32.8271 43.175C28.2603 44.6256 24.93 48.7315 24.5167 53.5776L13.7775 56.8178C11.3382 57.5536 9.55648 59.571 9.12757 62.0824L7.51074 71.5481C7.38822 72.2656 7.87056 72.9464 8.58792 73.0689C9.30511 73.1918 9.98626 72.7093 10.109 71.9917L11.7258 62.5261C11.9852 61.0066 13.0631 59.7864 14.5388 59.3413L24.4713 56.3444V58.9514C22.1946 59.3705 20.2573 60.9344 19.4595 63.1013C19.2476 63.6764 19.116 64.2786 19.0682 64.8911L18.1082 77.2124C18.0358 78.1406 18.357 79.0648 18.9889 79.7477C19.6208 80.4308 20.5171 80.8228 21.4479 80.8228H23.0911C23.819 80.8228 24.4091 80.2329 24.4091 79.5048C24.4091 78.7767 23.819 78.187 23.0911 78.187H21.4479C21.2494 78.187 21.0585 78.1037 20.9237 77.9578C20.7891 77.8122 20.7207 77.6153 20.7362 77.4176L21.6961 65.096C21.7251 64.7249 21.8047 64.3602 21.9331 64.012C22.4882 62.5047 23.9872 61.4839 25.6637 61.4721L25.8808 61.4705C25.8909 61.4704 25.901 61.4704 25.911 61.4704C27.5403 61.4704 28.9826 62.3943 29.591 63.8306C29.7617 64.2333 29.8654 64.659 29.8995 65.096L30.8598 77.4178C30.8751 77.6153 30.8067 77.8122 30.672 77.9579C30.5374 78.1035 30.3463 78.187 30.1478 78.187H28.5046C27.7767 78.187 27.1866 78.7769 27.1866 79.5048C27.1866 80.2327 27.7767 80.8228 28.5046 80.8228H30.1478C31.0786 80.8228 31.9751 80.431 32.6068 79.7477C33.239 79.0645 33.5601 78.1404 33.4877 77.2126L32.5274 64.8911C32.4711 64.17 32.2998 63.467 32.018 62.8021C31.1498 60.753 29.2934 59.3283 27.107 58.9428V55.5492L31.6376 54.1821C32.0498 55.0503 32.8667 56.9264 34.4847 60.9706C36.1154 65.0512 38.1424 70.2816 40.0863 75.3662C40.1002 75.4089 40.1162 75.4506 40.1342 75.4914C41.4314 78.8859 42.6898 82.2106 43.7661 85.0787C43.9592 85.593 44.4508 85.9337 45.0001 85.9337C45.5494 85.9337 46.0411 85.593 46.2341 85.0787C47.3102 82.2106 48.5687 78.8859 49.8661 75.4914C49.8842 75.4506 49.9 75.4088 49.9139 75.3662C51.8565 70.2846 53.8824 65.0575 55.5124 60.9782C57.1325 56.9287 57.9501 55.051 58.3625 54.1821L62.8931 55.5492V63.3336C59.754 63.9434 57.3762 66.712 57.3762 70.0269C57.3762 73.787 60.4353 76.8463 64.1956 76.8463C67.9559 76.8463 71.015 73.7872 71.015 70.0269C71.015 66.7229 68.6529 63.961 65.5289 63.3393V56.3446L75.4616 59.3415C76.9373 59.7865 78.015 61.0068 78.2746 62.5263L82.2561 85.8354C82.3222 86.2219 82.2193 86.5999 81.9664 86.8996C81.7136 87.1991 81.3584 87.3643 80.9662 87.3643H9.03406C8.64189 87.3643 8.28681 87.1993 8.03386 86.8996C7.78109 86.5999 7.67808 86.2221 7.74417 85.8354L9.05814 78.1429C9.18066 77.4253 8.69831 76.7445 7.98095 76.622C7.26376 76.4989 6.58261 76.9818 6.45991 77.6992L5.14595 85.3917C4.94995 86.5399 5.26829 87.709 6.01923 88.5994C6.77052 89.4895 7.86933 90 9.03406 90H80.9662C82.1309 90 83.2299 89.4895 83.981 88.5992C84.732 87.7089 85.0503 86.5397 84.8543 85.3915ZM62.4765 26.7344C63.1787 26.5593 63.7425 26.5625 63.7488 26.5627C63.9759 26.5656 64.1967 26.5126 64.3928 26.4097C64.4516 26.5558 64.4862 26.7128 64.4862 26.8762V28.8795C64.4862 29.5808 63.9156 30.1514 63.2142 30.1514H62.4765V26.7344ZM27.5238 30.1514H26.786C26.0847 30.1514 25.5141 29.5808 25.5141 28.8795V26.8762C25.5141 26.7128 25.5489 26.5558 25.6074 26.4099C25.8034 26.5127 26.0242 26.5658 26.2515 26.5627C26.2615 26.5644 26.8236 26.5613 27.5238 26.7351V30.1514ZM30.1596 31.6292V28.1667C30.559 28.2864 30.9958 28.27 31.3991 28.1018C32.0908 27.8132 32.5376 27.1429 32.5376 26.3939V14.2274C32.5376 12.7466 33.7424 11.5418 35.2232 11.5418H38.861C39.5093 11.5418 40.1426 11.7677 40.6444 12.1779L41.0013 12.4697C42.1265 13.3898 43.5466 13.8962 45.0001 13.8962C46.4537 13.8962 47.8738 13.3896 48.999 12.4697L49.3558 12.1779C49.8575 11.7677 50.491 11.5418 51.1393 11.5418H54.7771C56.2579 11.5418 57.4627 12.7466 57.4627 14.2274V26.3941C57.4627 27.1429 57.9095 27.8133 58.6012 28.102C58.8322 28.1983 59.0741 28.2451 59.3138 28.2451C59.4926 28.2451 59.6699 28.2189 59.8406 28.1679V31.6292C59.8406 33.5535 58.5103 37.2902 56.0448 40.4258C55.2281 41.4645 54.1784 42.5804 52.8858 43.5556C52.8449 43.583 52.8057 43.6127 52.7682 43.6444C50.7659 45.1248 48.1913 46.2589 45.0001 46.2589C41.809 46.2589 39.2343 45.1248 37.2318 43.6442C37.1944 43.6127 37.1554 43.583 37.1146 43.5558C35.8221 42.5804 34.7723 41.4645 33.9554 40.4258C31.4901 37.2904 30.1596 33.5535 30.1596 31.6292ZM53.6345 52.9225L45.0001 59.3761L36.3658 52.9225C37.222 51.8342 37.7017 50.4373 37.7017 49.1906V47.0661C39.7321 48.1581 42.1549 48.895 45.0001 48.895C47.8453 48.895 50.2683 48.1581 52.2986 47.0661V49.1906C52.2986 50.4373 52.7783 51.8342 53.6345 52.9225ZM34.1662 51.4513C33.4624 51.1833 32.6821 51.1393 31.944 51.3396C31.9116 51.3471 31.88 51.3557 31.8492 51.3649L27.296 52.7388C28.0661 48.9521 31.1408 45.9381 35.0659 45.3544V49.1906C35.0659 50.0175 34.6967 50.8723 34.1662 51.4513ZM37.7432 62.0313C37.7407 62.0251 37.7383 62.019 37.736 62.013C37.6692 61.8441 37.6033 61.6774 37.5379 61.5127C37.5261 61.4828 37.5143 61.4531 37.5025 61.4236C37.4385 61.2624 37.3751 61.1024 37.3125 60.9451C37.3081 60.934 37.3037 60.9231 37.2993 60.9119C37.104 60.4209 36.9158 59.95 36.7347 59.4988C36.7215 59.4661 36.7084 59.4329 36.6952 59.4004C36.6431 59.271 36.592 59.1435 36.5412 59.0177C36.5226 58.9714 36.5041 58.9257 36.4856 58.88C36.4364 58.758 36.3876 58.6368 36.3394 58.5181C36.325 58.4826 36.3109 58.4481 36.2967 58.4128C36.2093 58.1973 36.1239 57.9872 36.0406 57.7825C36.0181 57.7271 35.995 57.6707 35.9727 57.616C35.94 57.5362 35.9082 57.4585 35.8762 57.3803C35.8418 57.2959 35.8073 57.2122 35.7735 57.13C35.7609 57.0992 35.7477 57.0667 35.7351 57.0361C35.7249 57.0115 35.7155 56.9888 35.7055 56.9644C35.5533 56.5945 35.4086 56.246 35.2713 55.9181C35.2703 55.9155 35.2691 55.9128 35.268 55.9102C35.1949 55.7357 35.1233 55.5652 35.0546 55.4027C35.0189 55.3185 34.9838 55.2357 34.9493 55.1545L42.3752 60.7047L39.2723 62.0228C39.2668 62.0251 39.2612 62.0274 39.2558 62.0299L37.9603 62.5802C37.8868 62.3944 37.8149 62.2123 37.7432 62.0313ZM40.8879 70.101C40.6276 69.4255 40.3653 68.7461 40.1025 68.0674C39.6915 67.0059 39.299 65.9965 38.9234 65.035L39.4152 64.826L41.4247 67.162L40.8879 70.101ZM45.0256 80.8128C44.9878 80.7344 44.9428 80.6604 44.8908 80.5915C44.2952 79.0174 43.5394 77.0256 42.7028 74.8341L43.9333 68.0973H46.0669L47.2974 74.8341C46.4208 77.13 45.6335 79.206 45.0256 80.8128ZM46.5612 65.4616H43.439L41.9616 63.7443L45.0001 62.4535L48.0387 63.7443L46.5612 65.4616ZM49.8977 68.0674C49.635 68.7461 49.3727 69.4255 49.1124 70.101L48.5755 67.1618L50.585 64.8258L51.0769 65.0348C50.7012 65.9964 50.3087 67.0059 49.8977 68.0674ZM54.9458 55.4027C54.8806 55.5567 54.8128 55.7183 54.7437 55.8831C54.7347 55.9046 54.7256 55.9262 54.7166 55.9478C54.6482 56.1113 54.5786 56.2783 54.5065 56.4521C54.5018 56.4636 54.4969 56.4757 54.4921 56.4873C54.4299 56.6372 54.3661 56.7919 54.3012 56.9496C54.2891 56.9791 54.2777 57.0064 54.2656 57.0361C54.2511 57.0714 54.2357 57.1089 54.2211 57.1446C54.1923 57.2149 54.1629 57.2866 54.1334 57.3583C54.0972 57.4467 54.0611 57.5348 54.024 57.6253C54.0123 57.6541 54.0001 57.6842 53.9882 57.7132C53.8964 57.938 53.8022 58.1697 53.7059 58.4077C53.6908 58.445 53.6758 58.4815 53.6607 58.5193C53.6131 58.6369 53.5645 58.757 53.5159 58.8778C53.4969 58.925 53.4777 58.9721 53.4585 59.02C53.4083 59.1446 53.3575 59.2708 53.3061 59.3988C53.2917 59.4345 53.2771 59.471 53.2627 59.5069C53.084 59.952 52.8985 60.4162 52.706 60.8999C52.6997 60.9159 52.6934 60.9316 52.687 60.9478C52.6248 61.104 52.5619 61.2629 52.4983 61.4231C52.4865 61.4529 52.4745 61.4828 52.4626 61.5129C52.3968 61.6785 52.3306 61.8458 52.2634 62.0158C52.2622 62.019 52.2609 62.0221 52.2597 62.0251C52.1873 62.2083 52.1145 62.3925 52.0403 62.5806L50.7436 62.0297C50.739 62.0278 50.7345 62.0258 50.7301 62.0239L47.6254 60.705L55.0513 55.1549C55.0165 55.2357 54.9813 55.3184 54.9458 55.4027ZM58.151 51.365C58.1508 51.365 58.1505 51.3649 58.1503 51.3649C58.1493 51.3645 58.148 51.3643 58.147 51.3638C57.3823 51.1344 56.5667 51.1724 55.8342 51.4513C55.3035 50.8723 54.9346 50.0175 54.9346 49.1906V45.3524C58.8842 45.9346 61.9497 48.9203 62.7097 52.7404L58.151 51.365ZM68.3792 70.0269C68.3792 72.3338 66.5024 74.2104 64.1956 74.2104C61.8888 74.2104 60.012 72.3338 60.012 70.0269C60.012 67.7199 61.8888 65.8433 64.1956 65.8433C66.5024 65.8433 68.3792 67.7199 68.3792 70.0269Z" fill="black"/>
</svg>
