<svg width="90" height="90" viewBox="0 0 90 90" fill="none" xmlns="http://www.w3.org/2000/svg">
<g clip-path="url(#clip0)">
<path d="M27.5806 79.8387H62.4193V88.5484H27.5806V79.8387Z" fill="#838F9B"/>
<path d="M88.5484 68.2258V74.0323C88.5484 77.2403 85.95 79.8387 82.742 79.8387H7.25811C4.0501 79.8387 1.45166 77.2403 1.45166 74.0323V71.1291H60.9678L66.7742 68.2258H88.5484Z" fill="#969FAA"/>
<path d="M33.3871 21.7742V27.5806C33.3871 30.5271 34.49 33.2127 36.2904 35.2597V53.7097H39.1936V65.3226H50.8065V53.7097H53.7097V35.2597C55.5101 33.2127 56.6129 30.5271 56.6129 27.5806V21.7742H82.742C85.95 21.7742 88.5484 24.3726 88.5484 27.5806V68.2258H66.7742L60.9678 71.129H1.45166V27.5806C1.45166 24.3726 4.0501 21.7742 7.25811 21.7742H33.3871Z" fill="#69D6F4"/>
<path d="M59.5161 45H82.7419V62.4194H59.5161V45Z" fill="#E6E9ED"/>
<path d="M7.2583 47.9032H30.4841V65.3226H7.2583V47.9032Z" fill="#E6E9ED"/>
<path d="M44.9998 53.7097H50.8063V65.3226H39.1934V53.7097H44.9998Z" fill="#CCD1D9"/>
<path d="M53.7099 47.9032V53.7097H36.2905V47.9032H42.097C42.097 47.1051 42.4166 46.3793 42.9532 45.8562C43.4763 45.3197 44.2021 45 45.0002 45C45.7983 45 46.5241 45.3197 47.0472 45.8562C47.5838 46.3793 47.9034 47.1051 47.9034 47.9032H53.7099Z" fill="#FFEAA7"/>
<path d="M53.7099 35.2598V47.9033H47.9034C47.9034 47.1052 47.5838 46.3793 47.0472 45.8563C46.5241 45.3197 45.7983 45 45.0002 45C44.2021 45 43.4763 45.3197 42.9532 45.8563C42.4166 46.3793 42.097 47.1052 42.097 47.9033H36.2905V35.2598C38.4098 37.6697 41.5307 39.1936 45.0002 39.1936C48.4698 39.1936 51.5906 37.6697 53.7099 35.2598Z" fill="#B4DD7F"/>
<path d="M56.613 21.7742V27.5807C56.613 30.5271 55.5101 33.2128 53.7098 35.2598C51.5905 37.6697 48.4697 39.1936 45.0001 39.1936C41.5306 39.1936 38.4097 37.6697 36.2904 35.2598C34.4901 33.2128 33.3872 30.5271 33.3872 27.5807V18.871C33.3872 17.2741 34.6935 15.9678 36.2904 15.9678H53.7098C55.3067 15.9678 56.613 17.2741 56.613 18.871V21.7742Z" fill="#FCD770"/>
<path d="M47.9031 24.6774C47.9031 26.2807 46.6032 27.5806 44.9999 27.5806C43.3966 27.5806 42.0967 26.2807 42.0967 24.6774C42.0967 23.0741 43.3966 21.7742 44.9999 21.7742C46.6032 21.7742 47.9031 23.0741 47.9031 24.6774Z" fill="#FFC729"/>
<path d="M82.7419 20.3226H78.3871V23.2259H82.7419C85.1426 23.2259 87.0968 25.18 87.0968 27.5807V66.7742H66.4318L60.6254 69.6775H2.90323V27.5807C2.90323 25.18 4.85737 23.2259 7.25806 23.2259H11.6129V20.3226H7.25806C3.25621 20.3226 0 23.5788 0 27.5807V74.0323C0 78.0342 3.25621 81.2904 7.25806 81.2904H26.129V87.0968H20.3226V90.0001H69.6774V87.0968H63.871V81.2904H82.7419C86.7438 81.2904 90 78.0342 90 74.0323V27.5807C90 23.5788 86.7438 20.3226 82.7419 20.3226ZM60.9677 87.0968H29.0323V81.2904H60.9677V87.0968ZM82.7419 78.3871H7.25806C4.85737 78.3871 2.90323 76.433 2.90323 74.0323V72.5807H61.3101L67.1165 69.6775H87.0968V74.0323C87.0968 76.433 85.1426 78.3871 82.7419 78.3871Z" fill="black"/>
<path d="M75.4839 72.5807H78.3871V75.4839H75.4839V72.5807Z" fill="black"/>
<path d="M81.2905 72.5807H84.1938V75.4839H81.2905V72.5807Z" fill="black"/>
<path d="M69.6772 72.5807H72.5805V75.4839H69.6772V72.5807Z" fill="black"/>
<path d="M43.5482 28.7651V34.8388H46.4515V28.7651C48.137 28.164 49.3547 26.5671 49.3547 24.6775C49.3547 22.2768 47.4005 20.3226 44.9999 20.3226C42.5992 20.3226 40.645 22.2768 40.645 24.6775C40.645 26.5671 41.8627 28.164 43.5482 28.7651ZM44.9999 23.2259C45.8008 23.2259 46.4515 23.8779 46.4515 24.6775C46.4515 25.477 45.8008 26.1291 44.9999 26.1291C44.1989 26.1291 43.5482 25.477 43.5482 24.6775C43.5482 23.8779 44.1989 23.2259 44.9999 23.2259Z" fill="black"/>
<path d="M34.8388 55.1613H37.742V66.7742H52.2581V55.1613H55.1614V35.7736C56.973 33.531 58.0646 30.6816 58.0646 27.5806V18.871C58.0646 16.9813 56.8469 15.3844 55.1614 14.7833V10.1613C55.1614 4.55826 50.6017 0 45.0001 0C39.3985 0 34.8388 4.55826 34.8388 10.1613V14.7833C33.1533 15.3844 31.9355 16.9813 31.9355 18.871V27.5806C31.9355 30.683 33.0271 33.531 34.8388 35.7736V55.1613ZM37.742 38.4358C39.8195 39.8293 42.3159 40.6452 45.0001 40.6452C47.6843 40.6452 50.1806 39.8293 52.2581 38.4358V46.4516H49.1068C48.5072 44.7618 46.8933 43.5484 45.0001 43.5484C43.1069 43.5484 41.4929 44.7618 40.8933 46.4516H37.742V38.4358ZM49.3549 63.871H40.6452V55.1613H43.5485V60.9677H46.4517V55.1613H49.3549V63.871ZM37.742 52.2581V49.3548H43.5485V47.9032C43.5485 47.1037 44.1991 46.4516 45.0001 46.4516C45.801 46.4516 46.4517 47.1037 46.4517 47.9032V49.3548H52.2581V52.2581H37.742ZM45.0001 2.90323C49.0019 2.90323 52.2581 6.15943 52.2581 10.1613V14.5161H37.742V10.1613C37.742 6.15943 40.9982 2.90323 45.0001 2.90323ZM34.8388 18.871C34.8388 18.0714 35.4894 17.4194 36.2904 17.4194H53.7097C54.5107 17.4194 55.1614 18.0714 55.1614 18.871V27.5806C55.1614 33.1837 50.6017 37.7419 45.0001 37.7419C39.3985 37.7419 34.8388 33.1837 34.8388 27.5806V18.871Z" fill="black"/>
<path d="M60.9678 17.4193H75.4839V20.3225H60.9678V17.4193Z" fill="black"/>
<path d="M60.4282 11.7107L74.9458 5.90918L76.0231 8.60473L61.5056 14.4069L60.4282 11.7107Z" fill="black"/>
<path d="M60.4297 26.0242L61.5085 23.3286L76.0239 29.1351L74.9458 31.8306L60.4297 26.0242Z" fill="black"/>
<path d="M14.5161 17.4193H29.0322V20.3225H14.5161V17.4193Z" fill="black"/>
<path d="M13.9775 8.60546L15.0556 5.90991L29.5717 11.7164L28.4937 14.4119L13.9775 8.60546Z" fill="black"/>
<path d="M13.9775 29.1322L28.4951 23.3307L29.5725 26.0262L15.0549 31.8277L13.9775 29.1322Z" fill="black"/>
<path d="M5.80664 66.7742H31.9357V46.4517H5.80664V66.7742ZM8.70987 49.3549H29.0324V63.871H8.70987V49.3549Z" fill="black"/>
<path d="M11.6128 58.0645H26.1289V60.9677H11.6128V58.0645Z" fill="black"/>
<path d="M11.6128 52.2581H26.1289V55.1613H11.6128V52.2581Z" fill="black"/>
<path d="M58.0645 63.8709H84.1935V43.5483H58.0645V63.8709ZM60.9677 46.4516H81.2903V60.9677H60.9677V46.4516Z" fill="black"/>
<path d="M63.8711 55.1613H78.3872V58.0645H63.8711V55.1613Z" fill="black"/>
<path d="M63.8711 49.3549H78.3872V52.2581H63.8711V49.3549Z" fill="black"/>
</g>
<defs>
<clipPath id="clip0">
<rect width="90" height="90" fill="white"/>
</clipPath>
</defs>
</svg>
