<svg width="90" height="90" viewBox="0 0 90 90" fill="none" xmlns="http://www.w3.org/2000/svg">
<path d="M75.676 21.3258C65.0314 18.1518 54.5835 14.3521 44.3869 9.94641C34.1903 14.3521 23.7424 18.1518 13.0978 21.3258C13.0978 21.3258 8.05151 67.9964 44.3869 80.0529C80.723 67.9964 75.676 21.3258 75.676 21.3258Z" fill="#1A91E9"/>
<path d="M44.3854 74.0813C32.3437 69.4618 24.3618 59.7228 20.6458 45.1048C19.0785 38.7052 18.3577 32.1276 18.5019 25.5404C30.9318 21.6078 40.2601 17.8306 44.3854 16.0798C48.5106 17.8306 57.8383 21.6078 70.2681 25.5404C70.4125 32.1276 69.6917 38.7052 68.1243 45.1048C64.4062 59.7228 56.4271 69.4618 44.3854 74.0813Z" fill="#E5FFFF"/>
<path d="M44.5317 68.8297V21.4932C48.9614 23.3213 56.2317 26.1612 65.4785 29.198C65.3543 34.1789 64.6914 39.1317 63.5014 43.97C60.3928 56.1973 54.0169 64.5504 44.5317 68.8297Z" fill="#B3DFF8"/>
<path d="M50.7831 40.5942H37.9862C37.3495 40.5936 36.739 40.3405 36.2887 39.8903C35.8384 39.4402 35.5851 38.8297 35.5843 38.193V32.7656C35.5739 31.6034 35.7939 30.4507 36.2314 29.3741C36.669 28.2974 37.3155 27.318 38.1336 26.4925C38.9517 25.6671 39.9252 25.0119 40.998 24.5647C42.0707 24.1176 43.2214 23.8873 44.3836 23.8873C45.5458 23.8873 46.6965 24.1176 47.7692 24.5647C48.8419 25.0119 49.8155 25.6671 50.6336 26.4925C51.4517 27.318 52.0982 28.2974 52.5358 29.3741C52.9733 30.4507 53.1932 31.6034 53.1828 32.7656V38.1944C53.1817 38.8305 52.9285 39.4403 52.4787 39.8901C52.0289 40.3399 51.4192 40.5931 50.7831 40.5942ZM38.0467 38.1333H50.7233V32.7656C50.7321 31.9276 50.5747 31.0962 50.2601 30.3195C49.9456 29.5427 49.4801 28.8361 48.8907 28.2404C48.3012 27.6447 47.5995 27.1718 46.8261 26.8491C46.0527 26.5263 45.223 26.3602 44.385 26.3602C43.547 26.3602 42.7173 26.5263 41.9439 26.8491C41.1705 27.1718 40.4688 27.6447 39.8793 28.2404C39.2899 28.8361 38.8244 29.5427 38.5099 30.3195C38.1953 31.0962 38.0379 31.9276 38.0467 32.7656V38.1333Z" fill="#08607D"/>
<path d="M51.7936 37.0223H36.9766C34.4401 37.0223 32.3838 39.0786 32.3838 41.6152V53.9578C32.3838 56.4943 34.4401 58.5506 36.9766 58.5506H51.7936C54.3301 58.5506 56.3864 56.4943 56.3864 53.9578V41.6152C56.3864 39.0786 54.3301 37.0223 51.7936 37.0223Z" fill="#1A91E9"/>
<path d="M47.5074 46.0364C47.5079 45.5142 47.3773 45.0001 47.1278 44.5414C46.8782 44.0826 46.5176 43.6937 46.0789 43.4104C45.6402 43.1271 45.1374 42.9583 44.6166 42.9195C44.0958 42.8807 43.5736 42.9732 43.0978 43.1885C42.6219 43.4037 42.2077 43.7349 41.893 44.1516C41.5782 44.5684 41.373 45.0574 41.2962 45.574C41.2194 46.0905 41.2733 46.6181 41.4531 47.1085C41.6329 47.5988 41.9328 48.0362 42.3253 48.3806C42.4916 48.5213 42.6259 48.6959 42.7192 48.8927C42.8124 49.0895 42.8625 49.304 42.866 49.5218V51.6375C42.8662 52.0404 43.0264 52.4267 43.3113 52.7115C43.5963 52.9963 43.9826 53.1563 44.3855 53.1563C44.7884 53.1561 45.1748 52.9959 45.4597 52.711C45.7446 52.4261 45.9048 52.0397 45.9049 51.6368V49.5415C45.9079 49.3195 45.9581 49.1007 46.0523 48.8996C46.1465 48.6986 46.2825 48.52 46.4513 48.3757C46.7836 48.0833 47.0497 47.7234 47.2318 47.32C47.4139 46.9166 47.5078 46.479 47.5074 46.0364Z" fill="#FFD92D"/>
<path d="M26.7413 18.0815C26.8817 18.0817 27.0211 18.058 27.1534 18.0111L27.9121 17.7411C28.2197 17.6315 28.4713 17.4041 28.6113 17.109C28.7514 16.8139 28.7684 16.4752 28.6588 16.1676C28.5491 15.8599 28.3217 15.6083 28.0266 15.4683C27.7315 15.3283 27.3929 15.3112 27.0852 15.4208L26.3293 15.6887C26.0563 15.7862 25.8264 15.977 25.6802 16.2273C25.534 16.4777 25.4809 16.7716 25.5301 17.0573C25.5793 17.343 25.7278 17.6022 25.9494 17.7891C26.171 17.9761 26.4514 18.0789 26.7413 18.0793V18.0815Z" fill="#04303E"/>
<path d="M76.8987 21.1935C76.873 20.9534 76.7771 20.7262 76.6231 20.5403C76.469 20.3543 76.2636 20.2179 76.0324 20.148C65.4406 16.9843 55.0426 13.2044 44.8917 8.82765C44.7324 8.75571 44.5596 8.71851 44.3848 8.71851C44.21 8.71851 44.0372 8.75571 43.8778 8.82765C43.8392 8.84523 39.9474 10.5995 33.4603 13.0752C33.3059 13.1302 33.1641 13.2156 33.0431 13.3262C32.9222 13.4367 32.8245 13.5704 32.7559 13.7192C32.6873 13.8681 32.6491 14.0292 32.6436 14.193C32.6381 14.3568 32.6654 14.52 32.7238 14.6732C32.7823 14.8263 32.8707 14.9662 32.984 15.0847C33.0973 15.2031 33.2331 15.2978 33.3834 15.363C33.5338 15.4283 33.6957 15.4629 33.8596 15.4647C34.0234 15.4665 34.1861 15.4356 34.3378 15.3737C39.555 13.3832 43.122 11.8497 44.3848 11.2956C54.2216 15.4999 64.2815 19.1617 74.5193 22.2644C75.0153 30.193 74.3221 38.1512 72.4627 45.8746C68.2552 62.7686 58.8094 73.828 44.3848 78.7548C29.9799 73.8372 20.5404 62.7981 16.3238 45.9386C14.4546 38.1935 13.7557 30.2122 14.2503 22.2602C16.7189 21.505 19.2073 20.7133 21.6598 19.8941C21.8165 19.846 21.9621 19.767 22.0879 19.6617C22.2136 19.5565 22.3171 19.4272 22.3922 19.2814C22.4673 19.1357 22.5125 18.9763 22.5252 18.8128C22.5378 18.6493 22.5177 18.485 22.4659 18.3294C22.4141 18.1738 22.3317 18.0301 22.2236 17.9068C22.1155 17.7835 21.9838 17.683 21.8364 17.6113C21.6889 17.5396 21.5286 17.4981 21.3648 17.4893C21.2011 17.4804 21.0372 17.5044 20.8828 17.5598C18.1864 18.457 15.4456 19.3274 12.7371 20.148C12.506 20.2179 12.3006 20.3543 12.1465 20.5403C11.9925 20.7262 11.8966 20.9534 11.8709 21.1935C11.2029 29.6729 11.8953 38.2045 13.9219 46.4652C18.3214 64.1334 28.7227 76.1519 44.0009 81.2214C44.252 81.3045 44.5232 81.3045 44.7743 81.2214C60.0525 76.1519 70.4539 64.1355 74.8533 46.4652C76.878 38.2042 77.5685 29.6726 76.8987 21.1935Z" fill="#04303E"/>
<path d="M58.858 62.0226L58.5648 62.3903C58.3729 62.6453 58.2875 62.9649 58.3267 63.2816C58.3658 63.5984 58.5264 63.8875 58.7747 64.0881C59.0229 64.2887 59.3393 64.3851 59.6572 64.357C59.9751 64.3288 60.2696 64.1783 60.4787 63.9372L60.7916 63.5442C60.9935 63.2878 61.0854 62.9616 61.0469 62.6375C61.0084 62.3134 60.8427 62.0178 60.5863 61.8159C60.3299 61.6139 60.0037 61.5221 59.6796 61.5606C59.3555 61.5991 59.06 61.7648 58.858 62.0212V62.0226Z" fill="#04303E"/>
<path d="M61.3385 58.462C61.2534 58.5996 61.1962 58.7527 61.1703 58.9125C61.1443 59.0722 61.1502 59.2355 61.1875 59.3931C61.2248 59.5506 61.2928 59.6991 61.3876 59.8303C61.4825 59.9615 61.6022 60.0727 61.7401 60.1575C61.8779 60.2423 62.0312 60.2991 62.191 60.3246C62.3509 60.3501 62.5141 60.3438 62.6716 60.3061C62.829 60.2684 62.9774 60.2 63.1083 60.1048C63.2392 60.0096 63.3501 59.8896 63.4345 59.7515C66.107 55.294 68.0902 50.4581 69.3169 45.4078C70.918 38.9018 71.6509 32.2125 71.4966 25.5142C71.491 25.2572 71.4051 25.0084 71.2511 24.8026C71.097 24.5969 70.8824 24.4444 70.6374 24.3667C58.4072 20.4996 49.2399 16.8039 44.8643 14.9449C44.7122 14.8802 44.5486 14.8468 44.3834 14.8468C44.2181 14.8468 44.0545 14.8802 43.9024 14.9449C39.5269 16.8018 30.3595 20.4996 18.1294 24.3667C17.8843 24.4444 17.6697 24.5969 17.5157 24.8026C17.3616 25.0084 17.2757 25.2572 17.2702 25.5142C17.1158 32.2123 17.8487 38.9014 19.4499 45.4071C23.2734 60.4258 31.5106 70.4601 43.9453 75.2301C44.2292 75.3388 44.5432 75.3388 44.827 75.2301C49.3579 73.5195 53.5109 70.9399 57.0523 67.6364C57.17 67.5256 57.2648 67.3926 57.3311 67.2452C57.3975 67.0978 57.4342 66.9388 57.4391 66.7772C57.444 66.6156 57.417 66.4546 57.3597 66.3034C57.3023 66.1522 57.2158 66.0138 57.105 65.8961C56.9942 65.7784 56.8613 65.6836 56.7139 65.6173C56.5665 65.5509 56.4074 65.5142 56.2458 65.5093C56.0842 65.5044 55.9232 65.5314 55.7721 65.5887C55.6209 65.646 55.4825 65.7326 55.3648 65.8434C52.1733 68.8213 48.4477 71.169 44.3841 72.7628C32.9857 68.227 25.3997 58.8227 21.8377 44.8038C20.3704 38.796 19.6587 32.6286 19.7191 26.4445C31.1977 22.7812 39.908 19.3014 44.3848 17.4164C48.8616 19.3014 57.5719 22.7791 69.0504 26.4445C69.1103 32.6279 68.3984 38.7946 66.9312 44.8017C65.766 49.6109 63.8805 54.2164 61.3385 58.462Z" fill="#04303E"/>
<path d="M44.3846 26.4255C46.0654 26.4273 47.6768 27.0959 48.8651 28.2846C50.0535 29.4732 50.7217 31.0848 50.7232 32.7656C50.7232 33.0919 50.8529 33.4049 51.0836 33.6356C51.3144 33.8664 51.6274 33.996 51.9537 33.996C52.28 33.996 52.593 33.8664 52.8238 33.6356C53.0545 33.4049 53.1842 33.0919 53.1842 32.7656C53.1842 30.4318 52.2571 28.1935 50.6068 26.5433C48.9566 24.893 46.7184 23.9659 44.3846 23.9659C42.0508 23.9659 39.8125 24.893 38.1623 26.5433C36.5121 28.1935 35.585 30.4318 35.585 32.7656V35.9683C34.3221 36.2806 33.2001 37.0063 32.3974 38.0299C31.5946 39.0536 31.1574 40.3163 31.1553 41.6172V53.9577C31.1569 55.5017 31.771 56.9819 32.8627 58.0736C33.9544 59.1653 35.4346 59.7794 36.9785 59.781H51.7934C53.3373 59.7794 54.8175 59.1653 55.9092 58.0736C57.0009 56.9819 57.615 55.5017 57.6167 53.9577V41.6158C57.6157 40.0713 57.002 38.5903 55.9102 37.4979C54.8185 36.4055 53.3379 35.7909 51.7934 35.789H38.0459V32.7656C38.0474 31.0848 38.7156 29.4732 39.904 28.2846C41.0924 27.0959 42.7038 26.4273 44.3846 26.4255ZM55.1557 41.613V53.9577C55.1546 54.8491 54.8 55.7037 54.1697 56.334C53.5394 56.9644 52.6848 57.319 51.7934 57.3201H36.9757C36.0843 57.319 35.2298 56.9644 34.5994 56.334C33.9691 55.7037 33.6145 54.8491 33.6134 53.9577V41.6158C33.6138 40.7238 33.968 39.8685 34.5984 39.2374C35.2288 38.6064 36.0838 38.2512 36.9757 38.2499H51.7934C52.6853 38.2512 53.5403 38.6064 54.1707 39.2374C54.8011 39.8685 55.1554 40.7238 55.1557 41.6158V41.613Z" fill="#04303E"/>
<path d="M41.5125 49.3059C41.5801 49.3589 41.6241 49.4365 41.6349 49.5218V51.6368C41.6349 52.3661 41.9246 53.0655 42.4403 53.5812C42.956 54.097 43.6554 54.3867 44.3848 54.3867C45.1141 54.3867 45.8136 54.097 46.3293 53.5812C46.845 53.0655 47.1347 52.3661 47.1347 51.6368V49.5414C47.1392 49.4944 47.153 49.4487 47.1752 49.4069C47.1974 49.3652 47.2276 49.3282 47.2641 49.2982C47.9585 48.6857 48.4395 47.8676 48.6371 46.963C48.8346 46.0584 48.7385 45.1143 48.3626 44.2681C47.9868 43.4218 47.3508 42.7175 46.5471 42.2576C45.7434 41.7977 44.814 41.6061 43.894 41.7107C43.7334 41.7285 43.5778 41.7776 43.4362 41.8555C43.2946 41.9333 43.1697 42.0383 43.0687 42.1644C42.9676 42.2905 42.8924 42.4353 42.8473 42.5905C42.8023 42.7457 42.7882 42.9082 42.8059 43.0688C42.8236 43.2294 42.8728 43.385 42.9507 43.5266C43.0285 43.6682 43.1335 43.7931 43.2596 43.8941C43.3857 43.9952 43.5305 44.0704 43.6857 44.1155C43.8408 44.1606 44.0034 44.1746 44.164 44.1569C44.5642 44.1102 44.9689 44.1925 45.319 44.3919C45.6692 44.5913 45.9465 44.8973 46.1104 45.2654C46.2744 45.6335 46.3165 46.0443 46.2306 46.438C46.1447 46.8316 45.9352 47.1876 45.6328 47.4539C45.334 47.714 45.0939 48.0346 44.9282 48.3945C44.7625 48.7543 44.675 49.1453 44.6717 49.5414V51.6368C44.6717 51.7134 44.6412 51.7869 44.587 51.8411C44.5328 51.8953 44.4593 51.9257 44.3827 51.9257C44.306 51.9257 44.2325 51.8953 44.1783 51.8411C44.1241 51.7869 44.0937 51.7134 44.0937 51.6368V49.5218C44.0899 49.1291 44.0024 48.7418 43.837 48.3857C43.6716 48.0296 43.4321 47.7129 43.1346 47.4567C42.9087 47.259 42.7334 47.0102 42.6233 46.7309C42.5132 46.4516 42.4715 46.1501 42.5018 45.8514C42.524 45.5307 42.4198 45.214 42.2116 44.9691C42.0034 44.7241 41.7076 44.5703 41.3875 44.5406C41.0674 44.5108 40.7483 44.6075 40.4985 44.8098C40.2487 45.0122 40.088 45.3043 40.0507 45.6236C39.983 46.3095 40.0803 47.0016 40.3346 47.6422C40.5889 48.2828 40.9928 48.8532 41.5125 49.3059Z" fill="#04303E"/>
</svg>
