<svg width="18" height="19" viewBox="0 0 18 19" fill="none" xmlns="http://www.w3.org/2000/svg">
<g clip-path="url(#clip0)">
<path d="M17.0066 18.6407C17.5551 18.6407 18 18.1959 18 17.6472V1.63407C18 1.08535 17.5551 0.640625 17.0066 0.640625H0.993445C0.444656 0.640625 0 1.08535 0 1.63407V17.6472C0 18.1959 0.444656 18.6407 0.993445 18.6407H17.0066Z" fill="#395185"/>
<path d="M12.4196 18.6407V11.6701H14.7594L15.1097 8.9536H12.4196V7.21913C12.4196 6.43261 12.638 5.89662 13.7659 5.89662L15.2044 5.89599V3.46634C14.9555 3.43322 14.1017 3.35925 13.1083 3.35925C11.0342 3.35925 9.61432 4.62523 9.61432 6.95018V8.9536H7.26855V11.6701H9.61432V18.6407H12.4196Z" fill="white"/>
</g>
<defs>
<clipPath id="clip0">
<rect width="18" height="18" fill="white" transform="translate(0 0.640625)"/>
</clipPath>
</defs>
</svg>
