<svg width="18" height="19" viewBox="0 0 18 19" fill="none" xmlns="http://www.w3.org/2000/svg">
<g clip-path="url(#clip0)">
<path d="M1.12527 1.86523C-0.289228 3.33448 0.000271518 4.89523 0.000271518 9.63673C0.000271518 13.5742 -0.686729 17.5215 2.90877 18.4507C4.03152 18.7395 13.9795 18.7395 15.1008 18.4492C16.5978 18.063 17.8158 16.8487 17.9823 14.7315C18.0055 14.436 18.0055 4.84273 17.9815 4.54123C17.8045 2.28598 16.4163 0.986227 14.587 0.722977C14.1678 0.662227 14.0838 0.644227 11.9328 0.640477C4.30302 0.644227 2.63052 0.304477 1.12527 1.86523Z" fill="url(#paint0_linear)"/>
<path d="M8.99836 2.99482C6.27511 2.99482 3.68911 2.75257 2.70136 5.28757C2.29336 6.33457 2.35261 7.69432 2.35261 9.64132C2.35261 11.3498 2.29786 12.9556 2.70136 13.9943C3.68686 16.5308 6.29386 16.2878 8.99686 16.2878C11.6046 16.2878 14.2934 16.5593 15.2931 13.9943C15.7019 12.9368 15.6419 11.5973 15.6419 9.64132C15.6419 7.04482 15.7851 5.36857 14.5259 4.11007C13.2509 2.83507 11.5266 2.99482 8.99536 2.99482H8.99836ZM8.40286 4.19257C14.0834 4.18357 14.8064 3.55207 14.4074 12.3248C14.2656 15.4276 11.9031 15.0871 8.99911 15.0871C3.70411 15.0871 3.55186 14.9356 3.55186 9.63832C3.55186 4.27957 3.97186 4.19557 8.40286 4.19107V4.19257ZM12.5459 5.29582C12.1056 5.29582 11.7486 5.65282 11.7486 6.09307C11.7486 6.53332 12.1056 6.89032 12.5459 6.89032C12.9861 6.89032 13.3431 6.53332 13.3431 6.09307C13.3431 5.65282 12.9861 5.29582 12.5459 5.29582ZM8.99836 6.22807C7.11361 6.22807 5.58586 7.75657 5.58586 9.64132C5.58586 11.5261 7.11361 13.0538 8.99836 13.0538C10.8831 13.0538 12.4101 11.5261 12.4101 9.64132C12.4101 7.75657 10.8831 6.22807 8.99836 6.22807ZM8.99836 7.42582C11.9271 7.42582 11.9309 11.8568 8.99836 11.8568C6.07036 11.8568 6.06586 7.42582 8.99836 7.42582Z" fill="white"/>
</g>
<defs>
<linearGradient id="paint0_linear" x1="1.15979" y1="17.4908" x2="17.8889" y2="3.01196" gradientUnits="userSpaceOnUse">
<stop stop-color="#FFDD55"/>
<stop offset="0.5" stop-color="#FF543E"/>
<stop offset="1" stop-color="#C837AB"/>
</linearGradient>
<clipPath id="clip0">
<rect width="18" height="18" fill="white" transform="translate(0 0.640625)"/>
</clipPath>
</defs>
</svg>
