<svg width="18" height="14" viewBox="0 0 18 14" fill="none" xmlns="http://www.w3.org/2000/svg">
<g clip-path="url(#clip0)">
<path d="M16.793 13.6121H1.13583C0.52875 13.6121 0.0175781 13.1168 0.0175781 12.4937V1.18223C0.0175078 0.575085 0.512719 0.0638428 1.13583 0.0638428H16.793C17.4001 0.0638428 17.9114 0.559124 17.9114 1.18223V12.4937C17.9114 13.1168 17.4161 13.6121 16.793 13.6121Z" fill="#E3E3E3"/>
<path opacity="0.1" d="M2.25439 13.6121L8.94864 8.22796L8.99659 7.94038L2.09464 2.97168L2.07861 13.3725L2.25439 13.6121Z" fill="#231F20"/>
<path d="M1.1359 13.6122C0.512789 13.6122 0.0175781 13.1169 0.0175781 12.4938V1.1663C0.0175781 0.543264 0.512789 0.431396 1.1359 0.431396C1.75901 0.431396 2.25429 0.559225 2.25429 1.1663V13.6122H1.1359Z" fill="#D54B3D"/>
<path d="M1.13583 0.591146C1.93465 0.591146 2.09447 0.830842 2.09447 1.1663V13.4524H1.13583C0.608625 13.4524 0.177258 13.0211 0.177258 12.4938V1.1663C0.177258 0.81481 0.337008 0.591146 1.13583 0.591146ZM1.13583 0.431396C0.512719 0.431396 0.0175781 0.559225 0.0175781 1.1663V12.4939C0.0175781 13.117 0.512789 13.6122 1.1359 13.6122H2.25422V1.1663C2.25422 0.543264 1.75894 0.431396 1.13583 0.431396Z" fill="#D72B27"/>
<path d="M16.7932 13.6122H15.6748V1.13438C15.6748 0.511271 16.1701 0.431396 16.7932 0.431396C17.4163 0.431396 17.9116 0.511271 17.9116 1.13438V12.5098C17.9116 13.1169 17.4163 13.6122 16.7932 13.6122Z" fill="#D54B3D"/>
<path d="M16.7932 0.591146C17.5121 0.591146 17.7518 0.734935 17.7518 1.13438V12.5098C17.7518 13.037 17.3204 13.4684 16.7932 13.4684H15.8346V1.13438C15.8346 0.718975 16.0743 0.591146 16.7932 0.591146ZM16.7932 0.431396C16.1701 0.431396 15.6748 0.511271 15.6748 1.13438V13.6282H16.7932C17.4163 13.6282 17.9116 13.1329 17.9116 12.5098V1.13438C17.9116 0.511271 17.4163 0.431396 16.7932 0.431396Z" fill="#D72B27"/>
<path d="M12.0003 13.6122L0.111328 1.63093L0.736688 1.88525L9.01261 7.84458L17.9116 1.31909V12.5098C17.9116 13.1169 17.4164 13.6122 16.7933 13.6122H12.0003Z" fill="url(#paint0_linear)"/>
<path d="M8.94856 8.22795L0.496859 2.0929C0.00157767 1.72545 -0.142211 1.02246 0.225242 0.527182C0.592835 0.0319003 1.31171 -0.0798966 1.82295 0.287557L8.96459 5.47999L16.154 0.223572C16.6493 -0.143881 17.3522 -0.0320138 17.7197 0.479228C18.0871 0.97451 17.9753 1.67749 17.464 2.04495L8.94849 8.22788L8.94856 8.22795Z" fill="#D54B3D"/>
<path d="M16.793 0.15975C17.0965 0.15975 17.3841 0.303539 17.5758 0.559125C17.8794 0.990562 17.7835 1.58168 17.3681 1.90125L8.94841 8.0363L0.592615 1.96516C0.161248 1.64559 0.0493811 1.03845 0.35292 0.623109C0.528701 0.383414 0.83224 0.223734 1.15174 0.223734C1.35944 0.223734 1.56715 0.287578 1.7269 0.415406L8.85258 5.59181L8.94841 5.6558L9.04425 5.59181L16.2178 0.335531C16.3936 0.223734 16.5853 0.15975 16.793 0.15975ZM16.793 0C16.5693 0 16.3296 0.0639141 16.1379 0.207703L8.94841 5.46398L1.80677 0.271617C1.61517 0.127828 1.37555 0.0639141 1.13585 0.0639141C0.784358 0.0639141 0.432865 0.223664 0.209201 0.527273C-0.142291 1.02248 0.00149826 1.72547 0.496779 2.09292L8.94848 8.244L17.448 2.04504C17.9433 1.67759 18.0551 0.990562 17.7037 0.47932C17.48 0.15975 17.1445 0 16.793 0Z" fill="#D72B27"/>
</g>
<defs>
<linearGradient id="paint0_linear" x1="0.11204" y1="7.46539" x2="17.9173" y2="7.46539" gradientUnits="userSpaceOnUse">
<stop stop-opacity="0.1"/>
<stop offset="1" stop-opacity="0.2"/>
</linearGradient>
<clipPath id="clip0">
<rect width="18" height="13.6406" fill="white"/>
</clipPath>
</defs>
</svg>
