<svg width="22" height="22" viewBox="0 0 22 22" fill="none" xmlns="http://www.w3.org/2000/svg">
<path d="M17.6328 6.875C15.7382 6.875 14.1953 5.33316 14.1953 3.4375C14.1953 1.54184 15.7382 0 17.6328 0C19.5276 0 21.0703 1.54184 21.0703 3.4375C21.0703 5.33316 19.5276 6.875 17.6328 6.875ZM17.6328 1.375C16.4962 1.375 15.5703 2.29984 15.5703 3.4375C15.5703 4.57516 16.4962 5.5 17.6328 5.5C18.7695 5.5 19.6953 4.57516 19.6953 3.4375C19.6953 2.29984 18.7695 1.375 17.6328 1.375Z" fill="black"/>
<path d="M17.6328 22C15.7382 22 14.1953 20.4582 14.1953 18.5625C14.1953 16.6668 15.7382 15.125 17.6328 15.125C19.5276 15.125 21.0703 16.6668 21.0703 18.5625C21.0703 20.4582 19.5276 22 17.6328 22ZM17.6328 16.5C16.4962 16.5 15.5703 17.4248 15.5703 18.5625C15.5703 19.7002 16.4962 20.625 17.6328 20.625C18.7695 20.625 19.6953 19.7002 19.6953 18.5625C19.6953 17.4248 18.7695 16.5 17.6328 16.5Z" fill="black"/>
<path d="M4.33984 14.4375C2.44502 14.4375 0.902344 12.8957 0.902344 11C0.902344 9.10434 2.44502 7.5625 4.33984 7.5625C6.23466 7.5625 7.77734 9.10434 7.77734 11C7.77734 12.8957 6.23466 14.4375 4.33984 14.4375ZM4.33984 8.9375C3.20319 8.9375 2.27734 9.86234 2.27734 11C2.27734 12.1377 3.20319 13.0625 4.33984 13.0625C5.4765 13.0625 6.40234 12.1377 6.40234 11C6.40234 9.86234 5.4765 8.9375 4.33984 8.9375Z" fill="black"/>
<path d="M6.73497 10.3308C6.49562 10.3308 6.26281 10.2061 6.13727 9.98436C5.94928 9.65438 6.06392 9.23442 6.3939 9.0466L14.8997 4.19734C15.2287 4.00768 15.6495 4.12316 15.8364 4.45415C16.0244 4.78414 15.9098 5.20392 15.5798 5.39191L7.07402 10.241C6.96676 10.3014 6.85044 10.3308 6.73497 10.3308Z" fill="black"/>
<path d="M15.2388 17.8933C15.1234 17.8933 15.0069 17.8639 14.8996 17.8026L6.39383 12.9534C6.06384 12.7656 5.94937 12.3456 6.13719 12.0156C6.32417 11.6848 6.74412 11.5702 7.07411 11.759L15.5797 16.6081C15.9097 16.7961 16.0244 17.2159 15.8365 17.5458C15.71 17.7686 15.4772 17.8933 15.2388 17.8933Z" fill="black"/>
</svg>
