<svg width="46" height="46" viewBox="0 0 46 46" fill="none" xmlns="http://www.w3.org/2000/svg">
<g clip-path="url(#clip0)">
<path d="M45.6214 5.8056C45.5941 5.7799 40.1908 0.626916 40.1908 0.626916C39.9843 0.428721 39.7706 0.223877 39.3717 0.223877H17.6187C16.9834 0.223877 16.4664 0.740748 16.4664 1.37612V4.91444L8.79959 6.22867C8.18505 6.33649 7.77177 6.9246 7.87824 7.5385L8.26735 9.80724C5.77536 10.6458 3.21688 11.5103 0.746982 12.3975C0.163357 12.6109 -0.142921 13.2598 0.065337 13.847L4.97844 27.5047C5.07727 27.7795 5.33629 27.9506 5.61256 27.9506C5.68821 27.9506 5.76529 27.9378 5.84058 27.9107C6.19079 27.7847 6.37255 27.3987 6.24659 27.0485L1.40617 13.5928C3.73312 12.7597 6.14291 11.9443 8.49798 11.1516L10.8133 24.6501L13.4776 40.196C13.5738 40.7448 14.0562 41.1352 14.6006 41.1352C14.6622 41.1352 14.7248 41.1302 14.7875 41.1199L22.0034 39.8815L27.642 38.915L19.1615 41.9631L12.474 44.3676L7.28033 29.9217C7.15446 29.5715 6.76858 29.3898 6.41828 29.5156C6.06807 29.6415 5.88631 30.0275 6.01218 30.3777L11.2795 45.0289C11.448 45.4896 11.8845 45.776 12.3458 45.776C12.4733 45.776 12.6028 45.7541 12.7289 45.708L19.6173 43.2314L35.2586 37.6095L38.2467 37.0973H44.8476C45.483 37.0973 45.9999 36.5792 45.9999 35.9424V6.56487C46 6.16156 45.7812 5.95582 45.6214 5.8056ZM43.8361 5.96516H40.4643L40.3807 5.96552C40.2193 5.9666 39.8413 5.96938 39.7455 5.87415C39.7234 5.85214 39.6975 5.77865 39.6975 5.64217L39.6897 2.01114L43.8361 5.96516ZM44.6524 35.7494H17.8141V22.6173C17.8141 22.2451 17.5124 21.9434 17.1402 21.9434C16.7681 21.9434 16.4664 22.2451 16.4664 22.6173V35.9422C16.4664 36.579 16.9834 37.0971 17.6187 37.0971H30.2698L21.7755 38.5531L14.7693 39.7555L12.1416 24.4223L9.24243 7.52L16.4663 6.28168V19.4907C16.4663 19.8628 16.768 20.1645 17.1401 20.1645C17.5123 20.1645 17.814 19.8628 17.814 19.4907V1.57144H38.341L38.3498 5.6437C38.3498 6.1373 38.5 6.53657 38.796 6.83054C39.2509 7.28218 39.8939 7.31363 40.2931 7.31363C40.3274 7.31363 40.3599 7.31336 40.3904 7.31318L44.6524 7.31291V35.7494Z" fill="white"/>
<path d="M21.0625 10.6868C21.0625 11.0589 21.3642 11.3606 21.7363 11.3606H41.0021C41.3742 11.3606 41.6759 11.0589 41.6759 10.6868C41.6759 10.3146 41.3742 10.0129 41.0021 10.0129H21.7363C21.3642 10.0129 21.0625 10.3146 21.0625 10.6868Z" fill="white"/>
<path d="M41.0021 14.8H21.7363C21.3642 14.8 21.0625 15.1017 21.0625 15.4739C21.0625 15.846 21.3642 16.1477 21.7363 16.1477H41.0021C41.3742 16.1477 41.6759 15.846 41.6759 15.4739C41.6759 15.1017 41.3742 14.8 41.0021 14.8Z" fill="white"/>
<path d="M41.0021 19.5869H21.7363C21.3642 19.5869 21.0625 19.8886 21.0625 20.2607C21.0625 20.6329 21.3642 20.9346 21.7363 20.9346H41.0021C41.3742 20.9346 41.6759 20.6329 41.6759 20.2607C41.6759 19.8886 41.3742 19.5869 41.0021 19.5869Z" fill="white"/>
<path d="M41.0021 24.374H21.7363C21.3642 24.374 21.0625 24.6757 21.0625 25.0479C21.0625 25.42 21.3642 25.7217 21.7363 25.7217H41.0021C41.3742 25.7217 41.6759 25.42 41.6759 25.0479C41.6759 24.6757 41.3742 24.374 41.0021 24.374Z" fill="white"/>
<path d="M41.0021 29.1611H21.7363C21.3642 29.1611 21.0625 29.4628 21.0625 29.835C21.0625 30.2071 21.3642 30.5088 21.7363 30.5088H41.0021C41.3742 30.5088 41.6759 30.2071 41.6759 29.835C41.6759 29.4628 41.3742 29.1611 41.0021 29.1611Z" fill="white"/>
</g>
<defs>
<clipPath id="clip0">
<rect width="46" height="46" fill="white"/>
</clipPath>
</defs>
</svg>
