<svg width="45" height="45" viewBox="0 0 45 45" fill="none" xmlns="http://www.w3.org/2000/svg">
<path d="M14.5898 20.7422C15.0753 20.7422 15.4688 20.3487 15.4688 19.8633C15.4688 19.3779 15.0753 18.9844 14.5898 18.9844C14.1044 18.9844 13.7109 19.3779 13.7109 19.8633C13.7109 20.3487 14.1044 20.7422 14.5898 20.7422Z" fill="white"/>
<path d="M14.5898 26.0156C15.0753 26.0156 15.4688 25.6221 15.4688 25.1367C15.4688 24.6513 15.0753 24.2578 14.5898 24.2578C14.1044 24.2578 13.7109 24.6513 13.7109 25.1367C13.7109 25.6221 14.1044 26.0156 14.5898 26.0156Z" fill="white"/>
<path d="M14.5898 31.2891C15.0753 31.2891 15.4688 30.8956 15.4688 30.4102C15.4688 29.9247 15.0753 29.5312 14.5898 29.5312C14.1044 29.5312 13.7109 29.9247 13.7109 30.4102C13.7109 30.8956 14.1044 31.2891 14.5898 31.2891Z" fill="white"/>
<path d="M14.5898 36.5625C15.0753 36.5625 15.4688 36.169 15.4688 35.6836C15.4688 35.1982 15.0753 34.8047 14.5898 34.8047C14.1044 34.8047 13.7109 35.1982 13.7109 35.6836C13.7109 36.169 14.1044 36.5625 14.5898 36.5625Z" fill="white"/>
<path d="M19.8633 20.7422H30.4102C30.8955 20.7422 31.2891 20.3486 31.2891 19.8633C31.2891 19.3779 30.8955 18.9844 30.4102 18.9844H19.8633C19.3779 18.9844 18.9844 19.3779 18.9844 19.8633C18.9844 20.3486 19.3779 20.7422 19.8633 20.7422Z" fill="white"/>
<path d="M19.8633 26.0156H30.4102C30.8955 26.0156 31.2891 25.6221 31.2891 25.1367C31.2891 24.6514 30.8955 24.2578 30.4102 24.2578H19.8633C19.3779 24.2578 18.9844 24.6514 18.9844 25.1367C18.9844 25.6221 19.3779 26.0156 19.8633 26.0156Z" fill="white"/>
<path d="M19.8633 31.2891H30.4102C30.8955 31.2891 31.2891 30.8955 31.2891 30.4102C31.2891 29.9248 30.8955 29.5312 30.4102 29.5312H19.8633C19.3779 29.5312 18.9844 29.9248 18.9844 30.4102C18.9844 30.8955 19.3779 31.2891 19.8633 31.2891Z" fill="white"/>
<path d="M19.8633 36.5625H30.4102C30.8955 36.5625 31.2891 36.1689 31.2891 35.6836C31.2891 35.1983 30.8955 34.8047 30.4102 34.8047H19.8633C19.3779 34.8047 18.9844 35.1983 18.9844 35.6836C18.9844 36.1689 19.3779 36.5625 19.8633 36.5625Z" fill="white"/>
<path d="M35.6836 7.91016H28.5411C28.2224 6.67661 27.2493 5.7034 26.0156 5.38471V3.51562C26.0156 1.57711 24.4385 0 22.5 0C20.5615 0 18.9844 1.57711 18.9844 3.51562V5.38471C17.7508 5.7034 16.7776 6.67661 16.4589 7.91016H9.31641C8.83107 7.91016 8.4375 8.30373 8.4375 8.78906V44.1211C8.4375 44.6064 8.83107 45 9.31641 45H18.5449C19.0303 45 19.4238 44.6064 19.4238 44.1211C19.4238 43.6358 19.0303 43.2422 18.5449 43.2422H10.1953V9.66797H16.3477V11.4258C16.3477 11.9111 16.7412 12.3047 17.2266 12.3047H27.7734C28.2588 12.3047 28.6523 11.9111 28.6523 11.4258V9.66797H34.8047V43.2422H26.4551C25.9697 43.2422 25.5762 43.6358 25.5762 44.1211C25.5762 44.6064 25.9697 45 26.4551 45H35.6836C36.1689 45 36.5625 44.6064 36.5625 44.1211V8.78906C36.5625 8.30373 36.169 7.91016 35.6836 7.91016ZM20.7422 3.51562C20.7422 2.54637 21.5307 1.75781 22.5 1.75781C23.4693 1.75781 24.2578 2.54637 24.2578 3.51562V5.27344H20.7422V3.51562ZM26.8945 10.5469H18.1055V8.78906C18.1055 7.8198 18.894 7.03125 19.8633 7.03125H25.1367C26.106 7.03125 26.8945 7.8198 26.8945 8.78906V10.5469Z" fill="white"/>
<path d="M22.5 45C22.9854 45 23.3789 44.6065 23.3789 44.1211C23.3789 43.6357 22.9854 43.2422 22.5 43.2422C22.0146 43.2422 21.6211 43.6357 21.6211 44.1211C21.6211 44.6065 22.0146 45 22.5 45Z" fill="white"/>
</svg>
