<svg width="45" height="45" viewBox="0 0 45 45" fill="none" xmlns="http://www.w3.org/2000/svg">
<path d="M12.6562 14.7656C12.6562 14.9521 12.7303 15.1309 12.8622 15.2628C12.9941 15.3947 13.1729 15.4688 13.3594 15.4688H26.0156C26.2021 15.4688 26.3809 15.3947 26.5128 15.2628C26.6447 15.1309 26.7188 14.9521 26.7188 14.7656C26.7188 14.5791 26.6447 14.4003 26.5128 14.2684C26.3809 14.1366 26.2021 14.0625 26.0156 14.0625H13.3594C13.1729 14.0625 12.9941 14.1366 12.8622 14.2684C12.7303 14.4003 12.6562 14.5791 12.6562 14.7656Z" fill="white"/>
<path d="M6.32812 19.6875H17.5781C17.7646 19.6875 17.9434 19.6134 18.0753 19.4816C18.2072 19.3497 18.2812 19.1709 18.2812 18.9844C18.2812 18.7979 18.2072 18.6191 18.0753 18.4872C17.9434 18.3553 17.7646 18.2812 17.5781 18.2812H6.32812C6.14164 18.2812 5.9628 18.3553 5.83094 18.4872C5.69908 18.6191 5.625 18.7979 5.625 18.9844C5.625 19.1709 5.69908 19.3497 5.83094 19.4816C5.9628 19.6134 6.14164 19.6875 6.32812 19.6875Z" fill="white"/>
<path d="M21.7969 22.5H17.5781C17.3916 22.5 17.2128 22.5741 17.0809 22.7059C16.9491 22.8378 16.875 23.0166 16.875 23.2031C16.875 23.3896 16.9491 23.5684 17.0809 23.7003C17.2128 23.8322 17.3916 23.9062 17.5781 23.9062H21.7969C21.9834 23.9062 22.1622 23.8322 22.2941 23.7003C22.4259 23.5684 22.5 23.3896 22.5 23.2031C22.5 23.0166 22.4259 22.8378 22.2941 22.7059C22.1622 22.5741 21.9834 22.5 21.7969 22.5Z" fill="white"/>
<path d="M14.7656 26.7188H6.32812C6.14164 26.7188 5.9628 26.7928 5.83094 26.9247C5.69908 27.0566 5.625 27.2354 5.625 27.4219C5.625 27.6084 5.69908 27.7872 5.83094 27.9191C5.9628 28.0509 6.14164 28.125 6.32812 28.125H14.7656C14.9521 28.125 15.1309 28.0509 15.2628 27.9191C15.3947 27.7872 15.4688 27.6084 15.4688 27.4219C15.4688 27.2354 15.3947 27.0566 15.2628 26.9247C15.1309 26.7928 14.9521 26.7188 14.7656 26.7188Z" fill="white"/>
<path d="M6.32812 15.4688H10.5469C10.7334 15.4688 10.9122 15.3947 11.0441 15.2628C11.1759 15.1309 11.25 14.9521 11.25 14.7656C11.25 14.5791 11.1759 14.4003 11.0441 14.2684C10.9122 14.1366 10.7334 14.0625 10.5469 14.0625H6.32812C6.14164 14.0625 5.9628 14.1366 5.83094 14.2684C5.69908 14.4003 5.625 14.5791 5.625 14.7656C5.625 14.9521 5.69908 15.1309 5.83094 15.2628C5.9628 15.3947 6.14164 15.4688 6.32812 15.4688Z" fill="white"/>
<path d="M23.2031 18.2812H20.3906C20.2041 18.2812 20.0253 18.3553 19.8934 18.4872C19.7616 18.6191 19.6875 18.7979 19.6875 18.9844C19.6875 19.1709 19.7616 19.3497 19.8934 19.4816C20.0253 19.6134 20.2041 19.6875 20.3906 19.6875H23.2031C23.3896 19.6875 23.5684 19.6134 23.7003 19.4816C23.8322 19.3497 23.9062 19.1709 23.9062 18.9844C23.9062 18.7979 23.8322 18.6191 23.7003 18.4872C23.5684 18.3553 23.3896 18.2812 23.2031 18.2812Z" fill="white"/>
<path d="M14.7656 22.5H6.32812C6.14164 22.5 5.9628 22.5741 5.83094 22.7059C5.69908 22.8378 5.625 23.0166 5.625 23.2031C5.625 23.3896 5.69908 23.5684 5.83094 23.7003C5.9628 23.8322 6.14164 23.9062 6.32812 23.9062H14.7656C14.9521 23.9062 15.1309 23.8322 15.2628 23.7003C15.3947 23.5684 15.4688 23.3896 15.4688 23.2031C15.4688 23.0166 15.3947 22.8378 15.2628 22.7059C15.1309 22.5741 14.9521 22.5 14.7656 22.5Z" fill="white"/>
<path d="M10.5469 30.9375H6.32812C6.14164 30.9375 5.9628 31.0116 5.83094 31.1434C5.69908 31.2753 5.625 31.4541 5.625 31.6406C5.625 31.8271 5.69908 32.0059 5.83094 32.1378C5.9628 32.2697 6.14164 32.3438 6.32812 32.3438H10.5469C10.7334 32.3438 10.9122 32.2697 11.0441 32.1378C11.1759 32.0059 11.25 31.8271 11.25 31.6406C11.25 31.4541 11.1759 31.2753 11.0441 31.1434C10.9122 31.0116 10.7334 30.9375 10.5469 30.9375Z" fill="white"/>
<path d="M6.32812 11.25H14.7656C14.9521 11.25 15.1309 11.1759 15.2628 11.0441C15.3947 10.9122 15.4688 10.7334 15.4688 10.5469C15.4688 10.3604 15.3947 10.1816 15.2628 10.0497C15.1309 9.91783 14.9521 9.84375 14.7656 9.84375H6.32812C6.14164 9.84375 5.9628 9.91783 5.83094 10.0497C5.69908 10.1816 5.625 10.3604 5.625 10.5469C5.625 10.7334 5.69908 10.9122 5.83094 11.0441C5.9628 11.1759 6.14164 11.25 6.32812 11.25Z" fill="white"/>
<path d="M14.7656 30.9375H13.3594C13.1729 30.9375 12.9941 31.0116 12.8622 31.1434C12.7303 31.2753 12.6562 31.4541 12.6562 31.6406C12.6562 31.8271 12.7303 32.0059 12.8622 32.1378C12.9941 32.2697 13.1729 32.3438 13.3594 32.3438H14.7656C14.9521 32.3438 15.1309 32.2697 15.2628 32.1378C15.3947 32.0059 15.4688 31.8271 15.4688 31.6406C15.4688 31.4541 15.3947 31.2753 15.2628 31.1434C15.1309 31.0116 14.9521 30.9375 14.7656 30.9375Z" fill="white"/>
<path d="M42.8906 26.7188H30.9375V22.8704C32.1013 22.6823 33.2753 22.5629 34.4531 22.5128V23.9062C34.4531 24.0407 34.4917 24.1724 34.5642 24.2856C34.6368 24.3989 34.7403 24.4889 34.8625 24.5451C34.9846 24.6013 35.1204 24.6213 35.2536 24.6027C35.3867 24.584 35.5118 24.5276 35.6139 24.4401L40.5358 20.2213C40.6128 20.1553 40.6746 20.0735 40.717 19.9813C40.7594 19.8892 40.7813 19.7889 40.7813 19.6875C40.7813 19.5861 40.7594 19.4858 40.717 19.3937C40.6746 19.3015 40.6128 19.2197 40.5358 19.1537L35.6139 14.9349C35.5118 14.8474 35.3867 14.791 35.2536 14.7723C35.1204 14.7537 34.9846 14.7737 34.8625 14.8299C34.7403 14.8861 34.6368 14.9761 34.5642 15.0894C34.4917 15.2026 34.4531 15.3343 34.4531 15.4688V16.8967C33.2558 16.9754 32.0739 17.2103 30.9375 17.5955V10.5469C30.9375 10.4545 30.9193 10.3631 30.884 10.2778C30.8487 10.1925 30.7969 10.115 30.7316 10.0497L23.7003 3.01843C23.635 2.95314 23.5575 2.90135 23.4722 2.86601C23.3869 2.83068 23.2955 2.8125 23.2031 2.8125H4.92188C3.98979 2.81355 3.09619 3.18428 2.43711 3.84336C1.77803 4.50244 1.4073 5.39604 1.40625 6.32812V35.8594C1.4073 36.7915 1.77803 37.6851 2.43711 38.3441C3.09619 39.0032 3.98979 39.374 4.92188 39.375H18.2812V42.8906C18.2812 43.0771 18.3553 43.2559 18.4872 43.3878C18.6191 43.5197 18.7979 43.5938 18.9844 43.5938H42.8906C43.0771 43.5938 43.2559 43.5197 43.3878 43.3878C43.5197 43.2559 43.5938 43.0771 43.5938 42.8906V27.4219C43.5938 27.2354 43.5197 27.0566 43.3878 26.9247C43.2559 26.7928 43.0771 26.7188 42.8906 26.7188ZM41.1176 28.125L30.9375 37.7063L20.7574 28.125H41.1176ZM35.1562 18.2812C35.3427 18.2812 35.5216 18.2072 35.6534 18.0753C35.7853 17.9434 35.8594 17.7646 35.8594 17.5781V16.9975L38.9978 19.6875L35.8594 22.3775V21.7969C35.8594 21.6104 35.7853 21.4316 35.6534 21.2997C35.5216 21.1678 35.3427 21.0938 35.1562 21.0938C32.0515 21.0938 28.6331 21.8212 26.9214 22.2403C27.8539 20.0252 31.8281 18.2812 35.1562 18.2812ZM23.9062 5.21306L28.5369 9.84375H26.0156C25.4564 9.84312 24.9202 9.62068 24.5248 9.22523C24.1293 8.82979 23.9069 8.29362 23.9062 7.73438V5.21306ZM18.2812 27.4219V37.9688H4.92188C4.36263 37.9681 3.82646 37.7457 3.43102 37.3502C3.03557 36.9548 2.81313 36.4186 2.8125 35.8594V6.32812C2.81313 5.76888 3.03557 5.23271 3.43102 4.83727C3.82646 4.44182 4.36263 4.21938 4.92188 4.21875H22.5V7.73438C22.501 8.66646 22.8718 9.56006 23.5309 10.2191C24.1899 10.8782 25.0835 11.249 26.0156 11.25H29.5312V18.1592C29.2279 18.3019 28.9332 18.4541 28.6516 18.6172C26.4983 19.8641 25.3125 21.4928 25.3125 23.2031C25.3125 23.312 25.3378 23.4193 25.3863 23.5168C25.4349 23.6142 25.5054 23.699 25.5923 23.7646C25.6792 23.8301 25.7801 23.8746 25.8871 23.8945C25.9942 23.9143 26.1043 23.9091 26.209 23.8792C26.2347 23.8719 27.6236 23.4794 29.5312 23.115V26.7185H18.9844C18.892 26.7185 18.8006 26.7367 18.7152 26.772C18.6299 26.8074 18.5524 26.8592 18.4871 26.9245C18.4218 26.9898 18.37 27.0674 18.3347 27.1527C18.2994 27.2381 18.2812 27.3295 18.2812 27.4219ZM42.1875 42.1875H19.6875V29.0493L30.4556 39.1839C30.586 39.3067 30.7584 39.375 30.9375 39.375C31.1166 39.375 31.289 39.3067 31.4194 39.1839L42.1875 29.0493V42.1875Z" fill="white"/>
</svg>
